<svg width="237" height="93" viewBox="0 0 237 93" fill="none" xmlns="http://www.w3.org/2000/svg">
    <g filter="url(#filter0_d_27_129)">
        <rect x="217" y="69" width="197" height="53" rx="10" transform="rotate(-180 217 69)"
            fill="url(#paint0_linear_27_129)" />
        <path
            d="M83.9922 42.375C83.9453 42.8438 83.7812 43.25 83.5 43.5938C83.2344 43.9219 82.9141 44.2109 82.5391 44.4609C82.1641 44.6953 81.7578 44.8984 81.3203 45.0703C80.8828 45.2422 80.4766 45.4062 80.1016 45.5625C80.1016 45.7969 80.0469 45.9453 79.9375 46.0078C79.8438 46.0703 79.7266 46.1094 79.5859 46.125C79.4453 46.125 79.2891 46.125 79.1172 46.125C78.9609 46.125 78.8203 46.1719 78.6953 46.2656L78.4609 46.0781C78.4141 46.1406 78.3594 46.1953 78.2969 46.2422C78.25 46.2734 78.2031 46.3203 78.1562 46.3828C78.0938 46.4609 78.0312 46.5391 77.9688 46.6172C77.9219 46.6797 77.8438 46.7109 77.7344 46.7109C77.5312 46.6328 77.3281 46.6172 77.125 46.6641C76.9219 46.7109 76.7109 46.7812 76.4922 46.875C76.2891 46.9688 76.0781 47.0625 75.8594 47.1562C75.6406 47.2344 75.4219 47.2734 75.2031 47.2734L75.1797 47.2969C75.0078 47.4219 74.8828 47.5391 74.8047 47.6484C74.7266 47.7422 74.6328 47.875 74.5234 48.0469C74.3984 48.2188 74.2734 48.3672 74.1484 48.4922C74.0391 48.6328 73.8594 48.6875 73.6094 48.6562C73.5625 48.6094 73.5 48.5625 73.4219 48.5156C73.3438 48.4688 73.2734 48.4297 73.2109 48.3984C73.0391 48.3203 72.9453 48.2578 72.9297 48.2109C72.9297 48.1797 72.875 48.125 72.7656 48.0469C72.6406 48.125 72.4297 48.2031 72.1328 48.2812C71.8359 48.375 71.5156 48.4531 71.1719 48.5156C70.8438 48.5938 70.5156 48.6641 70.1875 48.7266C69.875 48.7891 69.6406 48.8281 69.4844 48.8438C69.4062 48.7656 69.3359 48.6953 69.2734 48.6328C69.2109 48.5859 69.1406 48.5234 69.0625 48.4453H69.0391C68.6484 48.5234 68.2656 48.5703 67.8906 48.5859C67.5312 48.6172 67.1719 48.6328 66.8125 48.6328C66.4531 48.6328 66.0938 48.6328 65.7344 48.6328C65.375 48.6328 65.0078 48.6406 64.6328 48.6562C64.3984 48.2656 64.1641 48.0625 63.9297 48.0469C63.6953 48.0469 63.4609 48.1094 63.2266 48.2344C62.9922 48.3594 62.7656 48.4922 62.5469 48.6328C62.3125 48.7734 62.0781 48.7812 61.8438 48.6562L61.8203 48.6797C61.4297 48.8516 61.0781 49.0469 60.7656 49.2656C60.4531 49.5 60.1484 49.7266 59.8516 49.9453C59.5391 50.1797 59.2188 50.3906 58.8906 50.5781C58.5469 50.7812 58.1562 50.9219 57.7188 51C57.4688 50.8125 57.2344 50.7578 57.0156 50.8359C56.7969 50.9141 56.5859 51.0156 56.3828 51.1406C56.1641 51.2656 55.9609 51.3594 55.7734 51.4219C55.5859 51.4844 55.4062 51.4141 55.2344 51.2109H55.2109V51.1875C55.1172 51.125 55.0312 51.1016 54.9531 51.1172C54.875 51.1328 54.8047 51.1562 54.7422 51.1875C54.6641 51.2344 54.6016 51.2812 54.5547 51.3281C54.5078 51.375 54.4609 51.3906 54.4141 51.375C54.3516 51.375 54.3047 51.3359 54.2734 51.2578C54.3516 51.0859 54.4844 50.9531 54.6719 50.8594C54.8594 50.7656 55.0625 50.6719 55.2812 50.5781C55.5 50.5 55.7188 50.3984 55.9375 50.2734C56.1562 50.1641 56.3359 50 56.4766 49.7812C56.8359 49.5938 57.2031 49.4219 57.5781 49.2656C57.9375 49.1094 58.2656 48.8984 58.5625 48.6328C58.8281 48.6797 59.1484 48.6406 59.5234 48.5156C59.8828 48.4062 60.1953 48.3125 60.4609 48.2344L60.5312 48.1875C60.5781 48.0781 60.6484 47.9922 60.7422 47.9297C60.8203 47.8672 60.9141 47.8125 61.0234 47.7656C61.1172 47.7031 61.2188 47.6328 61.3281 47.5547C61.4375 47.4609 61.5391 47.3438 61.6328 47.2031L61.6562 47.1797L61.6328 47.1562C61.5391 46.8594 61.4219 46.5938 61.2812 46.3594C61.125 46.125 60.9766 45.8984 60.8359 45.6797C60.6797 45.4453 60.5469 45.2031 60.4375 44.9531C60.3281 44.7031 60.2734 44.4141 60.2734 44.0859C60.3516 43.9922 60.4297 43.8828 60.5078 43.7578C60.5859 43.6328 60.6719 43.5156 60.7656 43.4062C60.8594 43.2812 60.9609 43.1797 61.0703 43.1016C61.1797 43.0078 61.3047 42.9609 61.4453 42.9609L61.7031 43.1953C61.8594 43.0234 62.0625 42.9375 62.3125 42.9375C62.5469 42.9375 62.8047 42.9688 63.0859 43.0312C63.3516 43.0781 63.625 43.1328 63.9062 43.1953C64.1719 43.2422 64.4141 43.2344 64.6328 43.1719C64.8828 43.2969 65.1094 43.4453 65.3125 43.6172C65.5156 43.7891 65.7266 43.9375 65.9453 44.0625C66.1484 44.1875 66.375 44.2734 66.625 44.3203C66.8594 44.3516 67.1328 44.2891 67.4453 44.1328L67.5156 44.1094V44.0625C67.5469 43.8281 67.6406 43.6484 67.7969 43.5234C67.9688 43.3828 68.1484 43.2578 68.3359 43.1484C68.5234 43.0391 68.6953 42.9297 68.8516 42.8203C69.0078 42.6953 69.1016 42.5312 69.1328 42.3281C69.5547 41.9688 69.9219 41.6406 70.2344 41.3438C70.5625 41.0469 70.8594 40.75 71.125 40.4531C71.4062 40.1406 71.6719 39.8125 71.9219 39.4688C72.1875 39.125 72.4766 38.7188 72.7891 38.25L72.8125 38.2266C72.7812 38.1172 72.8203 37.9844 72.9297 37.8281C73.0547 37.6562 73.1719 37.4688 73.2812 37.2656C73.3906 37.0625 73.4609 36.8438 73.4922 36.6094C73.5234 36.375 73.4453 36.125 73.2578 35.8594C73.3672 35.6406 73.4375 35.4219 73.4688 35.2031C73.5156 34.9844 73.6094 34.7734 73.75 34.5703L73.7969 34.4766C73.6562 34.4141 73.5781 34.3125 73.5625 34.1719C73.5625 34.0156 73.5703 33.8438 73.5859 33.6562C73.6172 33.4688 73.6328 33.2812 73.6328 33.0938C73.6484 32.8906 73.5938 32.7188 73.4688 32.5781C73.7812 32.3438 73.9766 32.0703 74.0547 31.7578C74.1484 31.4453 74.2109 31.1172 74.2422 30.7734C74.2734 30.4766 74.3125 30.25 74.3594 30.0938C74.4219 29.9219 74.5156 29.6953 74.6406 29.4141L74.6172 29.3906C74.4297 28.9531 74.4141 28.5859 74.5703 28.2891C74.7266 27.9922 74.9453 27.7188 75.2266 27.4688C75.5078 27.2031 75.7969 26.9453 76.0938 26.6953C76.4062 26.4453 76.6172 26.1406 76.7266 25.7812C76.9922 25.5938 77.2891 25.5312 77.6172 25.5938C77.8984 25.6562 78.1562 25.7969 78.3906 26.0156C78.625 26.2188 78.8281 26.4375 79 26.6719C79.0312 26.7031 79.0703 26.75 79.1172 26.8125C79.1641 26.875 79.1875 26.9141 79.1875 26.9297C79.25 27.1328 79.2734 27.3438 79.2578 27.5625C79.2422 27.7656 79.2109 27.9688 79.1641 28.1719C79.1172 28.375 79.0781 28.5781 79.0469 28.7812C79.0312 28.9844 79.0547 29.1875 79.1172 29.3906C78.9297 29.7031 78.7891 30.0312 78.6953 30.375C78.6172 30.7188 78.5391 31.0625 78.4609 31.4062C78.3984 31.75 78.3125 32.0859 78.2031 32.4141C78.0938 32.7266 77.9062 33.0078 77.6406 33.2578V33.2812C77.4219 33.6562 77.2031 34.0078 76.9844 34.3359C76.7812 34.6484 76.5703 34.9688 76.3516 35.2969C76.1328 35.6094 75.9219 35.9375 75.7188 36.2812C75.5156 36.625 75.3203 36.9922 75.1328 37.3828L75.1094 37.4062C75.2344 37.6406 75.25 37.8594 75.1562 38.0625C75.0625 38.2656 74.9609 38.4766 74.8516 38.6953C74.7422 38.9141 74.6797 39.1484 74.6641 39.3984C74.6484 39.6328 74.7812 39.8906 75.0625 40.1719C74.9844 40.2656 74.9453 40.3906 74.9453 40.5469C74.9453 40.7031 74.9453 40.8594 74.9453 41.0156C74.9609 41.1562 74.9609 41.2969 74.9453 41.4375C74.9297 41.5625 74.8672 41.6562 74.7578 41.7188C74.8047 41.75 74.8438 41.7891 74.875 41.8359C74.9219 41.8828 74.9688 41.9219 75.0156 41.9531C75.0156 42.0625 75.0078 42.1719 74.9922 42.2812C74.9922 42.3906 74.9844 42.5078 74.9688 42.6328C74.9531 42.8047 74.9453 42.9766 74.9453 43.1484C74.9453 43.3203 74.9375 43.4922 74.9219 43.6641C74.9219 43.6953 74.9141 43.7344 74.8984 43.7812C74.8828 43.8125 74.875 43.8516 74.875 43.8984C74.875 44.0234 74.8984 44.1406 74.9453 44.25C75.0078 44.3594 75.0625 44.4688 75.1094 44.5781C75.1562 44.6719 75.1719 44.7734 75.1562 44.8828C75.1562 44.9922 75.1016 45.1016 74.9922 45.2109L75.0156 45.2578C75.1719 45.4922 75.3203 45.6172 75.4609 45.6328C75.6172 45.6484 75.7656 45.6406 75.9062 45.6094C76.0625 45.5625 76.2188 45.5312 76.375 45.5156C76.5312 45.4844 76.6953 45.5547 76.8672 45.7266C77.2891 45.5078 77.7188 45.3203 78.1562 45.1641C78.5938 45.0078 79.0312 44.8672 79.4688 44.7422C80.0469 44.5859 80.6016 44.4141 81.1328 44.2266C81.6797 44.0234 82.1875 43.7266 82.6562 43.3359C82.8438 43.1797 83.0547 42.9922 83.2891 42.7734C83.5391 42.5547 83.7734 42.4219 83.9922 42.375ZM77.9453 27.375C77.8672 27.3594 77.7969 27.375 77.7344 27.4219C77.6719 27.4531 77.6094 27.4922 77.5469 27.5391C77.4844 27.5703 77.4219 27.5859 77.3594 27.5859C77.3125 27.5703 77.2656 27.5156 77.2188 27.4219L77.0547 27.4688C77.0859 27.8438 77.0469 28.1953 76.9375 28.5234C76.8281 28.8516 76.6875 29.1719 76.5156 29.4844C76.3594 29.7812 76.1875 30.0859 76 30.3984C75.8125 30.6953 75.6562 31.0078 75.5312 31.3359C75.4062 31.6641 75.3281 32.0156 75.2969 32.3906C75.2656 32.75 75.3203 33.1406 75.4609 33.5625L75.4844 33.6094C75.75 33.6094 75.9297 33.5469 76.0234 33.4219C76.1172 33.2812 76.1719 33.1328 76.1875 32.9766C76.2188 32.8203 76.25 32.6875 76.2812 32.5781C76.3125 32.4531 76.4062 32.3984 76.5625 32.4141C76.5625 32.1953 76.6172 32.0078 76.7266 31.8516C76.8516 31.6797 76.9688 31.5156 77.0781 31.3594C77.1875 31.2031 77.2656 31.0391 77.3125 30.8672C77.375 30.6953 77.3359 30.4766 77.1953 30.2109C77.3047 30.0078 77.3594 29.7812 77.3594 29.5312C77.375 29.2812 77.3828 29.0312 77.3828 28.7812C77.3984 28.5312 77.4375 28.2969 77.5 28.0781C77.5781 27.8594 77.7344 27.6875 77.9688 27.5625L77.9453 27.375ZM73.7031 45.75C73.7031 45.4219 73.6328 45.1172 73.4922 44.8359C73.3672 44.5391 73.3047 44.2266 73.3047 43.8984C73.3047 43.8047 73.3125 43.7344 73.3281 43.6875C73.4219 43.3906 73.4688 43.1094 73.4688 42.8438C73.4688 42.5781 73.4531 42.3203 73.4219 42.0703C73.3906 41.8047 73.375 41.5391 73.375 41.2734C73.3281 41.2266 73.3438 41.1641 73.4219 41.0859C73.5156 41.0078 73.5781 40.9531 73.6094 40.9219C73.5625 40.8906 73.4766 40.8203 73.3516 40.7109C73.2422 40.6016 73.1641 40.5234 73.1172 40.4766L72.9766 40.5469C72.9766 40.6562 72.9297 40.75 72.8359 40.8281C72.7422 40.8906 72.6406 40.9609 72.5312 41.0391C72.4219 41.1016 72.3359 41.1797 72.2734 41.2734C72.2109 41.3672 72.2031 41.5078 72.25 41.6953C71.8906 41.9609 71.5625 42.25 71.2656 42.5625C70.9688 42.875 70.6719 43.1953 70.375 43.5234C70.0938 43.8359 69.8047 44.1406 69.5078 44.4375C69.2109 44.7188 68.8906 44.9766 68.5469 45.2109L69.25 45.9141L69.3203 45.8906C69.4922 45.8281 69.6406 45.8281 69.7656 45.8906C69.9062 45.9531 70.0312 46.0234 70.1406 46.1016C70.2656 46.1641 70.3828 46.2109 70.4922 46.2422C70.6016 46.2734 70.7188 46.2344 70.8438 46.125C70.9375 46.1875 71 46.2422 71.0312 46.2891C71.2656 46.3047 71.4922 46.3359 71.7109 46.3828C71.9453 46.4297 72.1719 46.4609 72.3906 46.4766C72.625 46.4922 72.8438 46.4766 73.0469 46.4297C73.2656 46.3672 73.4688 46.2422 73.6562 46.0547H73.6797C73.6797 46.0078 73.6797 45.9609 73.6797 45.9141C73.6953 45.8516 73.7031 45.7969 73.7031 45.75ZM67.4453 46.3594H67.4219C67.3281 46.1562 67.1797 46.0859 66.9766 46.1484C66.9453 46.1641 66.8828 46.1797 66.7891 46.1953C66.6953 46.2109 66.6016 46.2344 66.5078 46.2656C66.3984 46.2812 66.3125 46.3125 66.25 46.3594C66.1719 46.3906 66.1406 46.4297 66.1562 46.4766L65.4766 46.8516L68.4297 47.0391L67.4453 46.3594ZM65.3125 45.2109C65.1562 45.1641 64.9922 45.0703 64.8203 44.9297C64.6328 44.7734 64.4844 44.6406 64.375 44.5312C64.1875 44.625 64.0156 44.6562 63.8594 44.625C63.7031 44.5781 63.5547 44.5234 63.4141 44.4609C63.2734 44.3828 63.1406 44.3203 63.0156 44.2734C62.875 44.2266 62.7344 44.25 62.5938 44.3438C62.5312 44.3125 62.4844 44.2812 62.4531 44.25C62.4062 44.2031 62.3672 44.1641 62.3359 44.1328C62.1484 44.3984 62.1094 44.6328 62.2188 44.8359C62.3281 45.0234 62.4688 45.2031 62.6406 45.375C62.7969 45.5312 62.9375 45.6875 63.0625 45.8438C63.1719 45.9844 63.1484 46.1484 62.9922 46.3359L63.0625 46.4766H63.7422C63.7734 46.4453 63.8438 46.3906 63.9531 46.3125C64.0469 46.2188 64.1016 46.1484 64.1172 46.1016C64.1797 46.0547 64.2578 45.9844 64.3516 45.8906C64.4453 45.7812 64.5469 45.6797 64.6562 45.5859C64.7656 45.4766 64.875 45.3828 64.9844 45.3047C65.0938 45.2266 65.2031 45.1953 65.3125 45.2109ZM99.2031 40.8281C99.0625 40.9688 98.9531 41.0781 98.875 41.1562C98.8125 41.2344 98.75 41.3125 98.6875 41.3906C98.6406 41.4531 98.5781 41.5234 98.5 41.6016C98.4375 41.6797 98.3359 41.7969 98.1953 41.9531C98.0703 42.0781 97.9531 42.2109 97.8438 42.3516C97.7344 42.4922 97.6094 42.6172 97.4688 42.7266C97.2812 42.6797 97.1328 42.7031 97.0234 42.7969C96.9297 42.8906 96.8359 43 96.7422 43.125C96.6641 43.2344 96.5859 43.3438 96.5078 43.4531C96.4453 43.5469 96.3594 43.5859 96.25 43.5703C95.875 43.7734 95.5 43.9531 95.125 44.1094C94.75 44.25 94.3906 44.4609 94.0469 44.7422L93.8594 44.5547L91.4219 45.7266C91.3438 45.7578 91.2656 45.8047 91.1875 45.8672C91.1094 45.9297 91.0312 45.9844 90.9531 46.0312C90.6094 46.2188 90.25 46.3906 89.875 46.5469C89.5156 46.6875 89.1562 46.8203 88.7969 46.9453L88.4922 47.0391C88.6172 47.3516 88.6172 47.5703 88.4922 47.6953C88.3672 47.8203 88.1875 47.9141 87.9531 47.9766C87.7188 48.0234 87.4609 48.0547 87.1797 48.0703C86.8984 48.0859 86.6797 48.1406 86.5234 48.2344C86.3359 48.2031 86.1406 48.1875 85.9375 48.1875C85.75 48.2031 85.5547 48.2266 85.3516 48.2578C85.1328 48.2891 84.9297 48.3047 84.7422 48.3047C84.5547 48.3047 84.3516 48.2812 84.1328 48.2344H84.0859C83.8203 48.3594 83.5859 48.3828 83.3828 48.3047C83.1953 48.2422 83.0234 48.1328 82.8672 47.9766C82.7109 47.8047 82.5625 47.6094 82.4219 47.3906C82.2969 47.1562 82.1641 46.9453 82.0234 46.7578C81.9297 46.6328 81.8125 46.4531 81.6719 46.2188C81.5312 45.9844 81.4141 45.7344 81.3203 45.4688C81.2109 45.2031 81.1484 44.9375 81.1328 44.6719C81.1016 44.3906 81.1562 44.1484 81.2969 43.9453C81.4375 43.7422 81.5547 43.5234 81.6484 43.2891C81.7266 43.0547 81.7656 42.7812 81.7656 42.4688C81.7656 42.3594 81.7656 42.2578 81.7656 42.1641C81.75 42.0703 81.7422 41.9688 81.7422 41.8594C81.8203 41.8594 81.9062 41.8672 82 41.8828C82.0938 41.8828 82.1797 41.8828 82.2578 41.8828C82.3516 41.8672 82.4219 41.8359 82.4688 41.7891C82.5312 41.7266 82.5625 41.625 82.5625 41.4844C82.5625 41.4062 82.5312 41.3438 82.4688 41.2969C82.4219 41.25 82.3906 41.2031 82.375 41.1562C82.4688 41.0156 82.5547 40.9062 82.6328 40.8281C82.7266 40.7344 82.8047 40.6484 82.8672 40.5703C82.9297 40.4766 82.9766 40.375 83.0078 40.2656C83.0391 40.1406 83.0312 39.9766 82.9844 39.7734C83.1719 39.4453 83.3906 39.1562 83.6406 38.9062C83.9062 38.6406 84.1797 38.3984 84.4609 38.1797C84.7422 37.9453 85.0312 37.7188 85.3281 37.5C85.625 37.2812 85.9062 37.0469 86.1719 36.7969C86.4688 36.9219 86.7031 36.9219 86.875 36.7969C87.0625 36.6719 87.2266 36.5391 87.3672 36.3984C87.5078 36.2422 87.6484 36.1172 87.7891 36.0234C87.9297 35.9297 88.1172 35.9688 88.3516 36.1406L88.3984 36.1875C88.8203 35.7656 89.2422 35.5781 89.6641 35.625C90.1016 35.6719 90.4688 35.8125 90.7656 36.0469C91.0781 36.2812 91.2812 36.5547 91.375 36.8672C91.4688 37.1641 91.3828 37.3672 91.1172 37.4766C91.2891 37.6484 91.375 37.8516 91.375 38.0859C91.375 38.3203 91.3125 38.5234 91.1875 38.6953C91.0469 38.8828 90.9219 39.0781 90.8125 39.2812C90.7188 39.4688 90.6172 39.6719 90.5078 39.8906C90.3516 40.25 90.1797 40.5938 89.9922 40.9219C89.8047 41.2344 89.5391 41.5 89.1953 41.7188C88.9141 41.6406 88.7188 41.6719 88.6094 41.8125C88.5156 41.9531 88.4453 42.1094 88.3984 42.2812C88.3516 42.4375 88.2969 42.5625 88.2344 42.6562C88.1719 42.75 88.0391 42.7188 87.8359 42.5625L87.7891 42.5156L87.7422 42.5625C87.6172 42.6875 87.5156 42.8281 87.4375 42.9844C87.375 43.1406 87.2812 43.2578 87.1562 43.3359C87.0156 43.2891 86.8672 43.25 86.7109 43.2188C86.5547 43.1875 86.4062 43.1562 86.2656 43.125C86.2656 43.4531 86.2031 43.7109 86.0781 43.8984C85.9531 44.0859 85.7891 44.2422 85.5859 44.3672C85.3984 44.4766 85.1797 44.5703 84.9297 44.6484C84.6797 44.7109 84.4297 44.7969 84.1797 44.9062C83.9453 45 83.7188 45.125 83.5 45.2812C83.2969 45.4219 83.1328 45.625 83.0078 45.8906C83.1641 46.0625 83.3594 46.1641 83.5938 46.1953C83.8281 46.2109 84.0703 46.2109 84.3203 46.1953C84.5703 46.1641 84.8125 46.1484 85.0469 46.1484C85.2969 46.1484 85.5156 46.2109 85.7031 46.3359L85.7266 46.3594L85.75 46.3359C86.125 46.2891 86.4844 46.2031 86.8281 46.0781C87.1875 45.9375 87.5312 45.7969 87.8594 45.6562C88.2031 45.5 88.5469 45.3594 88.8906 45.2344C89.25 45.0938 89.6172 44.9922 89.9922 44.9297C90.0703 45.0547 90.1719 45.125 90.2969 45.1406C90.4375 45.1562 90.5703 45.1484 90.6953 45.1172L90.7188 45.0703C90.75 44.9609 90.7812 44.8672 90.8125 44.7891C90.8438 44.6953 90.8906 44.5938 90.9531 44.4844C91.0625 44.3125 91.1953 44.1797 91.3516 44.0859C91.5078 43.9922 91.6719 43.9219 91.8438 43.875C92.0312 43.8281 92.2266 43.7969 92.4297 43.7812C92.6328 43.7656 92.8359 43.7422 93.0391 43.7109H93.0859L93.1094 43.6406C93.1719 43.4531 93.25 43.3281 93.3438 43.2656C93.4531 43.1875 93.5625 43.1328 93.6719 43.1016C93.7969 43.0703 93.9219 43.0469 94.0469 43.0312C94.1875 43.0156 94.3203 42.9688 94.4453 42.8906C94.7266 42.9844 94.9609 42.9531 95.1484 42.7969C95.3359 42.6406 95.5156 42.4766 95.6875 42.3047L95.875 42.5391L95.9453 42.4453C96.1797 42.2266 96.3516 42.0625 96.4609 41.9531C96.5859 41.8438 96.7031 41.75 96.8125 41.6719C96.9219 41.5781 97.0469 41.4922 97.1875 41.4141C97.3438 41.3203 97.5547 41.1875 97.8203 41.0156C98.0391 40.875 98.25 40.7344 98.4531 40.5938C98.6719 40.4531 98.8828 40.2969 99.0859 40.125C99.1641 40.1562 99.2031 40.2188 99.2031 40.3125C99.2031 40.3906 99.2031 40.4688 99.2031 40.5469C99.1875 40.5781 99.1719 40.625 99.1562 40.6875C99.1562 40.75 99.1719 40.7969 99.2031 40.8281ZM89.5 37.8984C89.4844 37.8828 89.4688 37.875 89.4531 37.875C89.4531 37.875 89.4453 37.8672 89.4297 37.8516C89.1016 37.6797 88.8281 37.6016 88.6094 37.6172C88.3906 37.6172 88.1875 37.6797 88 37.8047C87.8281 37.9141 87.6641 38.0625 87.5078 38.25C87.3672 38.4219 87.2109 38.5859 87.0391 38.7422C86.8828 38.8828 86.6953 38.9922 86.4766 39.0703C86.2578 39.1484 85.9922 39.1406 85.6797 39.0469C85.6328 39.2969 85.5859 39.5469 85.5391 39.7969C85.5078 40.0312 85.4844 40.2734 85.4688 40.5234C85.2031 40.6172 84.9922 40.75 84.8359 40.9219C84.6953 41.0938 84.5703 41.2812 84.4609 41.4844C84.3672 41.6875 84.2734 41.9062 84.1797 42.1406C84.1016 42.3594 83.9922 42.5703 83.8516 42.7734L83.9453 42.8906C84.0078 42.8594 84.0781 42.8828 84.1562 42.9609C84.2344 43.0391 84.2891 43.0938 84.3203 43.125C84.4922 42.875 84.7188 42.6641 85 42.4922C85.2969 42.3203 85.5938 42.1641 85.8906 42.0234C86.2031 41.8672 86.5 41.7031 86.7812 41.5312C87.0625 41.3594 87.2734 41.1328 87.4141 40.8516C87.9141 40.7109 88.2891 40.4297 88.5391 40.0078C88.7891 39.5859 89 39.1484 89.1719 38.6953C89.2031 38.6016 89.2578 38.4688 89.3359 38.2969C89.4297 38.1094 89.4844 37.9766 89.5 37.8984ZM113.453 40.8281C113.312 40.9688 113.203 41.0781 113.125 41.1562C113.062 41.2344 113 41.3125 112.938 41.3906C112.891 41.4531 112.828 41.5234 112.75 41.6016C112.688 41.6797 112.586 41.7969 112.445 41.9531C112.32 42.0781 112.203 42.2109 112.094 42.3516C111.984 42.4922 111.859 42.6172 111.719 42.7266C111.531 42.6797 111.383 42.7031 111.273 42.7969C111.18 42.8906 111.086 43 110.992 43.125C110.914 43.2344 110.836 43.3438 110.758 43.4531C110.695 43.5469 110.609 43.5859 110.5 43.5703C110.125 43.7734 109.75 43.9531 109.375 44.1094C109 44.25 108.641 44.4609 108.297 44.7422L108.109 44.5547L105.672 45.7266C105.594 45.7578 105.516 45.8047 105.438 45.8672C105.359 45.9297 105.281 45.9844 105.203 46.0312C104.859 46.2188 104.5 46.3906 104.125 46.5469C103.766 46.6875 103.406 46.8203 103.047 46.9453L102.742 47.0391C102.867 47.3516 102.867 47.5703 102.742 47.6953C102.617 47.8203 102.438 47.9141 102.203 47.9766C101.969 48.0234 101.711 48.0547 101.43 48.0703C101.148 48.0859 100.93 48.1406 100.773 48.2344C100.586 48.2031 100.391 48.1875 100.188 48.1875C100 48.2031 99.8047 48.2266 99.6016 48.2578C99.3828 48.2891 99.1797 48.3047 98.9922 48.3047C98.8047 48.3047 98.6016 48.2812 98.3828 48.2344H98.3359C98.0703 48.3594 97.8359 48.3828 97.6328 48.3047C97.4453 48.2422 97.2734 48.1328 97.1172 47.9766C96.9609 47.8047 96.8125 47.6094 96.6719 47.3906C96.5469 47.1562 96.4141 46.9453 96.2734 46.7578C96.1797 46.6328 96.0625 46.4531 95.9219 46.2188C95.7812 45.9844 95.6641 45.7344 95.5703 45.4688C95.4609 45.2031 95.3984 44.9375 95.3828 44.6719C95.3516 44.3906 95.4062 44.1484 95.5469 43.9453C95.6875 43.7422 95.8047 43.5234 95.8984 43.2891C95.9766 43.0547 96.0156 42.7812 96.0156 42.4688C96.0156 42.3594 96.0156 42.2578 96.0156 42.1641C96 42.0703 95.9922 41.9688 95.9922 41.8594C96.0703 41.8594 96.1562 41.8672 96.25 41.8828C96.3438 41.8828 96.4297 41.8828 96.5078 41.8828C96.6016 41.8672 96.6719 41.8359 96.7188 41.7891C96.7812 41.7266 96.8125 41.625 96.8125 41.4844C96.8125 41.4062 96.7812 41.3438 96.7188 41.2969C96.6719 41.25 96.6406 41.2031 96.625 41.1562C96.7188 41.0156 96.8047 40.9062 96.8828 40.8281C96.9766 40.7344 97.0547 40.6484 97.1172 40.5703C97.1797 40.4766 97.2266 40.375 97.2578 40.2656C97.2891 40.1406 97.2812 39.9766 97.2344 39.7734C97.4219 39.4453 97.6406 39.1562 97.8906 38.9062C98.1562 38.6406 98.4297 38.3984 98.7109 38.1797C98.9922 37.9453 99.2812 37.7188 99.5781 37.5C99.875 37.2812 100.156 37.0469 100.422 36.7969C100.719 36.9219 100.953 36.9219 101.125 36.7969C101.312 36.6719 101.477 36.5391 101.617 36.3984C101.758 36.2422 101.898 36.1172 102.039 36.0234C102.18 35.9297 102.367 35.9688 102.602 36.1406L102.648 36.1875C103.07 35.7656 103.492 35.5781 103.914 35.625C104.352 35.6719 104.719 35.8125 105.016 36.0469C105.328 36.2812 105.531 36.5547 105.625 36.8672C105.719 37.1641 105.633 37.3672 105.367 37.4766C105.539 37.6484 105.625 37.8516 105.625 38.0859C105.625 38.3203 105.562 38.5234 105.438 38.6953C105.297 38.8828 105.172 39.0781 105.062 39.2812C104.969 39.4688 104.867 39.6719 104.758 39.8906C104.602 40.25 104.43 40.5938 104.242 40.9219C104.055 41.2344 103.789 41.5 103.445 41.7188C103.164 41.6406 102.969 41.6719 102.859 41.8125C102.766 41.9531 102.695 42.1094 102.648 42.2812C102.602 42.4375 102.547 42.5625 102.484 42.6562C102.422 42.75 102.289 42.7188 102.086 42.5625L102.039 42.5156L101.992 42.5625C101.867 42.6875 101.766 42.8281 101.688 42.9844C101.625 43.1406 101.531 43.2578 101.406 43.3359C101.266 43.2891 101.117 43.25 100.961 43.2188C100.805 43.1875 100.656 43.1562 100.516 43.125C100.516 43.4531 100.453 43.7109 100.328 43.8984C100.203 44.0859 100.039 44.2422 99.8359 44.3672C99.6484 44.4766 99.4297 44.5703 99.1797 44.6484C98.9297 44.7109 98.6797 44.7969 98.4297 44.9062C98.1953 45 97.9688 45.125 97.75 45.2812C97.5469 45.4219 97.3828 45.625 97.2578 45.8906C97.4141 46.0625 97.6094 46.1641 97.8438 46.1953C98.0781 46.2109 98.3203 46.2109 98.5703 46.1953C98.8203 46.1641 99.0625 46.1484 99.2969 46.1484C99.5469 46.1484 99.7656 46.2109 99.9531 46.3359L99.9766 46.3594L100 46.3359C100.375 46.2891 100.734 46.2031 101.078 46.0781C101.438 45.9375 101.781 45.7969 102.109 45.6562C102.453 45.5 102.797 45.3594 103.141 45.2344C103.5 45.0938 103.867 44.9922 104.242 44.9297C104.32 45.0547 104.422 45.125 104.547 45.1406C104.688 45.1562 104.82 45.1484 104.945 45.1172L104.969 45.0703C105 44.9609 105.031 44.8672 105.062 44.7891C105.094 44.6953 105.141 44.5938 105.203 44.4844C105.312 44.3125 105.445 44.1797 105.602 44.0859C105.758 43.9922 105.922 43.9219 106.094 43.875C106.281 43.8281 106.477 43.7969 106.68 43.7812C106.883 43.7656 107.086 43.7422 107.289 43.7109H107.336L107.359 43.6406C107.422 43.4531 107.5 43.3281 107.594 43.2656C107.703 43.1875 107.812 43.1328 107.922 43.1016C108.047 43.0703 108.172 43.0469 108.297 43.0312C108.438 43.0156 108.57 42.9688 108.695 42.8906C108.977 42.9844 109.211 42.9531 109.398 42.7969C109.586 42.6406 109.766 42.4766 109.938 42.3047L110.125 42.5391L110.195 42.4453C110.43 42.2266 110.602 42.0625 110.711 41.9531C110.836 41.8438 110.953 41.75 111.062 41.6719C111.172 41.5781 111.297 41.4922 111.438 41.4141C111.594 41.3203 111.805 41.1875 112.07 41.0156C112.289 40.875 112.5 40.7344 112.703 40.5938C112.922 40.4531 113.133 40.2969 113.336 40.125C113.414 40.1562 113.453 40.2188 113.453 40.3125C113.453 40.3906 113.453 40.4688 113.453 40.5469C113.438 40.5781 113.422 40.625 113.406 40.6875C113.406 40.75 113.422 40.7969 113.453 40.8281ZM103.75 37.8984C103.734 37.8828 103.719 37.875 103.703 37.875C103.703 37.875 103.695 37.8672 103.68 37.8516C103.352 37.6797 103.078 37.6016 102.859 37.6172C102.641 37.6172 102.438 37.6797 102.25 37.8047C102.078 37.9141 101.914 38.0625 101.758 38.25C101.617 38.4219 101.461 38.5859 101.289 38.7422C101.133 38.8828 100.945 38.9922 100.727 39.0703C100.508 39.1484 100.242 39.1406 99.9297 39.0469C99.8828 39.2969 99.8359 39.5469 99.7891 39.7969C99.7578 40.0312 99.7344 40.2734 99.7188 40.5234C99.4531 40.6172 99.2422 40.75 99.0859 40.9219C98.9453 41.0938 98.8203 41.2812 98.7109 41.4844C98.6172 41.6875 98.5234 41.9062 98.4297 42.1406C98.3516 42.3594 98.2422 42.5703 98.1016 42.7734L98.1953 42.8906C98.2578 42.8594 98.3281 42.8828 98.4062 42.9609C98.4844 43.0391 98.5391 43.0938 98.5703 43.125C98.7422 42.875 98.9688 42.6641 99.25 42.4922C99.5469 42.3203 99.8438 42.1641 100.141 42.0234C100.453 41.8672 100.75 41.7031 101.031 41.5312C101.312 41.3594 101.523 41.1328 101.664 40.8516C102.164 40.7109 102.539 40.4297 102.789 40.0078C103.039 39.5859 103.25 39.1484 103.422 38.6953C103.453 38.6016 103.508 38.4688 103.586 38.2969C103.68 38.1094 103.734 37.9766 103.75 37.8984ZM147.766 40.8516C147.781 41.0391 147.734 41.2266 147.625 41.4141C147.516 41.6016 147.414 41.7656 147.32 41.9062C147.273 41.9531 147.18 42.0234 147.039 42.1172C146.914 42.1953 146.773 42.2734 146.617 42.3516C146.477 42.4297 146.336 42.5156 146.195 42.6094C146.07 42.6875 145.992 42.75 145.961 42.7969C145.883 42.9219 145.789 43.0859 145.68 43.2891C145.586 43.4922 145.5 43.6562 145.422 43.7812C145.203 44.0625 144.984 44.2812 144.766 44.4375C144.562 44.5938 144.344 44.7344 144.109 44.8594C143.891 44.9688 143.656 45.0781 143.406 45.1875C143.156 45.2969 142.883 45.4531 142.586 45.6562L142.398 46.2422C142.07 46.2109 141.836 46.2266 141.695 46.2891C141.57 46.3359 141.477 46.4141 141.414 46.5234C141.367 46.6328 141.32 46.7578 141.273 46.8984C141.242 47.0391 141.164 47.1797 141.039 47.3203C140.977 47.3984 140.867 47.4766 140.711 47.5547C140.57 47.6328 140.461 47.6797 140.383 47.6953C140.258 47.6953 140.148 47.6875 140.055 47.6719C139.977 47.6562 139.906 47.6484 139.844 47.6484C139.797 47.6484 139.758 47.6719 139.727 47.7188C139.695 47.75 139.68 47.8281 139.68 47.9531H139.633C139.461 47.9531 139.305 47.9922 139.164 48.0703C139.023 48.1641 138.883 48.25 138.742 48.3281C138.602 48.4062 138.461 48.4531 138.32 48.4688C138.18 48.5 138.023 48.4609 137.852 48.3516H137.828C137.828 47.9766 137.758 47.7031 137.617 47.5312C137.492 47.3438 137.344 47.1797 137.172 47.0391C137 46.8828 136.836 46.7109 136.68 46.5234C136.539 46.3359 136.453 46.0547 136.422 45.6797C136.391 45.3203 136.43 44.9531 136.539 44.5781C136.664 44.2031 136.727 43.8359 136.727 43.4766C136.727 43.2578 136.688 43.0703 136.609 42.9141C136.531 42.7578 136.492 42.5938 136.492 42.4219C136.492 42.2656 136.531 42.1328 136.609 42.0234C136.703 41.9141 136.789 41.8125 136.867 41.7188C136.961 41.625 137.016 41.5156 137.031 41.3906C137.062 41.2656 137.016 41.1094 136.891 40.9219V40.8984C136.891 40.7578 136.922 40.5859 136.984 40.3828C137.047 40.1641 137.094 39.9844 137.125 39.8438C137.219 39.4531 137.305 39.0703 137.383 38.6953C137.477 38.3047 137.555 37.9219 137.617 37.5469C137.711 36.9688 137.805 36.4062 137.898 35.8594C137.992 35.2969 138.133 34.7422 138.32 34.1953L138.344 34.1719L138.18 33.9375H138.25C138.469 33.875 138.609 33.7422 138.672 33.5391C138.75 33.3359 138.797 33.1172 138.812 32.8828C138.828 32.6484 138.836 32.4297 138.836 32.2266C138.852 32.0078 138.922 31.8516 139.047 31.7578C138.969 31.6797 138.891 31.6016 138.812 31.5234C138.75 31.4297 138.68 31.3438 138.602 31.2656C138.586 31.2812 138.578 31.3047 138.578 31.3359C138.438 31.7891 138.219 32.1797 137.922 32.5078C137.641 32.8203 137.344 33.1328 137.031 33.4453C136.734 33.7422 136.461 34.0703 136.211 34.4297C135.961 34.7734 135.797 35.2109 135.719 35.7422C135.453 36.1953 135.211 36.6641 134.992 37.1484C134.789 37.6328 134.57 38.1172 134.336 38.6016C134.102 39.0859 133.844 39.5547 133.562 40.0078C133.297 40.4453 132.977 40.8438 132.602 41.2031C132.602 41.2344 132.602 41.2734 132.602 41.3203C132.617 41.3672 132.625 41.4062 132.625 41.4375C132.625 41.5781 132.594 41.6953 132.531 41.7891C132.469 41.8828 132.398 41.9766 132.32 42.0703C132.242 42.1484 132.156 42.2344 132.062 42.3281C131.969 42.4062 131.891 42.4922 131.828 42.5859C131.828 42.8359 131.766 43.0703 131.641 43.2891C131.516 43.4922 131.375 43.6875 131.219 43.875C131.078 44.0625 130.945 44.25 130.82 44.4375C130.695 44.625 130.633 44.8125 130.633 45C130.633 45.3906 130.562 45.6875 130.422 45.8906C130.281 46.0781 130.109 46.2344 129.906 46.3594C129.719 46.4688 129.516 46.5859 129.297 46.7109C129.094 46.8203 128.922 46.9844 128.781 47.2031V47.2266C128.734 47.2109 128.68 47.2188 128.617 47.25C128.555 47.2812 128.484 47.2734 128.406 47.2266C128.328 47.1953 128.273 47.1172 128.242 46.9922C128.227 46.8516 128.211 46.7031 128.195 46.5469C128.18 46.3906 128.164 46.25 128.148 46.125C128.133 46 128.102 45.9219 128.055 45.8906C128.117 45.8438 128.203 45.6875 128.312 45.4219C128.422 45.1562 128.523 44.8594 128.617 44.5312C128.727 44.2031 128.82 43.8906 128.898 43.5938C128.992 43.2969 129.055 43.1016 129.086 43.0078C129.148 42.8047 129.203 42.6016 129.25 42.3984C129.312 42.1953 129.383 41.9922 129.461 41.7891C129.492 41.7109 129.523 41.625 129.555 41.5312C129.602 41.4219 129.633 41.3281 129.648 41.25C129.664 41.125 129.672 40.9922 129.672 40.8516C129.688 40.7109 129.703 40.5703 129.719 40.4297L129.766 40.4062C129.891 40.4062 129.977 40.3516 130.023 40.2422C130.086 40.1172 130.125 39.9844 130.141 39.8438C130.156 39.6875 130.156 39.5312 130.141 39.375C130.141 39.2188 130.148 39.1016 130.164 39.0234C130.289 38.2734 130.453 37.5 130.656 36.7031C130.859 35.8906 130.961 35.1094 130.961 34.3594V34.0078C130.977 33.7578 131 33.5 131.031 33.2344C131.062 32.9688 131.07 32.7031 131.055 32.4375C131.055 32.1562 131.016 31.8906 130.938 31.6406C130.875 31.3906 130.766 31.1562 130.609 30.9375V30.9141C130.109 30.9141 129.648 31.0703 129.227 31.3828C128.805 31.6797 128.414 32.0547 128.055 32.5078C127.711 32.9453 127.406 33.4141 127.141 33.9141C126.875 34.3984 126.656 34.8281 126.484 35.2031L126.438 35.25L126.297 35.0391L126.273 35.0625C126.008 35.25 125.82 35.4531 125.711 35.6719C125.617 35.875 125.523 36.125 125.43 36.4219C125.336 36.7344 125.219 37.0312 125.078 37.3125C124.953 37.5938 124.734 37.7969 124.422 37.9219L124.398 37.9453C124.398 38.3047 124.344 38.5781 124.234 38.7656C124.125 38.9375 124 39.0938 123.859 39.2344C123.734 39.375 123.617 39.5391 123.508 39.7266C123.398 39.8984 123.344 40.1719 123.344 40.5469L123.32 40.5703C123.008 40.8047 122.789 41.0547 122.664 41.3203C122.539 41.5859 122.414 41.8906 122.289 42.2344C122.18 42.5 122.078 42.7578 121.984 43.0078C121.891 43.2422 121.75 43.4609 121.562 43.6641L121.586 43.7109C121.68 43.7578 121.711 43.8516 121.68 43.9922C121.664 44.1172 121.664 44.2188 121.68 44.2969C121.523 44.5625 121.367 44.8125 121.211 45.0469C121.055 45.2656 120.914 45.4922 120.789 45.7266C120.68 45.9453 120.586 46.1797 120.508 46.4297C120.43 46.6797 120.391 46.9688 120.391 47.2969V47.3203H120.344C120.078 47.3516 119.891 47.4531 119.781 47.625C119.672 47.7812 119.586 47.9688 119.523 48.1875C119.477 48.4062 119.445 48.625 119.43 48.8438C119.414 49.0625 119.367 49.2344 119.289 49.3594C119.227 49.4844 119.117 49.5391 118.961 49.5234C118.805 49.5234 118.57 49.3984 118.258 49.1484L117.625 48.6797C117.797 48.3047 117.961 47.9297 118.117 47.5547C118.258 47.1641 118.383 46.7656 118.492 46.3594C118.602 45.9531 118.719 45.5547 118.844 45.1641C118.969 44.7734 119.156 44.3984 119.406 44.0391V44.0156C119.406 43.9531 119.422 43.8516 119.453 43.7109C119.5 43.5547 119.547 43.3906 119.594 43.2188C119.641 43.0469 119.688 42.8906 119.734 42.75C119.797 42.5938 119.844 42.4766 119.875 42.3984C120 42.1328 120.109 41.875 120.203 41.625C120.312 41.375 120.367 41.0938 120.367 40.7812C120.508 40.5625 120.617 40.3281 120.695 40.0781C120.773 39.8125 120.844 39.5469 120.906 39.2812C120.984 39.0156 121.07 38.7578 121.164 38.5078C121.273 38.2578 121.422 38.0312 121.609 37.8281C121.609 37.8125 121.633 37.7109 121.68 37.5234C121.742 37.3359 121.805 37.1328 121.867 36.9141C121.93 36.6953 121.984 36.4844 122.031 36.2812C122.094 36.0781 122.133 35.9531 122.148 35.9062C122.32 35.3438 122.461 34.8125 122.57 34.3125C122.695 33.7969 122.758 33.2422 122.758 32.6484C122.758 32.5234 122.75 32.3984 122.734 32.2734C122.719 32.1328 122.719 32 122.734 31.875C123 31.4688 123.227 31.0234 123.414 30.5391C123.602 30.0547 123.734 29.5781 123.812 29.1094V29.0859C123.766 28.9922 123.695 28.8672 123.602 28.7109C123.508 28.5547 123.422 28.4531 123.344 28.4062C123.172 28.3281 122.992 28.3281 122.805 28.4062C122.617 28.4688 122.422 28.5312 122.219 28.5938C122.016 28.6562 121.82 28.6719 121.633 28.6406C121.445 28.6094 121.273 28.4531 121.117 28.1719V28.125C120.914 28.2031 120.734 28.2969 120.578 28.4062C120.438 28.5 120.234 28.5 119.969 28.4062L119.945 28.3828C119.945 28.2109 119.898 28.0625 119.805 27.9375C119.711 27.7969 119.625 27.6562 119.547 27.5156C119.469 27.6094 119.375 27.6562 119.266 27.6562C119.156 27.6562 119.039 27.6406 118.914 27.6094C118.789 27.5781 118.672 27.5391 118.562 27.4922C118.438 27.4297 118.336 27.3828 118.258 27.3516L118.211 27.3281C118.164 27.125 118.078 26.9766 117.953 26.8828C117.828 26.7734 117.695 26.6797 117.555 26.6016C117.414 26.5234 117.297 26.4375 117.203 26.3438C117.094 26.2344 117.039 26.0781 117.039 25.875C117.039 25.6406 117.102 25.4375 117.227 25.2656C117.336 25.0781 117.477 24.9453 117.648 24.8672C117.82 24.7891 118.008 24.7656 118.211 24.7969C118.414 24.8281 118.602 24.9297 118.773 25.1016V25.125C118.852 25.2031 118.969 25.2969 119.125 25.4062C119.281 25.5156 119.438 25.6328 119.594 25.7578C119.766 25.8672 119.93 25.9609 120.086 26.0391C120.258 26.1172 120.398 26.1562 120.508 26.1562C120.57 26.1094 120.625 26.1016 120.672 26.1328C120.734 26.1484 120.781 26.1797 120.812 26.2266C120.859 26.2734 120.906 26.3281 120.953 26.3906C121 26.4375 121.047 26.4609 121.094 26.4609C121.203 26.4297 121.273 26.3594 121.305 26.25L121.328 26.2734C121.469 26.3203 121.617 26.3047 121.773 26.2266C121.945 26.1328 122.117 26.0469 122.289 25.9688C122.477 25.875 122.664 25.8281 122.852 25.8281C123.055 25.8125 123.25 25.9062 123.438 26.1094C123.469 26.0625 123.531 26.0234 123.625 25.9922C123.719 25.9609 123.797 25.9453 123.859 25.9453C124.062 25.9453 124.242 26.0391 124.398 26.2266C124.758 26.6797 124.977 27.1875 125.055 27.75C125.133 28.3125 125.172 28.8672 125.172 29.4141V30.0938V30.1172C125.047 30.3516 124.938 30.5859 124.844 30.8203C124.766 31.0547 124.727 31.3047 124.727 31.5703C124.727 31.6172 124.727 31.6797 124.727 31.7578C124.742 31.8359 124.758 31.9219 124.773 32.0156C124.789 32.0938 124.797 32.1719 124.797 32.25C124.812 32.3125 124.82 32.3516 124.82 32.3672C124.773 32.6484 124.703 32.9297 124.609 33.2109C124.516 33.4922 124.422 33.7656 124.328 34.0312C124.156 34.5156 124.008 35.0078 123.883 35.5078C123.758 35.9922 123.68 36.4922 123.648 37.0078C123.961 36.5391 124.117 36 124.117 35.3906L124.141 35.3672C124.531 35.0547 124.852 34.7188 125.102 34.3594C125.352 33.9844 125.594 33.5859 125.828 33.1641C126.094 32.6953 126.383 32.2344 126.695 31.7812C127.023 31.3281 127.453 31 127.984 30.7969C128.156 30.625 128.312 30.4531 128.453 30.2812C128.609 30.1094 128.797 29.9844 129.016 29.9062L129.039 29.8828L129.18 30.1172C129.242 30.0703 129.289 30.0234 129.32 29.9766C129.367 29.9297 129.414 29.8828 129.461 29.8359C129.617 29.6797 129.711 29.5781 129.742 29.5312C129.773 29.4688 129.789 29.3281 129.789 29.1094C130.023 28.9219 130.234 28.8203 130.422 28.8047C130.625 28.7891 130.805 28.8281 130.961 28.9219C131.133 29 131.305 29.1094 131.477 29.25C131.648 29.3906 131.828 29.5156 132.016 29.625V29.6484C132.141 30.4453 132.25 31.2344 132.344 32.0156C132.453 32.7969 132.508 33.5938 132.508 34.4062C132.508 34.8281 132.492 35.2109 132.461 35.5547C132.445 35.8828 132.406 36.2109 132.344 36.5391C132.297 36.8516 132.227 37.1719 132.133 37.5C132.055 37.8281 131.961 38.1875 131.852 38.5781V38.6016C132.07 38.8359 132.266 38.9141 132.438 38.8359C132.625 38.7578 132.797 38.6172 132.953 38.4141C133.109 38.1953 133.25 37.9688 133.375 37.7344C133.516 37.4844 133.648 37.2969 133.773 37.1719H133.797C133.781 37.0156 133.828 36.8281 133.938 36.6094C134.047 36.375 134.172 36.1406 134.312 35.9062C134.453 35.6719 134.578 35.4531 134.688 35.25C134.797 35.0312 134.844 34.875 134.828 34.7812C135.141 34.3281 135.422 33.8828 135.672 33.4453C135.938 32.9922 136.18 32.5234 136.398 32.0391C136.477 32.1016 136.539 32.1016 136.586 32.0391C136.633 31.9766 136.68 31.9219 136.727 31.875H136.75C136.812 31.5 136.938 31.1953 137.125 30.9609C137.328 30.7109 137.547 30.4922 137.781 30.3047C138.031 30.1016 138.289 29.9062 138.555 29.7188C138.82 29.5312 139.062 29.3125 139.281 29.0625C139.625 29.0625 139.93 29.1328 140.195 29.2734C140.477 29.3984 140.633 29.6641 140.664 30.0703C140.586 30.3203 140.539 30.5781 140.523 30.8438C140.523 31.0938 140.516 31.3516 140.5 31.6172C140.5 31.8828 140.484 32.1484 140.453 32.4141C140.422 32.6641 140.352 32.9062 140.242 33.1406C140.242 33.1719 140.219 33.2734 140.172 33.4453C140.125 33.6172 140.07 33.8125 140.008 34.0312C139.961 34.2344 139.906 34.4297 139.844 34.6172C139.781 34.8047 139.742 34.9219 139.727 34.9688C139.508 35.6406 139.336 36.2812 139.211 36.8906C139.086 37.4844 139.023 38.1484 139.023 38.8828C138.961 38.9453 138.898 39.0078 138.836 39.0703C138.789 39.1328 138.734 39.1875 138.672 39.2344L138.695 39.2578C138.758 39.4141 138.789 39.5547 138.789 39.6797C138.789 39.8516 138.742 40.0391 138.648 40.2422C138.57 40.4453 138.492 40.6484 138.414 40.8516C138.352 41.0391 138.32 41.2344 138.32 41.4375C138.32 41.625 138.414 41.7969 138.602 41.9531C138.602 42.2031 138.562 42.4766 138.484 42.7734C138.406 43.0547 138.336 43.3438 138.273 43.6406C138.227 43.9219 138.203 44.2031 138.203 44.4844C138.203 44.7656 138.281 45.0234 138.438 45.2578L138.461 45.2812C138.711 45.2812 138.898 45.2578 139.023 45.2109C139.148 45.1641 139.25 45.1328 139.328 45.1172C139.422 45.1016 139.523 45.1172 139.633 45.1641C139.742 45.1953 139.914 45.2969 140.148 45.4688L141.484 44.5547C141.672 44.4141 141.836 44.2656 141.977 44.1094C142.133 43.9531 142.289 43.8125 142.445 43.6875C142.602 43.5625 142.773 43.4688 142.961 43.4062C143.148 43.3438 143.375 43.3359 143.641 43.3828L143.664 43.3359C143.883 43.0234 144.156 42.7578 144.484 42.5391C144.828 42.3203 145.188 42.125 145.562 41.9531C145.938 41.7656 146.32 41.5938 146.711 41.4375C147.102 41.2656 147.453 41.0703 147.766 40.8516ZM160.422 40.6406C160.484 40.875 160.461 41.0781 160.352 41.25C160.242 41.4062 160.094 41.5469 159.906 41.6719C159.734 41.7969 159.539 41.9141 159.32 42.0234C159.117 42.1172 158.945 42.2266 158.805 42.3516C158.102 42.5078 157.461 42.625 156.883 42.7031C156.32 42.7656 155.695 42.8516 155.008 42.9609C154.805 42.9922 154.609 42.9922 154.422 42.9609C154.25 42.9141 154.07 42.8984 153.883 42.9141C153.773 42.9141 153.672 42.9141 153.578 42.9141C153.484 42.8984 153.391 42.8984 153.297 42.9141C152.938 42.9453 152.703 43.0703 152.594 43.2891C152.484 43.4922 152.391 43.7344 152.312 44.0156C152.25 44.2812 152.164 44.5391 152.055 44.7891C151.961 45.0234 151.75 45.1875 151.422 45.2812C151.391 45.3594 151.398 45.4297 151.445 45.4922C151.508 45.5547 151.555 45.6094 151.586 45.6562C151.32 45.7344 151.141 45.875 151.047 46.0781C150.969 46.2812 150.898 46.4844 150.836 46.6875C150.773 46.8906 150.68 47.0625 150.555 47.2031C150.445 47.3438 150.227 47.3906 149.898 47.3438C149.414 47.8594 148.844 48.2734 148.188 48.5859C147.531 48.9141 146.852 49.125 146.148 49.2188C146.023 49.1562 145.898 49.0781 145.773 48.9844C145.664 48.8906 145.547 48.8047 145.422 48.7266C145.312 48.6484 145.188 48.5859 145.047 48.5391C144.922 48.5078 144.773 48.5078 144.602 48.5391C144.586 48.2109 144.523 47.9062 144.414 47.625C144.289 47.3438 144.133 47.0781 143.945 46.8281C143.914 46.5469 143.953 46.2891 144.062 46.0547C144.156 45.8047 144.258 45.5625 144.367 45.3281C144.477 45.0938 144.57 44.8594 144.648 44.625C144.711 44.375 144.695 44.0938 144.602 43.7812C144.758 43.6875 144.859 43.5781 144.906 43.4531C144.969 43.3281 145.008 43.2031 145.023 43.0781C145.055 42.9375 145.094 42.8125 145.141 42.7031C145.188 42.5781 145.297 42.4766 145.469 42.3984C145.344 42.0234 145.359 41.75 145.516 41.5781C145.688 41.3906 145.891 41.2266 146.125 41.0859C146.359 40.9453 146.578 40.7891 146.781 40.6172C146.984 40.4453 147.062 40.1875 147.016 39.8438C147.109 39.75 147.219 39.6719 147.344 39.6094C147.469 39.5469 147.586 39.4922 147.695 39.4453C147.82 39.3828 147.938 39.3203 148.047 39.2578C148.156 39.1953 148.258 39.1094 148.352 39C148.242 38.9219 148.188 38.8438 148.188 38.7656C148.203 38.6875 148.227 38.6094 148.258 38.5312C148.289 38.4375 148.32 38.3438 148.352 38.25C148.398 38.1562 148.398 38.0625 148.352 37.9688C148.773 38.0312 149.141 37.9766 149.453 37.8047C149.781 37.6172 150.086 37.4297 150.367 37.2422C150.664 37.0547 150.961 36.9219 151.258 36.8438C151.555 36.7656 151.898 36.8594 152.289 37.125C152.32 37.2344 152.367 37.3984 152.43 37.6172C152.508 37.8203 152.578 38.0312 152.641 38.25C152.719 38.4688 152.789 38.6797 152.852 38.8828C152.914 39.0859 152.953 39.2344 152.969 39.3281C152.969 39.4062 152.969 39.5312 152.969 39.7031C152.969 39.875 152.969 40.0625 152.969 40.2656C152.969 40.4531 152.969 40.6328 152.969 40.8047C152.969 40.9766 152.969 41.1094 152.969 41.2031C153.422 41.4688 153.875 41.6328 154.328 41.6953C154.781 41.7422 155.234 41.6328 155.688 41.3672C155.859 41.5234 156.023 41.5703 156.18 41.5078C156.336 41.4297 156.484 41.3438 156.625 41.25C156.781 41.1562 156.938 41.1094 157.094 41.1094C157.25 41.0938 157.406 41.2188 157.562 41.4844C157.781 41.2812 158.008 41.1562 158.242 41.1094C158.477 41.0469 158.719 41.0156 158.969 41.0156C159.219 41 159.461 40.9766 159.695 40.9453C159.945 40.9141 160.188 40.8125 160.422 40.6406ZM151.422 41.0391C151.422 40.8047 151.461 40.5547 151.539 40.2891C151.617 40.0234 151.68 39.7656 151.727 39.5156C151.773 39.25 151.766 39 151.703 38.7656C151.656 38.5312 151.508 38.3203 151.258 38.1328C151.086 38.2266 150.945 38.3594 150.836 38.5312C150.727 38.6875 150.617 38.8516 150.508 39.0234C150.398 39.1797 150.266 39.3125 150.109 39.4219C149.969 39.5312 149.781 39.5625 149.547 39.5156C149.469 39.7031 149.469 39.8594 149.547 39.9844C149.625 40.0938 149.719 40.2031 149.828 40.3125C149.938 40.4062 150.039 40.5078 150.133 40.6172C150.242 40.7266 150.281 40.8672 150.25 41.0391C150.312 41.0859 150.398 41.1328 150.508 41.1797C150.617 41.2109 150.727 41.2344 150.836 41.25C150.961 41.25 151.078 41.2344 151.188 41.2031C151.297 41.1719 151.375 41.1172 151.422 41.0391ZM151.258 42.9141C150.945 42.9141 150.672 42.8438 150.438 42.7031C150.219 42.5469 149.992 42.375 149.758 42.1875C149.539 42 149.305 41.8281 149.055 41.6719C148.82 41.5 148.531 41.3984 148.188 41.3672C148.047 41.5547 147.883 41.7344 147.695 41.9062C147.508 42.0625 147.344 42.2344 147.203 42.4219C147.062 42.6094 146.961 42.8125 146.898 43.0312C146.852 43.25 146.891 43.5 147.016 43.7812C146.656 43.9531 146.414 44.2031 146.289 44.5312C146.164 44.8438 146.078 45.1875 146.031 45.5625C146 45.9375 145.969 46.3125 145.938 46.6875C145.906 47.0625 145.805 47.3984 145.633 47.6953L146.148 47.3438C146.211 47.375 146.258 47.4219 146.289 47.4844C146.336 47.5469 146.344 47.6172 146.312 47.6953C146.438 47.5703 146.578 47.4766 146.734 47.4141C146.891 47.3359 147.047 47.2812 147.203 47.25C147.375 47.2031 147.539 47.1641 147.695 47.1328C147.867 47.1016 148.031 47.0547 148.188 46.9922C148.578 47.2109 148.859 47.2578 149.031 47.1328C149.203 47.0078 149.344 46.8203 149.453 46.5703C149.562 46.3203 149.68 46.0625 149.805 45.7969C149.93 45.5156 150.133 45.3438 150.414 45.2812L150.25 45.1172C150.516 44.7891 150.75 44.4531 150.953 44.1094C151.172 43.75 151.273 43.3516 151.258 42.9141ZM174.25 43.3594C173.891 43.5312 173.648 43.7422 173.523 43.9922C173.398 44.2422 173.297 44.5 173.219 44.7656C173.156 45.0312 173.07 45.2891 172.961 45.5391C172.867 45.7734 172.656 45.9688 172.328 46.125C172.25 46.4062 172.094 46.6016 171.859 46.7109C171.641 46.8203 171.406 46.9219 171.156 47.0156C170.906 47.0938 170.68 47.2031 170.477 47.3438C170.289 47.4844 170.195 47.7266 170.195 48.0703C169.883 48.2422 169.539 48.3984 169.164 48.5391C168.805 48.6797 168.422 48.7812 168.016 48.8438C167.625 48.9219 167.234 48.9531 166.844 48.9375C166.453 48.9219 166.086 48.8438 165.742 48.7031C165.508 48.5938 165.281 48.4531 165.062 48.2812C164.984 48.2188 164.906 48.1641 164.828 48.1172C164.766 48.0859 164.695 48.0312 164.617 47.9531C164.43 47.7656 164.273 47.5469 164.148 47.2969C164.023 47.0469 163.922 46.7812 163.844 46.5C163.766 46.2188 163.703 45.9375 163.656 45.6562C163.609 45.375 163.57 45.1094 163.539 44.8594L164.406 42.5156C163.953 42.1562 163.586 41.7422 163.305 41.2734C163.023 40.7891 162.68 40.3438 162.273 39.9375C162.195 40.0469 162.094 40.1406 161.969 40.2188C161.844 40.2969 161.797 40.4219 161.828 40.5938L162.062 40.8047C161.547 41.3672 161.023 42.0078 160.492 42.7266C159.977 43.4297 159.57 44.1406 159.273 44.8594C158.93 44.8438 158.688 44.9297 158.547 45.1172C158.406 45.2891 158.289 45.4922 158.195 45.7266C158.102 45.9453 157.984 46.1484 157.844 46.3359C157.703 46.5234 157.469 46.6016 157.141 46.5703C157.062 46.7422 156.984 46.9297 156.906 47.1328C156.828 47.3203 156.734 47.5 156.625 47.6719C156.516 47.8438 156.383 47.9844 156.227 48.0938C156.07 48.2188 155.875 48.2812 155.641 48.2812C155.516 48.1562 155.445 48.0234 155.43 47.8828C155.414 47.7422 155.43 47.6016 155.477 47.4609C155.523 47.3047 155.586 47.1562 155.664 47.0156C155.742 46.8594 155.797 46.7109 155.828 46.5703C155.953 46.1172 156.18 45.7109 156.508 45.3516C156.836 44.9766 157.164 44.6094 157.492 44.25C157.82 43.875 158.102 43.4844 158.336 43.0781C158.57 42.6719 158.664 42.1953 158.617 41.6484C158.82 41.6328 159.023 41.5938 159.227 41.5312C159.445 41.4531 159.641 41.3594 159.812 41.25C160 41.125 160.141 40.9766 160.234 40.8047C160.344 40.6172 160.383 40.3984 160.352 40.1484C160.227 40.0859 160.156 40 160.141 39.8906C160.125 39.7656 160.125 39.6406 160.141 39.5156C160.484 39.4062 160.758 39.2188 160.961 38.9531C161.18 38.6719 161.375 38.375 161.547 38.0625C161.719 37.75 161.883 37.4375 162.039 37.125C162.211 36.7969 162.43 36.5156 162.695 36.2812C162.914 36.4062 163.133 36.5156 163.352 36.6094C163.57 36.6875 163.781 36.7969 163.984 36.9375C163.844 37.125 163.758 37.3047 163.727 37.4766C163.695 37.6484 163.68 37.8281 163.68 38.0156C163.68 38.1875 163.68 38.3594 163.68 38.5312C163.68 38.7031 163.633 38.8828 163.539 39.0703C163.789 39.2891 164 39.5469 164.172 39.8438C164.344 40.1406 164.562 40.3906 164.828 40.5938C165.016 40.4531 165.227 40.3828 165.461 40.3828C165.695 40.3672 165.93 40.3672 166.164 40.3828C166.414 40.3828 166.648 40.3672 166.867 40.3359C167.086 40.2891 167.266 40.1562 167.406 39.9375C167.469 40 167.562 40.0312 167.688 40.0312C167.812 40.0312 167.938 40.0312 168.062 40.0312C168.188 40.0312 168.297 40.0547 168.391 40.1016C168.484 40.1328 168.539 40.2031 168.555 40.3125C168.57 40.4375 168.562 40.5234 168.531 40.5703C168.516 40.6172 168.492 40.6953 168.461 40.8047C168.43 40.9297 168.422 40.9922 168.438 40.9922C168.453 40.9922 168.438 41.0469 168.391 41.1562C168.312 41.3594 168.18 41.5312 167.992 41.6719C167.82 41.8125 167.641 41.9531 167.453 42.0938C167.281 42.2188 167.117 42.3672 166.961 42.5391C166.82 42.6953 166.75 42.8984 166.75 43.1484C166.406 43.2734 166.164 43.4609 166.023 43.7109C165.883 43.9453 165.789 44.2188 165.742 44.5312C165.695 44.8281 165.664 45.1406 165.648 45.4688C165.633 45.7812 165.578 46.0703 165.484 46.3359L165.695 46.5703L165.883 46.3359C166.102 46.6484 166.359 46.8438 166.656 46.9219C166.969 47 167.289 47.0234 167.617 46.9922C167.773 46.7578 167.953 46.5703 168.156 46.4297C168.375 46.2891 168.602 46.1719 168.836 46.0781C169.086 45.9844 169.336 45.8984 169.586 45.8203C169.852 45.7422 170.102 45.6484 170.336 45.5391C170.523 45.4453 170.68 45.3438 170.805 45.2344C170.945 45.125 171.094 45 171.25 44.8594C171.719 44.4219 172.18 43.9922 172.633 43.5703C173.102 43.1484 173.57 42.7188 174.039 42.2812C174.133 42.2812 174.195 42.3281 174.227 42.4219C174.258 42.5156 174.273 42.625 174.273 42.75C174.273 42.8594 174.266 42.9766 174.25 43.1016C174.25 43.2109 174.25 43.2969 174.25 43.3594ZM190.445 40.8281C190.305 40.9688 190.195 41.0781 190.117 41.1562C190.055 41.2344 189.992 41.3125 189.93 41.3906C189.883 41.4531 189.82 41.5234 189.742 41.6016C189.68 41.6797 189.578 41.7969 189.438 41.9531C189.312 42.0781 189.195 42.2109 189.086 42.3516C188.977 42.4922 188.852 42.6172 188.711 42.7266C188.523 42.6797 188.375 42.7031 188.266 42.7969C188.172 42.8906 188.078 43 187.984 43.125C187.906 43.2344 187.828 43.3438 187.75 43.4531C187.688 43.5469 187.602 43.5859 187.492 43.5703C187.117 43.7734 186.742 43.9531 186.367 44.1094C185.992 44.25 185.633 44.4609 185.289 44.7422L185.102 44.5547L182.664 45.7266C182.586 45.7578 182.508 45.8047 182.43 45.8672C182.352 45.9297 182.273 45.9844 182.195 46.0312C181.852 46.2188 181.492 46.3906 181.117 46.5469C180.758 46.6875 180.398 46.8203 180.039 46.9453L179.734 47.0391C179.859 47.3516 179.859 47.5703 179.734 47.6953C179.609 47.8203 179.43 47.9141 179.195 47.9766C178.961 48.0234 178.703 48.0547 178.422 48.0703C178.141 48.0859 177.922 48.1406 177.766 48.2344C177.578 48.2031 177.383 48.1875 177.18 48.1875C176.992 48.2031 176.797 48.2266 176.594 48.2578C176.375 48.2891 176.172 48.3047 175.984 48.3047C175.797 48.3047 175.594 48.2812 175.375 48.2344H175.328C175.062 48.3594 174.828 48.3828 174.625 48.3047C174.438 48.2422 174.266 48.1328 174.109 47.9766C173.953 47.8047 173.805 47.6094 173.664 47.3906C173.539 47.1562 173.406 46.9453 173.266 46.7578C173.172 46.6328 173.055 46.4531 172.914 46.2188C172.773 45.9844 172.656 45.7344 172.562 45.4688C172.453 45.2031 172.391 44.9375 172.375 44.6719C172.344 44.3906 172.398 44.1484 172.539 43.9453C172.68 43.7422 172.797 43.5234 172.891 43.2891C172.969 43.0547 173.008 42.7812 173.008 42.4688C173.008 42.3594 173.008 42.2578 173.008 42.1641C172.992 42.0703 172.984 41.9688 172.984 41.8594C173.062 41.8594 173.148 41.8672 173.242 41.8828C173.336 41.8828 173.422 41.8828 173.5 41.8828C173.594 41.8672 173.664 41.8359 173.711 41.7891C173.773 41.7266 173.805 41.625 173.805 41.4844C173.805 41.4062 173.773 41.3438 173.711 41.2969C173.664 41.25 173.633 41.2031 173.617 41.1562C173.711 41.0156 173.797 40.9062 173.875 40.8281C173.969 40.7344 174.047 40.6484 174.109 40.5703C174.172 40.4766 174.219 40.375 174.25 40.2656C174.281 40.1406 174.273 39.9766 174.227 39.7734C174.414 39.4453 174.633 39.1562 174.883 38.9062C175.148 38.6406 175.422 38.3984 175.703 38.1797C175.984 37.9453 176.273 37.7188 176.57 37.5C176.867 37.2812 177.148 37.0469 177.414 36.7969C177.711 36.9219 177.945 36.9219 178.117 36.7969C178.305 36.6719 178.469 36.5391 178.609 36.3984C178.75 36.2422 178.891 36.1172 179.031 36.0234C179.172 35.9297 179.359 35.9688 179.594 36.1406L179.641 36.1875C180.062 35.7656 180.484 35.5781 180.906 35.625C181.344 35.6719 181.711 35.8125 182.008 36.0469C182.32 36.2812 182.523 36.5547 182.617 36.8672C182.711 37.1641 182.625 37.3672 182.359 37.4766C182.531 37.6484 182.617 37.8516 182.617 38.0859C182.617 38.3203 182.555 38.5234 182.43 38.6953C182.289 38.8828 182.164 39.0781 182.055 39.2812C181.961 39.4688 181.859 39.6719 181.75 39.8906C181.594 40.25 181.422 40.5938 181.234 40.9219C181.047 41.2344 180.781 41.5 180.438 41.7188C180.156 41.6406 179.961 41.6719 179.852 41.8125C179.758 41.9531 179.688 42.1094 179.641 42.2812C179.594 42.4375 179.539 42.5625 179.477 42.6562C179.414 42.75 179.281 42.7188 179.078 42.5625L179.031 42.5156L178.984 42.5625C178.859 42.6875 178.758 42.8281 178.68 42.9844C178.617 43.1406 178.523 43.2578 178.398 43.3359C178.258 43.2891 178.109 43.25 177.953 43.2188C177.797 43.1875 177.648 43.1562 177.508 43.125C177.508 43.4531 177.445 43.7109 177.32 43.8984C177.195 44.0859 177.031 44.2422 176.828 44.3672C176.641 44.4766 176.422 44.5703 176.172 44.6484C175.922 44.7109 175.672 44.7969 175.422 44.9062C175.188 45 174.961 45.125 174.742 45.2812C174.539 45.4219 174.375 45.625 174.25 45.8906C174.406 46.0625 174.602 46.1641 174.836 46.1953C175.07 46.2109 175.312 46.2109 175.562 46.1953C175.812 46.1641 176.055 46.1484 176.289 46.1484C176.539 46.1484 176.758 46.2109 176.945 46.3359L176.969 46.3594L176.992 46.3359C177.367 46.2891 177.727 46.2031 178.07 46.0781C178.43 45.9375 178.773 45.7969 179.102 45.6562C179.445 45.5 179.789 45.3594 180.133 45.2344C180.492 45.0938 180.859 44.9922 181.234 44.9297C181.312 45.0547 181.414 45.125 181.539 45.1406C181.68 45.1562 181.812 45.1484 181.938 45.1172L181.961 45.0703C181.992 44.9609 182.023 44.8672 182.055 44.7891C182.086 44.6953 182.133 44.5938 182.195 44.4844C182.305 44.3125 182.438 44.1797 182.594 44.0859C182.75 43.9922 182.914 43.9219 183.086 43.875C183.273 43.8281 183.469 43.7969 183.672 43.7812C183.875 43.7656 184.078 43.7422 184.281 43.7109H184.328L184.352 43.6406C184.414 43.4531 184.492 43.3281 184.586 43.2656C184.695 43.1875 184.805 43.1328 184.914 43.1016C185.039 43.0703 185.164 43.0469 185.289 43.0312C185.43 43.0156 185.562 42.9688 185.688 42.8906C185.969 42.9844 186.203 42.9531 186.391 42.7969C186.578 42.6406 186.758 42.4766 186.93 42.3047L187.117 42.5391L187.188 42.4453C187.422 42.2266 187.594 42.0625 187.703 41.9531C187.828 41.8438 187.945 41.75 188.055 41.6719C188.164 41.5781 188.289 41.4922 188.43 41.4141C188.586 41.3203 188.797 41.1875 189.062 41.0156C189.281 40.875 189.492 40.7344 189.695 40.5938C189.914 40.4531 190.125 40.2969 190.328 40.125C190.406 40.1562 190.445 40.2188 190.445 40.3125C190.445 40.3906 190.445 40.4688 190.445 40.5469C190.43 40.5781 190.414 40.625 190.398 40.6875C190.398 40.75 190.414 40.7969 190.445 40.8281ZM180.742 37.8984C180.727 37.8828 180.711 37.875 180.695 37.875C180.695 37.875 180.688 37.8672 180.672 37.8516C180.344 37.6797 180.07 37.6016 179.852 37.6172C179.633 37.6172 179.43 37.6797 179.242 37.8047C179.07 37.9141 178.906 38.0625 178.75 38.25C178.609 38.4219 178.453 38.5859 178.281 38.7422C178.125 38.8828 177.938 38.9922 177.719 39.0703C177.5 39.1484 177.234 39.1406 176.922 39.0469C176.875 39.2969 176.828 39.5469 176.781 39.7969C176.75 40.0312 176.727 40.2734 176.711 40.5234C176.445 40.6172 176.234 40.75 176.078 40.9219C175.938 41.0938 175.812 41.2812 175.703 41.4844C175.609 41.6875 175.516 41.9062 175.422 42.1406C175.344 42.3594 175.234 42.5703 175.094 42.7734L175.188 42.8906C175.25 42.8594 175.32 42.8828 175.398 42.9609C175.477 43.0391 175.531 43.0938 175.562 43.125C175.734 42.875 175.961 42.6641 176.242 42.4922C176.539 42.3203 176.836 42.1641 177.133 42.0234C177.445 41.8672 177.742 41.7031 178.023 41.5312C178.305 41.3594 178.516 41.1328 178.656 40.8516C179.156 40.7109 179.531 40.4297 179.781 40.0078C180.031 39.5859 180.242 39.1484 180.414 38.6953C180.445 38.6016 180.5 38.4688 180.578 38.2969C180.672 38.1094 180.727 37.9766 180.742 37.8984Z"
            fill="white" />
    </g>
    <defs>
        <filter id="filter0_d_27_129" x="0" y="0" width="237" height="93"
            filterUnits="userSpaceOnUse" color-interpolation-filters="sRGB">
            <feFlood flood-opacity="0" result="BackgroundImageFix" />
            <feColorMatrix in="SourceAlpha" type="matrix"
                values="0 0 0 0 0 0 0 0 0 0 0 0 0 0 0 0 0 0 127 0" result="hardAlpha" />
            <feOffset dy="4" />
            <feGaussianBlur stdDeviation="10" />
            <feComposite in2="hardAlpha" operator="out" />
            <feColorMatrix type="matrix" values="0 0 0 0 1 0 0 0 0 1 0 0 0 0 1 0 0 0 0.14 0" />
            <feBlend mode="normal" in2="BackgroundImageFix" result="effect1_dropShadow_27_129" />
            <feBlend mode="normal" in="SourceGraphic" in2="effect1_dropShadow_27_129" result="shape" />
        </filter>
        <linearGradient id="paint0_linear_27_129" x1="414" y1="-68.5" x2="414" y2="95.5"
            gradientUnits="userSpaceOnUse">
            <stop offset="0.0448729" stop-color="#5F5FB5" />
            <stop offset="1" stop-color="#2E2D55" />
        </linearGradient>
    </defs>
</svg>