<svg width="195" height="74" viewBox="0 0 195 74" fill="none" xmlns="http://www.w3.org/2000/svg">
<rect x="6" width="172" height="45" rx="10" fill="url(#paint0_linear_19_81)"/>
<path d="M48.9062 27.0625C48.8438 27.3542 48.7083 27.5833 48.5 27.75C48.2917 27.9167 48.0521 28.0521 47.7812 28.1562C47.5312 28.2604 47.2604 28.3646 46.9688 28.4688C46.6979 28.5521 46.4583 28.6667 46.25 28.8125C45.875 28.6875 45.5312 28.6771 45.2188 28.7812C44.9062 28.8646 44.6042 28.9583 44.3125 29.0625C44.0208 29.1458 43.7188 29.1979 43.4062 29.2188C43.0938 29.2188 42.7708 29.0729 42.4375 28.7812L42.3438 28.9375C42.1562 29.2708 41.8854 29.5417 41.5312 29.75C41.1771 29.9583 40.8438 30.1458 40.5312 30.3125C40.3021 30.4375 40.0521 30.6042 39.7812 30.8125C39.5104 31.0208 39.25 31.25 39 31.5C38.7708 31.75 38.5729 32.0104 38.4062 32.2812C38.2604 32.5521 38.1875 32.8229 38.1875 33.0938V33.2188C37.5833 33.5104 37.0208 33.875 36.5 34.3125C36 34.7708 35.4583 35.1562 34.875 35.4688H34.8438V35.5C34.6771 35.6875 34.5104 35.8021 34.3438 35.8438C34.1771 35.9062 34 35.9375 33.8125 35.9375C33.6458 35.9375 33.4688 35.9375 33.2812 35.9375C33.1146 35.9375 32.9375 35.9792 32.75 36.0625C32.5833 35.8125 32.3854 35.6354 32.1562 35.5312C31.9479 35.4479 31.7083 35.3854 31.4375 35.3438C31.1875 35.3229 30.9271 35.3125 30.6562 35.3125C30.4062 35.3125 30.1562 35.2812 29.9062 35.2188C28.9062 34.9896 28.0833 34.5938 27.4375 34.0312C26.8125 33.4896 26.1979 32.8229 25.5938 32.0312C25.7188 31.2396 25.6146 30.4896 25.2812 29.7812C24.9479 29.0521 24.5625 28.3854 24.125 27.7812C23.7708 28.0729 23.4479 28.3542 23.1562 28.625C22.8646 28.875 22.5833 29.125 22.3125 29.375C22.0417 29.625 21.7708 29.8854 21.5 30.1562C21.2292 30.4271 20.9375 30.7188 20.625 31.0312L20.5625 31.0938C20.6667 31.4062 20.6771 31.6562 20.5938 31.8438C20.4896 32.0104 20.3438 32.1667 20.1562 32.3125C19.9479 32.4375 19.7292 32.5625 19.5 32.6875C19.2708 32.7917 19.0833 32.9375 18.9375 33.125L18.7812 32.875C18.4896 33.1042 18.2708 33.375 18.125 33.6875C17.9583 34 17.7917 34.3125 17.625 34.625C17.4583 34.9375 17.2604 35.2083 17.0312 35.4375C16.8021 35.6875 16.4896 35.8438 16.0938 35.9062C16.0104 35.7812 15.9062 35.6875 15.7812 35.625C15.6562 35.5833 15.5312 35.5521 15.4062 35.5312C15.2812 35.5104 15.1667 35.4896 15.0625 35.4688C14.9375 35.4479 14.8438 35.4062 14.7812 35.3438C14.7604 35.3021 14.75 35.25 14.75 35.1875C14.7292 35.125 14.7292 35.0729 14.75 35.0312C14.7708 34.4688 14.9271 33.9375 15.2188 33.4375C15.5104 32.9375 15.8229 32.4792 16.1562 32.0625C16.4271 31.6875 16.6771 31.3125 16.9062 30.9375C17.1146 30.5625 17.2917 30.1562 17.4375 29.7188C17.875 29.4062 18.2917 29.0417 18.6875 28.625C19.0625 28.1875 19.4583 27.7708 19.875 27.375C20.2708 26.9583 20.6979 26.6042 21.1562 26.3125C21.6146 26 22.125 25.8125 22.6875 25.75H22.8125C22.875 25.5 23.0104 25.2812 23.2188 25.0938C23.4479 24.9062 23.7083 24.7292 24 24.5625C24.2917 24.3958 24.5833 24.2188 24.875 24.0312C25.1875 23.8438 25.4479 23.625 25.6562 23.375C25.8646 23.125 26 22.8333 26.0625 22.5C26.125 22.1667 26.0625 21.7604 25.875 21.2812L25.8438 21.25V21.2188C25.4688 20.6562 25.2188 20.0521 25.0938 19.4062C24.9688 18.7604 24.9271 18.1042 24.9688 17.4375C25.0104 16.7708 25.0938 16.1042 25.2188 15.4375C25.3438 14.7708 25.4688 14.125 25.5938 13.5C25.6354 13.2083 25.6771 12.9271 25.7188 12.6562C25.7812 12.3854 25.8438 12.1042 25.9062 11.8125C25.9479 11.625 25.9896 11.4479 26.0312 11.2812C26.0729 11.0938 26.1042 10.9062 26.125 10.7188C26.4167 10.5729 26.6354 10.3854 26.7812 10.1562C26.9479 9.92708 27.0833 9.67708 27.1875 9.40625C27.2917 9.13542 27.3854 8.86458 27.4688 8.59375C27.5729 8.32292 27.6875 8.08333 27.8125 7.875C27.9375 7.64583 28.1042 7.46875 28.3125 7.34375C28.5417 7.19792 28.8438 7.125 29.2188 7.125V7.09375C30.0104 6.30208 30.8854 5.6875 31.8438 5.25C32.8021 4.8125 33.8542 4.65625 35 4.78125H35.0312C35.5104 4.78125 35.9792 4.91667 36.4375 5.1875C36.9167 5.45833 37.3646 5.69792 37.7812 5.90625L38.0312 5.75L38.2188 6.03125L38.5312 5.84375C38.9062 6.40625 39.3125 6.96875 39.75 7.53125C40.2083 8.09375 40.6354 8.67708 41.0312 9.28125C41.4479 9.86458 41.7917 10.4792 42.0625 11.125C42.3333 11.75 42.4688 12.4167 42.4688 13.125C42.4688 13.1875 42.4583 13.3021 42.4375 13.4688C42.4167 13.6146 42.3958 13.7604 42.375 13.9062C42.3542 14.0521 42.3333 14.1875 42.3125 14.3125C42.2917 14.4375 42.2812 14.5 42.2812 14.5L42.8438 15.3438L42.875 15.3125C42.8333 15.5625 42.8021 15.8333 42.7812 16.125C42.7812 16.3958 42.7812 16.6771 42.7812 16.9688C42.7812 17.2604 42.7604 17.5417 42.7188 17.8125C42.6979 18.0833 42.6458 18.3125 42.5625 18.5H42.5312L42.4688 18.875C42.4479 18.9792 42.4375 19.0729 42.4375 19.1562C42.4375 19.2188 42.4375 19.2708 42.4375 19.3125C42.4375 19.6667 42.4688 19.9896 42.5312 20.2812C42.5938 20.5729 42.6354 20.8542 42.6562 21.125C42.6771 21.3958 42.6562 21.6771 42.5938 21.9688C42.5521 22.2396 42.4062 22.5312 42.1562 22.8438C42.3229 22.9688 42.3854 23.0938 42.3438 23.2188C42.3021 23.3438 42.2396 23.4792 42.1562 23.625C42.0729 23.7708 42 23.9375 41.9375 24.125C41.8958 24.2917 41.9375 24.4792 42.0625 24.6875C41.8958 24.8333 41.7917 25.0104 41.75 25.2188C41.7292 25.4062 41.7292 25.6146 41.75 25.8438C41.7708 26.0729 41.8021 26.3125 41.8438 26.5625C41.8854 26.7917 41.9062 27.0104 41.9062 27.2188C42.4896 27.3646 43.0729 27.4479 43.6562 27.4688C44.2396 27.4688 44.8229 27.4479 45.4062 27.4062C45.9896 27.3438 46.5729 27.2812 47.1562 27.2188C47.7396 27.1354 48.3229 27.0833 48.9062 27.0625ZM41.0312 19.4375C40.7812 19.0208 40.6354 18.6354 40.5938 18.2812C40.5521 17.9062 40.5417 17.5521 40.5625 17.2188C40.5833 16.8854 40.5938 16.5521 40.5938 16.2188C40.6146 15.8854 40.5417 15.5312 40.375 15.1562C40.5 15.0938 40.6146 15.0312 40.7188 14.9688C40.8438 14.8854 40.9583 14.8021 41.0625 14.7188C40.75 14.3854 40.5312 14.0833 40.4062 13.8125C40.3021 13.5417 40.2188 13.1875 40.1562 12.75C40.1146 12.5833 40.0729 12.4167 40.0312 12.25C39.9896 12.0833 39.9479 11.9062 39.9062 11.7188C39.8854 11.5729 39.8646 11.4375 39.8438 11.3125C39.8229 11.1875 39.7917 11.0625 39.75 10.9375C39.5208 10.2917 39.1667 9.76042 38.6875 9.34375C38.2292 8.90625 37.7292 8.51042 37.1875 8.15625C36.8542 7.90625 36.5312 7.67708 36.2188 7.46875C35.9062 7.23958 35.6354 6.94792 35.4062 6.59375C35.3854 6.63542 35.2812 6.71875 35.0938 6.84375C34.9062 6.96875 34.6979 7.10417 34.4688 7.25C34.2604 7.39583 34.0625 7.53125 33.875 7.65625C33.6875 7.78125 33.5625 7.85417 33.5 7.875C33.2708 7.77083 33.0521 7.73958 32.8438 7.78125C32.6354 7.80208 32.4375 7.84375 32.25 7.90625C32.0625 7.96875 31.8958 8.03125 31.75 8.09375C31.6042 8.13542 31.5 8.125 31.4375 8.0625H31.4062L31.375 8.03125C31.125 7.94792 30.9479 7.94792 30.8438 8.03125C30.7396 8.11458 30.6562 8.22917 30.5938 8.375C30.5521 8.52083 30.5 8.65625 30.4375 8.78125C30.3958 8.88542 30.3125 8.92708 30.1875 8.90625C30.1875 8.92708 30.1771 8.94792 30.1562 8.96875C30.1562 8.98958 30.1562 9.01042 30.1562 9.03125C30.0938 9.46875 30.0208 9.84375 29.9375 10.1562C29.875 10.4479 29.7917 10.7292 29.6875 11C29.6042 11.25 29.4792 11.5104 29.3125 11.7812C29.1667 12.0312 28.9792 12.3438 28.75 12.7188C28.5417 13.0729 28.3438 13.3958 28.1562 13.6875C27.9896 13.9792 27.8438 14.2812 27.7188 14.5938C27.5938 14.8854 27.4896 15.1979 27.4062 15.5312C27.3438 15.8646 27.3125 16.2396 27.3125 16.6562C27.6042 17.1562 27.7396 17.625 27.7188 18.0625C27.6979 18.5 27.625 18.9896 27.5 19.5312V19.5625L27.75 19.7188C28.1667 19.3229 28.5312 18.8854 28.8438 18.4062C29.1771 17.9271 29.4896 17.4479 29.7812 16.9688C30.0729 16.4896 30.375 16.0312 30.6875 15.5938C31 15.1354 31.3438 14.7396 31.7188 14.4062C32.2812 14.8021 32.6146 15.2083 32.7188 15.625C32.8229 16.0417 32.7812 16.4688 32.5938 16.9062C32.4062 17.3438 32.125 17.8021 31.75 18.2812C31.3958 18.7396 31.0312 19.2188 30.6562 19.7188C30.2812 20.2188 29.9479 20.7396 29.6562 21.2812C29.3854 21.8229 29.25 22.3854 29.25 22.9688L29.2812 23C30.0729 23.9375 30.9479 24.6146 31.9062 25.0312C32.8646 25.4479 33.9167 25.8021 35.0625 26.0938L35.6875 25.6875C35.9583 25.6667 36.2083 25.7708 36.4375 26C36.6667 26.2083 36.8854 26.3854 37.0938 26.5312C37.2396 26.4271 37.4375 26.3438 37.6875 26.2812C37.9375 26.2188 38.1875 26.1667 38.4375 26.125C38.7083 26.0833 38.9688 26.0417 39.2188 26C39.4896 25.9583 39.7188 25.9167 39.9062 25.875L39.6562 25.5312L40 25.25C39.9375 25.2083 39.8646 25.1562 39.7812 25.0938C39.7188 25.0312 39.6875 24.9583 39.6875 24.875C39.75 24.75 39.8229 24.6458 39.9062 24.5625C39.9896 24.4792 40.0521 24.3958 40.0938 24.3125C40.1354 24.2292 40.1562 24.1458 40.1562 24.0625C40.1562 23.9583 40.1146 23.8229 40.0312 23.6562C40.3438 23.3438 40.4896 23.0104 40.4688 22.6562C40.4688 22.2812 40.4375 21.9167 40.375 21.5625C40.3333 21.1875 40.3333 20.8333 40.375 20.5C40.4375 20.1458 40.6875 19.8438 41.125 19.5938L41.0312 19.4375ZM37.9062 30C37.7188 29.4375 37.4583 29.0729 37.125 28.9062C36.7917 28.7188 36.4167 28.625 36 28.625C35.5833 28.625 35.1458 28.6562 34.6875 28.7188C34.25 28.7812 33.8438 28.7604 33.4688 28.6562C33.3229 28.4479 33.1562 28.3229 32.9688 28.2812C32.7812 28.2396 32.5938 28.2292 32.4062 28.25C32.2188 28.2708 32.0417 28.2917 31.875 28.3125C31.7083 28.3333 31.5729 28.3125 31.4688 28.25C31.3646 28.1667 31.3125 28.0833 31.3125 28C31.3333 27.8958 31.3229 27.8021 31.2812 27.7188L31.2188 27.6562C31.1146 27.6146 31.0104 27.5938 30.9062 27.5938C30.8021 27.5938 30.6979 27.5938 30.5938 27.5938C30.5104 27.5729 30.4375 27.5312 30.375 27.4688C30.3333 27.4062 30.3021 27.3021 30.2812 27.1562C29.8438 27.3021 29.4583 27.3333 29.125 27.25C28.8125 27.1458 28.5312 26.9792 28.2812 26.75C28.0312 26.5 27.8021 26.2188 27.5938 25.9062C27.3854 25.5729 27.1875 25.2604 27 24.9688L26.9688 24.9375L26.9375 24.9688L26.6562 25.0312V25.0938C26.7188 25.5938 26.7917 26.1562 26.875 26.7812C26.9792 27.4062 27.1042 28.0417 27.25 28.6875C27.3958 29.3333 27.5729 29.9479 27.7812 30.5312C27.9896 31.1146 28.2396 31.6146 28.5312 32.0312C28.5312 32.0312 28.5521 32.0521 28.5938 32.0938C28.7396 32.0521 28.9062 32.1042 29.0938 32.25C29.3021 32.3958 29.5208 32.5417 29.75 32.6875C29.9792 32.8333 30.2188 32.9271 30.4688 32.9688C30.7396 33.0104 31.0104 32.9062 31.2812 32.6562C31.4896 32.8646 31.6562 33.0417 31.7812 33.1875C31.9062 33.3333 32.1458 33.4062 32.5 33.4062H32.5312C33.0938 33.1771 33.6042 32.9583 34.0625 32.75C34.5208 32.5208 34.9583 32.2812 35.375 32.0312C35.7917 31.7812 36.1979 31.5 36.5938 31.1875C36.9896 30.875 37.4062 30.5 37.8438 30.0625L37.9062 30ZM55.5625 14.5C55.1875 14.6458 54.9792 14.8646 54.9375 15.1562C54.8958 15.4479 54.875 15.75 54.875 16.0625C54.8958 16.375 54.8854 16.6667 54.8438 16.9375C54.8021 17.2083 54.5938 17.3854 54.2188 17.4688C54.0729 17.2188 53.8854 16.9896 53.6562 16.7812C53.4479 16.5521 53.2396 16.3333 53.0312 16.125C52.8229 15.8958 52.6562 15.6562 52.5312 15.4062C52.4062 15.1562 52.3646 14.8542 52.4062 14.5L53.9688 12.6875C54.2188 12.7708 54.4167 12.875 54.5625 13C54.7083 13.125 54.8333 13.2708 54.9375 13.4375C55.0417 13.6042 55.1354 13.7812 55.2188 13.9688C55.3229 14.1354 55.4375 14.3125 55.5625 14.5ZM61.625 28.5C61.6458 28.9583 61.6042 29.2812 61.5 29.4688C61.4167 29.6562 61.3125 29.8125 61.1875 29.9375C61.0625 30.0417 60.9479 30.1667 60.8438 30.3125C60.7604 30.4375 60.7188 30.6667 60.7188 31C60.2396 31.5208 59.8542 31.9062 59.5625 32.1562C59.2708 32.3854 58.9896 32.5833 58.7188 32.75C58.4479 32.8958 58.1458 33.0625 57.8125 33.25C57.4792 33.4375 57.0208 33.7292 56.4375 34.125L56.2188 34.1562C56.1562 34.4688 56.0417 34.6458 55.875 34.6875C55.7292 34.75 55.5521 34.7812 55.3438 34.7812C55.1562 34.7812 54.9688 34.8021 54.7812 34.8438C54.5938 34.8854 54.4375 35.0625 54.3125 35.375C53.9583 35.4792 53.6562 35.5208 53.4062 35.5C53.1562 35.4792 52.8333 35.4688 52.4375 35.4688C52.3125 35.4688 52.1458 35.4583 51.9375 35.4375C51.75 35.4167 51.5938 35.4271 51.4688 35.4688C51.3854 35.4896 51.2917 35.5417 51.1875 35.625C51.1042 35.7292 51.0104 35.8125 50.9062 35.875C50.8021 35.9375 50.6979 35.9583 50.5938 35.9375C50.4896 35.9375 50.3958 35.8542 50.3125 35.6875C50.0625 35.75 49.8333 35.75 49.625 35.6875C49.4167 35.625 49.2188 35.5208 49.0312 35.375C48.8438 35.2292 48.6667 35.0521 48.5 34.8438C48.3542 34.6562 48.2083 34.4792 48.0625 34.3125C47.9583 34.1875 47.8438 34.0729 47.7188 33.9688C47.5938 33.8646 47.4792 33.7604 47.375 33.6562C47.1458 33.4271 46.9792 33.1354 46.875 32.7812C46.7708 32.4271 46.7083 32.0625 46.6875 31.6875C46.6667 31.3125 46.6771 30.9375 46.7188 30.5625C46.7604 30.1875 46.8229 29.8542 46.9062 29.5625C47.0938 29.375 47.2292 29.1667 47.3125 28.9375C47.375 28.6875 47.4271 28.4375 47.4688 28.1875C47.5312 27.9375 47.5938 27.6979 47.6562 27.4688C47.7396 27.2188 47.875 27 48.0625 26.8125C48.0625 26.5417 48.1042 26.2917 48.1875 26.0625C48.2917 25.8333 48.4167 25.6146 48.5625 25.4062C48.7292 25.1979 48.9062 25.0104 49.0938 24.8438C49.3021 24.6562 49.4896 24.4792 49.6562 24.3125C49.8229 24.3125 49.9896 24.3125 50.1562 24.3125C50.3229 24.2917 50.4792 24.3021 50.625 24.3438C50.7708 24.3646 50.8958 24.4271 51 24.5312C51.1042 24.6146 51.1875 24.7604 51.25 24.9688C51.3958 25.5312 51.3542 25.9896 51.125 26.3438C50.9167 26.6771 50.6771 27 50.4062 27.3125C50.1354 27.625 49.9167 27.9479 49.75 28.2812C49.5833 28.6146 49.625 29.0417 49.875 29.5625C49.6458 29.5625 49.4896 29.625 49.4062 29.75C49.3438 29.875 49.2917 30.0208 49.25 30.1875C49.2292 30.3333 49.1875 30.4792 49.125 30.625C49.0625 30.7708 48.9375 30.875 48.75 30.9375C48.875 31.0625 48.9375 31.2812 48.9375 31.5938C48.9583 31.9062 48.9896 32.2083 49.0312 32.5C49.0938 32.7708 49.1875 32.9896 49.3125 33.1562C49.4583 33.3229 49.7188 33.3333 50.0938 33.1875C50.3646 33.4167 50.6875 33.5104 51.0625 33.4688C51.4583 33.4271 51.8229 33.4167 52.1562 33.4375C52.4479 33.25 52.6979 33.1562 52.9062 33.1562C53.1146 33.1354 53.3125 33.1562 53.5 33.2188C53.6875 33.2604 53.8854 33.3021 54.0938 33.3438C54.3021 33.3854 54.5521 33.3542 54.8438 33.25C54.9271 32.8958 55.0729 32.6875 55.2812 32.625C55.4896 32.5625 55.6979 32.5312 55.9062 32.5312C56.1146 32.5104 56.3021 32.4688 56.4688 32.4062C56.6562 32.3438 56.7812 32.1354 56.8438 31.7812C57.0104 31.5729 57.2083 31.4583 57.4375 31.4375C57.6667 31.3958 57.8958 31.3542 58.125 31.3125C58.375 31.2708 58.5938 31.1875 58.7812 31.0625C58.9896 30.9167 59.1354 30.6458 59.2188 30.25C59.5729 29.9792 59.8229 29.7812 59.9688 29.6562C60.1354 29.5104 60.2708 29.3958 60.375 29.3125C60.4792 29.2292 60.6146 29.1354 60.7812 29.0312C60.9479 28.9271 61.2292 28.75 61.625 28.5ZM80.75 26.1875C80.6458 26.8333 80.5208 27.3333 80.375 27.6875C80.2292 28.0208 80.0417 28.3021 79.8125 28.5312C79.6042 28.7396 79.3333 28.9479 79 29.1562C78.6667 29.3438 78.2708 29.625 77.8125 30C77.6458 30.125 77.4896 30.2396 77.3438 30.3438C77.1979 30.4479 77.0521 30.5729 76.9062 30.7188C76.4896 30.8438 75.9792 31.0521 75.375 31.3438C74.7708 31.6146 74.1458 31.8958 73.5 32.1875C72.875 32.4583 72.2708 32.6979 71.6875 32.9062C71.125 33.1146 70.6667 33.1979 70.3125 33.1562C70.1875 33.3229 69.9688 33.4271 69.6562 33.4688C69.3438 33.5104 69.1042 33.5312 68.9375 33.5312C68.6667 33.5312 68.3854 33.5521 68.0938 33.5938C67.8229 33.6354 67.5833 33.7604 67.375 33.9688C67.3333 34.0104 67.3021 34.0312 67.2812 34.0312C67.2812 34.0521 67.2812 34.0625 67.2812 34.0625C67.3021 34.0625 67.3021 34.0625 67.2812 34.0625C67.2812 34.0833 67.2604 34.125 67.2188 34.1875C66.9896 34.4583 66.75 34.6042 66.5 34.625C66.2708 34.6458 66.0417 34.6042 65.8125 34.5C65.5833 34.4167 65.3438 34.3021 65.0938 34.1562C64.8646 34.0104 64.625 33.9062 64.375 33.8438C64.1458 33.7604 63.9062 33.75 63.6562 33.8125C63.4062 33.8542 63.1562 34.0208 62.9062 34.3125C62.7604 33.9375 62.5312 33.7188 62.2188 33.6562C61.9062 33.5938 61.5833 33.5625 61.25 33.5625C60.9375 33.5417 60.6354 33.5104 60.3438 33.4688C60.0521 33.4062 59.8542 33.2083 59.75 32.875V32.8438L59.0938 32.2812L59 32.375C58.8958 32.4792 58.8125 32.5938 58.75 32.7188C58.6875 32.8438 58.6146 32.9583 58.5312 33.0625C58.3646 33.3125 58.1875 33.5625 58 33.8125C57.8125 34.0417 57.6042 34.2396 57.375 34.4062C57.125 34.5938 56.8646 34.7292 56.5938 34.8125C56.3229 34.9167 56.0312 34.9479 55.7188 34.9062C55.7188 34.4062 55.8646 33.9479 56.1562 33.5312C56.4271 33.1146 56.6979 32.7083 56.9688 32.3125C57.2188 31.8958 57.3854 31.4792 57.4688 31.0625C57.5312 30.625 57.3542 30.1667 56.9375 29.6875C56.9167 29.3958 56.7917 29.1146 56.5625 28.8438C56.3125 28.5521 56.0833 28.2708 55.875 28C55.6667 27.7083 55.5521 27.4271 55.5312 27.1562C55.4896 26.8854 55.6667 26.6146 56.0625 26.3438C55.875 26.3021 55.75 26.2292 55.6875 26.125C55.6875 26.0208 55.7188 25.9167 55.7812 25.8125C55.8229 25.6875 55.8646 25.5729 55.9062 25.4688C56.0312 25.4688 56.1667 25.4479 56.3125 25.4062C56.4375 25.3438 56.5625 25.3021 56.6875 25.2812C56.7917 25.2396 56.8958 25.2396 57 25.2812C57.0833 25.3021 57.1667 25.3958 57.25 25.5625C57.3125 25.6875 57.3646 25.8229 57.4062 25.9688C57.4479 26.1146 57.5 26.2604 57.5625 26.4062C57.7292 26.8229 57.9375 27.2188 58.1875 27.5938C58.4375 27.9479 58.7188 28.2812 59.0312 28.5938L59.125 28.6875C59.125 28.6667 59.1667 28.6146 59.25 28.5312C59.3333 28.4479 59.4271 28.3646 59.5312 28.2812C59.6354 28.1771 59.7292 28.0833 59.8125 28C59.8958 27.9167 59.9583 27.8542 60 27.8125C60.25 27.5833 60.4896 27.3646 60.7188 27.1562C60.9479 26.9479 61.1458 26.7396 61.3125 26.5312C61.5 26.3021 61.6354 26.0521 61.7188 25.7812C61.8229 25.4896 61.875 25.1562 61.875 24.7812C62.5208 24.3438 63.1562 23.8646 63.7812 23.3438C64.4062 22.8021 65.0417 22.2812 65.6875 21.7812C66.3333 21.2812 67 20.8333 67.6875 20.4375C68.3958 20.0417 69.1562 19.7708 69.9688 19.625C70.1562 19.9583 70.375 20.2188 70.625 20.4062C70.875 20.5938 71.1146 20.7812 71.3438 20.9688C71.5938 21.1562 71.8125 21.3854 72 21.6562C72.2083 21.9271 72.3542 22.3021 72.4375 22.7812C72.6042 23.6771 72.6042 24.5208 72.4375 25.3125C72.2917 26.1042 72.0729 26.9271 71.7812 27.7812C71.6146 28.2812 71.4583 28.7917 71.3125 29.3125C71.1875 29.8333 71.125 30.3646 71.125 30.9062L71.3438 30.9688C71.5312 30.7188 71.7396 30.5625 71.9688 30.5C72.2188 30.4375 72.4688 30.3958 72.7188 30.375C72.9688 30.3542 73.2083 30.3229 73.4375 30.2812C73.6875 30.2188 73.8958 30.0625 74.0625 29.8125C74.3333 29.9167 74.5833 29.9271 74.8125 29.8438C75.0625 29.7396 75.3021 29.6042 75.5312 29.4375C75.7604 29.2708 75.9896 29.0938 76.2188 28.9062C76.4479 28.7188 76.6875 28.5938 76.9375 28.5312L76.9062 28.2812C77.2812 28.0312 77.6042 27.8542 77.875 27.75C78.1458 27.6458 78.3958 27.5417 78.625 27.4375C78.8542 27.3333 79.0833 27.1875 79.3125 27C79.5417 26.8125 79.8021 26.5 80.0938 26.0625C80.1979 26.0208 80.3125 26.0104 80.4375 26.0312C80.5833 26.0312 80.6875 26.0833 80.75 26.1875ZM69.8438 23.0938C69.7396 23.0521 69.625 23.0208 69.5 23C69.3958 22.9583 69.2917 22.9062 69.1875 22.8438C69 22.7188 68.8229 22.625 68.6562 22.5625C68.4896 22.5 68.2917 22.5208 68.0625 22.625V22.6875H68.0312C66.9688 23.5 65.9792 24.3958 65.0625 25.375C64.1667 26.3333 63.2188 27.2708 62.2188 28.1875L61.9375 27.9062C61.7917 28.0938 61.7083 28.2917 61.6875 28.5C61.6875 28.7083 61.6875 28.9062 61.6875 29.0938C61.6875 29.2812 61.6667 29.4583 61.625 29.625C61.5833 29.7917 61.4583 29.9479 61.25 30.0938L61.1562 30.1562C61.2396 30.4479 61.3542 30.6354 61.5 30.7188C61.6667 30.7812 61.8333 30.8125 62 30.8125C62.1875 30.7917 62.3646 30.7708 62.5312 30.75C62.6979 30.7292 62.8333 30.7604 62.9375 30.8438C63 30.8854 63.0417 30.9479 63.0625 31.0312C63.0833 31.1146 63.0938 31.1875 63.0938 31.25C63.1979 31.25 63.3021 31.25 63.4062 31.25C63.5312 31.25 63.6562 31.2396 63.7812 31.2188C64.0104 31.1771 64.25 31.1771 64.5 31.2188C64.7708 31.2396 64.9271 31.3958 64.9688 31.6875C65.3854 31.5208 65.8125 31.3438 66.25 31.1562C66.6875 30.9688 67.0417 30.6667 67.3125 30.25L67.5312 30.4688C67.5521 30.4688 67.5625 30.4688 67.5625 30.4688C67.5833 30.4479 67.6042 30.4375 67.625 30.4375C68.1458 30.125 68.5521 29.6667 68.8438 29.0625C69.1562 28.4583 69.3854 27.8021 69.5312 27.0938C69.6771 26.3854 69.7604 25.6771 69.7812 24.9688C69.8229 24.2604 69.8438 23.6354 69.8438 23.0938ZM101.25 25.25C101.062 25.7708 100.771 26.25 100.375 26.6875C100 27.125 99.5938 27.5521 99.1562 27.9688C98.7188 28.3854 98.2812 28.8021 97.8438 29.2188C97.4271 29.6146 97.0729 30.0312 96.7812 30.4688C96.5938 30.4062 96.4271 30.4271 96.2812 30.5312C96.1562 30.6354 96.0417 30.7708 95.9375 30.9375C95.7083 31.0208 95.4688 31.1146 95.2188 31.2188C94.9896 31.3021 94.7604 31.4062 94.5312 31.5312C94.3229 31.6562 94.125 31.8021 93.9375 31.9688C93.7708 32.1354 93.6458 32.3438 93.5625 32.5938C93.1667 32.6146 92.8229 32.6979 92.5312 32.8438C92.2396 32.9688 91.9583 33.1042 91.6875 33.25C91.4167 33.3958 91.125 33.5208 90.8125 33.625C90.5 33.7083 90.125 33.7188 89.6875 33.6562C89.6042 33.9688 89.4896 34.1146 89.3438 34.0938C89.2188 34.0938 89.0833 34.0625 88.9375 34C88.7917 33.9167 88.6458 33.875 88.5 33.875C88.3542 33.8542 88.2396 34 88.1562 34.3125C88.0104 34.3125 87.8542 34.3021 87.6875 34.2812C87.5417 34.2812 87.3958 34.2812 87.25 34.2812C87.125 34.3021 87 34.3438 86.875 34.4062C86.7708 34.4688 86.6875 34.5833 86.625 34.75C86.0208 34.75 85.3854 34.7917 84.7188 34.875C84.0521 34.9583 83.3854 35 82.7188 35C82.0729 35 81.4375 34.9167 80.8125 34.75C80.2083 34.6042 79.6667 34.2917 79.1875 33.8125C79.0208 33.6458 78.8854 33.4792 78.7812 33.3125C78.6771 33.1458 78.5625 32.9583 78.4375 32.75C78.375 32.6458 78.3125 32.5521 78.25 32.4688C78.1875 32.3646 78.125 32.25 78.0625 32.125C77.8958 31.75 77.8021 31.3646 77.7812 30.9688C77.7604 30.5729 77.7604 30.1771 77.7812 29.7812C77.7812 29.3854 77.7812 29 77.7812 28.625C77.7812 28.2292 77.7083 27.8438 77.5625 27.4688C77.5625 27.1146 77.6458 26.8021 77.8125 26.5312C77.9583 26.2396 78.125 25.9583 78.3125 25.6875C78.5 25.4167 78.6771 25.1458 78.8438 24.875C79.0104 24.5833 79.1042 24.2708 79.125 23.9375C78.9792 23.5833 78.9896 23.2396 79.1562 22.9062C79.3229 22.5729 79.4896 22.2604 79.6562 21.9688C79.7188 21.8646 79.7708 21.7604 79.8125 21.6562C79.875 21.5312 79.9375 21.4062 80 21.2812C80.0625 21.1562 80.1458 21.0312 80.25 20.9062C80.3542 20.7812 80.4479 20.6667 80.5312 20.5625C80.8021 20.1875 81.0729 19.8229 81.3438 19.4688C81.6146 19.1146 81.8854 18.75 82.1562 18.375C82.3438 18.125 82.5208 17.875 82.6875 17.625C82.875 17.375 83.0521 17.1146 83.2188 16.8438C83.3021 16.7188 83.3854 16.5833 83.4688 16.4375C83.5521 16.2708 83.6354 16.1354 83.7188 16.0312C83.8229 15.9062 84 15.7708 84.25 15.625C84.5 15.4583 84.6979 15.3333 84.8438 15.25C85.2604 15.0417 85.7083 14.8958 86.1875 14.8125C86.6667 14.7083 87.1146 14.6979 87.5312 14.7812C87.9479 14.8646 88.3125 15.0625 88.625 15.375C88.9583 15.6667 89.1771 16.0938 89.2812 16.6562C89.3229 16.9271 89.3333 17.1979 89.3125 17.4688C89.3125 17.7188 89.3229 17.9688 89.3438 18.2188C89.3854 18.4688 89.4583 18.7083 89.5625 18.9375C89.6667 19.1458 89.8542 19.3438 90.125 19.5312C89.8958 19.8854 89.6979 20.25 89.5312 20.625C89.3854 21 89.2188 21.375 89.0312 21.75C89.2396 21.8125 89.3229 21.9375 89.2812 22.125C89.2604 22.2917 89.2604 22.4479 89.2812 22.5938C88.9896 22.8229 88.7917 23.1042 88.6875 23.4375C88.5833 23.7708 88.5 24.1146 88.4375 24.4688C88.375 24.8021 88.2917 25.125 88.1875 25.4375C88.1042 25.7292 87.9375 25.9688 87.6875 26.1562C87.8125 26.8229 87.6042 27.2604 87.0625 27.4688C86.6875 27.6146 86.4375 27.6458 86.3125 27.5625C86.1875 27.4583 86.0938 27.3229 86.0312 27.1562C85.9896 26.9688 85.9271 26.7917 85.8438 26.625C85.7604 26.4583 85.5833 26.375 85.3125 26.375C85.3542 26.125 85.3854 25.875 85.4062 25.625C85.4479 25.3542 85.5 25.0938 85.5625 24.8438C85.625 24.5938 85.7188 24.3542 85.8438 24.125C85.9688 23.8958 86.1458 23.6875 86.375 23.5C86.1875 23.3958 86.1146 23.2396 86.1562 23.0312C86.1979 22.8021 86.1979 22.5938 86.1562 22.4062C86.3021 21.9896 86.5208 21.5521 86.8125 21.0938C87.1042 20.6354 87.3646 20.1771 87.5938 19.7188C87.8229 19.2396 87.9688 18.7604 88.0312 18.2812C88.0938 17.8021 87.9792 17.3333 87.6875 16.875C87.6042 16.75 87.4792 16.6458 87.3125 16.5625C87.1667 16.4792 87.0208 16.4375 86.875 16.4375C86.7292 16.4375 86.6042 16.4896 86.5 16.5938C86.3958 16.6979 86.3542 16.8646 86.375 17.0938L86.625 17.3125C86.2292 17.4375 85.875 17.6458 85.5625 17.9375C85.2708 18.2292 84.9896 18.5521 84.7188 18.9062C84.4479 19.2396 84.1771 19.5833 83.9062 19.9375C83.6562 20.2917 83.3854 20.5938 83.0938 20.8438C82.9479 21.4271 82.7188 21.9688 82.4062 22.4688C82.1146 22.9688 81.8229 23.4688 81.5312 23.9688C81.3646 24.2812 81.2396 24.5417 81.1562 24.75C81.0938 24.9583 81 25.2083 80.875 25.5C80.8333 25.6042 80.7812 25.7083 80.7188 25.8125C80.6771 25.8958 80.6354 25.9896 80.5938 26.0938C80.4688 26.5521 80.3542 27 80.25 27.4375C80.1667 27.875 79.9271 28.25 79.5312 28.5625C79.5938 28.7292 79.6458 28.8854 79.6875 29.0312C79.75 29.1771 79.8542 29.3229 80 29.4688C79.7708 29.5938 79.6354 29.75 79.5938 29.9375C79.5729 30.1042 79.5833 30.2917 79.625 30.5C79.6875 30.6875 79.7604 30.8854 79.8438 31.0938C79.9479 31.2812 80 31.4688 80 31.6562C80.25 31.6771 80.4792 31.7708 80.6875 31.9375C80.8958 32.1042 81.1042 32.2708 81.3125 32.4375C81.5417 32.6042 81.7604 32.7396 81.9688 32.8438C82.1771 32.9271 82.4062 32.8958 82.6562 32.75C82.8229 32.7917 82.9792 32.8021 83.125 32.7812C83.2708 32.7604 83.4167 32.75 83.5625 32.75C83.7083 32.7292 83.8438 32.75 83.9688 32.8125C84.1146 32.875 84.2604 33 84.4062 33.1875C84.5521 32.875 84.75 32.6875 85 32.625C85.25 32.5625 85.5104 32.5312 85.7812 32.5312C86.0729 32.5312 86.3438 32.5208 86.5938 32.5C86.8646 32.4792 87.0938 32.3542 87.2812 32.125C87.5312 32.3333 87.75 32.4167 87.9375 32.375C88.1458 32.3333 88.3333 32.2396 88.5 32.0938C88.6875 31.9479 88.875 31.8021 89.0625 31.6562C89.25 31.5104 89.4583 31.4375 89.6875 31.4375C90.1875 31.4375 90.625 31.3646 91 31.2188C91.375 31.0729 91.7396 30.9062 92.0938 30.7188C92.4479 30.5104 92.8021 30.3125 93.1562 30.125C93.5312 29.9375 93.9583 29.8021 94.4375 29.7188C94.6458 29.4062 94.8854 29.1875 95.1562 29.0625C95.4479 28.9167 95.7396 28.7917 96.0312 28.6875C96.3438 28.5625 96.6354 28.4167 96.9062 28.25C97.1979 28.0625 97.4583 27.7708 97.6875 27.375C98.1042 27.3958 98.4479 27.2812 98.7188 27.0312C98.9896 26.7604 99.25 26.4792 99.5 26.1875C99.75 25.875 100 25.6146 100.25 25.4062C100.521 25.1771 100.854 25.125 101.25 25.25ZM118.438 24.1875C118.521 24.5 118.49 24.7708 118.344 25C118.198 25.2083 118 25.3958 117.75 25.5625C117.521 25.7292 117.26 25.8854 116.969 26.0312C116.698 26.1562 116.469 26.3021 116.281 26.4688C115.344 26.6771 114.49 26.8333 113.719 26.9375C112.969 27.0208 112.135 27.1354 111.219 27.2812C110.948 27.3229 110.688 27.3229 110.438 27.2812C110.208 27.2188 109.969 27.1979 109.719 27.2188C109.573 27.2188 109.438 27.2188 109.312 27.2188C109.188 27.1979 109.062 27.1979 108.938 27.2188C108.458 27.2604 108.146 27.4271 108 27.7188C107.854 27.9896 107.729 28.3125 107.625 28.6875C107.542 29.0417 107.427 29.3854 107.281 29.7188C107.156 30.0312 106.875 30.25 106.438 30.375C106.396 30.4792 106.406 30.5729 106.469 30.6562C106.552 30.7396 106.615 30.8125 106.656 30.875C106.302 30.9792 106.062 31.1667 105.938 31.4375C105.833 31.7083 105.74 31.9792 105.656 32.25C105.573 32.5208 105.448 32.75 105.281 32.9375C105.135 33.125 104.844 33.1875 104.406 33.125C103.76 33.8125 103 34.3646 102.125 34.7812C101.25 35.2188 100.344 35.5 99.4062 35.625C99.2396 35.5417 99.0729 35.4375 98.9062 35.3125C98.7604 35.1875 98.6042 35.0729 98.4375 34.9688C98.2917 34.8646 98.125 34.7812 97.9375 34.7188C97.7708 34.6771 97.5729 34.6771 97.3438 34.7188C97.3229 34.2812 97.2396 33.875 97.0938 33.5C96.9271 33.125 96.7188 32.7708 96.4688 32.4375C96.4271 32.0625 96.4792 31.7188 96.625 31.4062C96.75 31.0729 96.8854 30.75 97.0312 30.4375C97.1771 30.125 97.3021 29.8125 97.4062 29.5C97.4896 29.1667 97.4688 28.7917 97.3438 28.375C97.5521 28.25 97.6875 28.1042 97.75 27.9375C97.8333 27.7708 97.8854 27.6042 97.9062 27.4375C97.9479 27.25 98 27.0833 98.0625 26.9375C98.125 26.7708 98.2708 26.6354 98.5 26.5312C98.3333 26.0312 98.3542 25.6667 98.5625 25.4375C98.7917 25.1875 99.0625 24.9688 99.375 24.7812C99.6875 24.5938 99.9792 24.3854 100.25 24.1562C100.521 23.9271 100.625 23.5833 100.562 23.125C100.688 23 100.833 22.8958 101 22.8125C101.167 22.7292 101.323 22.6562 101.469 22.5938C101.635 22.5104 101.792 22.4271 101.938 22.3438C102.083 22.2604 102.219 22.1458 102.344 22C102.198 21.8958 102.125 21.7917 102.125 21.6875C102.146 21.5833 102.177 21.4792 102.219 21.375C102.26 21.25 102.302 21.125 102.344 21C102.406 20.875 102.406 20.75 102.344 20.625C102.906 20.7083 103.396 20.6354 103.812 20.4062C104.25 20.1562 104.656 19.9062 105.031 19.6562C105.427 19.4062 105.823 19.2292 106.219 19.125C106.615 19.0208 107.073 19.1458 107.594 19.5C107.635 19.6458 107.698 19.8646 107.781 20.1562C107.885 20.4271 107.979 20.7083 108.062 21C108.167 21.2917 108.26 21.5729 108.344 21.8438C108.427 22.1146 108.479 22.3125 108.5 22.4375C108.5 22.5417 108.5 22.7083 108.5 22.9375C108.5 23.1667 108.5 23.4167 108.5 23.6875C108.5 23.9375 108.5 24.1771 108.5 24.4062C108.5 24.6354 108.5 24.8125 108.5 24.9375C109.104 25.2917 109.708 25.5104 110.312 25.5938C110.917 25.6562 111.521 25.5104 112.125 25.1562C112.354 25.3646 112.573 25.4271 112.781 25.3438C112.99 25.2396 113.188 25.125 113.375 25C113.583 24.875 113.792 24.8125 114 24.8125C114.208 24.7917 114.417 24.9583 114.625 25.3125C114.917 25.0417 115.219 24.875 115.531 24.8125C115.844 24.7292 116.167 24.6875 116.5 24.6875C116.833 24.6667 117.156 24.6354 117.469 24.5938C117.802 24.5521 118.125 24.4167 118.438 24.1875ZM106.438 24.7188C106.438 24.4062 106.49 24.0729 106.594 23.7188C106.698 23.3646 106.781 23.0208 106.844 22.6875C106.906 22.3333 106.896 22 106.812 21.6875C106.75 21.375 106.552 21.0938 106.219 20.8438C105.99 20.9688 105.802 21.1458 105.656 21.375C105.51 21.5833 105.365 21.8021 105.219 22.0312C105.073 22.2396 104.896 22.4167 104.688 22.5625C104.5 22.7083 104.25 22.75 103.938 22.6875C103.833 22.9375 103.833 23.1458 103.938 23.3125C104.042 23.4583 104.167 23.6042 104.312 23.75C104.458 23.875 104.594 24.0104 104.719 24.1562C104.865 24.3021 104.917 24.4896 104.875 24.7188C104.958 24.7812 105.073 24.8438 105.219 24.9062C105.365 24.9479 105.51 24.9792 105.656 25C105.823 25 105.979 24.9792 106.125 24.9375C106.271 24.8958 106.375 24.8229 106.438 24.7188ZM106.219 27.2188C105.802 27.2188 105.438 27.125 105.125 26.9375C104.833 26.7292 104.531 26.5 104.219 26.25C103.927 26 103.615 25.7708 103.281 25.5625C102.969 25.3333 102.583 25.1979 102.125 25.1562C101.938 25.4062 101.719 25.6458 101.469 25.875C101.219 26.0833 101 26.3125 100.812 26.5625C100.625 26.8125 100.49 27.0833 100.406 27.375C100.344 27.6667 100.396 28 100.562 28.375C100.083 28.6042 99.7604 28.9375 99.5938 29.375C99.4271 29.7917 99.3125 30.25 99.25 30.75C99.2083 31.25 99.1667 31.75 99.125 32.25C99.0833 32.75 98.9479 33.1979 98.7188 33.5938L99.4062 33.125C99.4896 33.1667 99.5521 33.2292 99.5938 33.3125C99.6562 33.3958 99.6667 33.4896 99.625 33.5938C99.7917 33.4271 99.9792 33.3021 100.188 33.2188C100.396 33.1146 100.604 33.0417 100.812 33C101.042 32.9375 101.26 32.8854 101.469 32.8438C101.698 32.8021 101.917 32.7396 102.125 32.6562C102.646 32.9479 103.021 33.0104 103.25 32.8438C103.479 32.6771 103.667 32.4271 103.812 32.0938C103.958 31.7604 104.115 31.4167 104.281 31.0625C104.448 30.6875 104.719 30.4583 105.094 30.375L104.875 30.1562C105.229 29.7188 105.542 29.2708 105.812 28.8125C106.104 28.3333 106.24 27.8021 106.219 27.2188ZM138.031 22C137.948 22.4375 137.771 22.8438 137.5 23.2188C137.25 23.5938 136.938 23.9271 136.562 24.2188C136.208 24.5104 135.823 24.7604 135.406 24.9688C134.99 25.1562 134.573 25.2917 134.156 25.375C133.531 25.6458 132.948 25.8542 132.406 26C131.885 26.125 131.354 26.2083 130.812 26.25C130.271 26.2917 129.708 26.3021 129.125 26.2812C128.542 26.2604 127.885 26.2292 127.156 26.1875C126.969 26.25 126.833 26.3542 126.75 26.5C126.688 26.6458 126.646 26.8021 126.625 26.9688C126.625 27.1354 126.635 27.3125 126.656 27.5C126.677 27.6667 126.677 27.8229 126.656 27.9688C126.469 27.9479 126.312 28.0104 126.188 28.1562C126.083 28.3021 125.979 28.4271 125.875 28.5312C125.896 28.9688 125.833 29.3021 125.688 29.5312C125.542 29.7396 125.365 29.9271 125.156 30.0938C124.969 30.2396 124.75 30.4062 124.5 30.5938C124.271 30.7604 124.073 31.0104 123.906 31.3438C123.823 31.4688 123.771 31.5938 123.75 31.7188C123.729 31.8229 123.698 31.9583 123.656 32.125C123.594 32.4167 123.448 32.5938 123.219 32.6562C123.01 32.7188 122.792 32.7708 122.562 32.8125C122.333 32.8333 122.125 32.8958 121.938 33C121.75 33.0833 121.646 33.3021 121.625 33.6562C121.167 33.7812 120.719 33.9792 120.281 34.25C119.844 34.5417 119.406 34.8229 118.969 35.0938C118.531 35.3646 118.083 35.5625 117.625 35.6875C117.188 35.8333 116.719 35.8229 116.219 35.6562C116.115 35.6146 115.969 35.5521 115.781 35.4688C115.615 35.3854 115.49 35.3021 115.406 35.2188C115.365 35.1771 115.302 35.0938 115.219 34.9688C115.156 34.8646 115.104 34.7917 115.062 34.75C114.854 34.4167 114.698 34.0521 114.594 33.6562C114.49 33.2604 114.417 32.8646 114.375 32.4688C114.333 32.0521 114.323 31.6354 114.344 31.2188C114.344 30.8021 114.344 30.4062 114.344 30.0312C114.448 30.0729 114.552 30.0625 114.656 30C114.74 29.9167 114.812 29.8438 114.875 29.7812L114.594 29C114.719 29.0417 114.823 29.0312 114.906 28.9688C114.99 28.9062 115.062 28.8333 115.125 28.75C114.812 28.5833 114.656 28.4167 114.656 28.25C114.635 28.0625 114.677 27.875 114.781 27.6875C114.885 27.4792 115.01 27.2708 115.156 27.0625C115.323 26.8542 115.406 26.6354 115.406 26.4062C115.427 25.9062 115.479 25.4375 115.562 25C115.667 24.5417 115.781 24.0938 115.906 23.6562C116.031 23.2188 116.167 22.7812 116.312 22.3438C116.458 21.9062 116.583 21.4479 116.688 20.9688C117.042 20.9271 117.365 20.7708 117.656 20.5C117.948 20.2083 118.24 19.9375 118.531 19.6875C118.823 19.4375 119.125 19.2812 119.438 19.2188C119.771 19.1562 120.146 19.3125 120.562 19.6875C120.646 20.1875 120.604 20.6458 120.438 21.0625C120.292 21.4792 120.115 21.8854 119.906 22.2812C119.698 22.6771 119.51 23.0833 119.344 23.5C119.198 23.9167 119.177 24.375 119.281 24.875C118.49 25.2292 117.969 25.7396 117.719 26.4062C117.49 27.0729 117.333 27.7917 117.25 28.5625C117.229 28.7917 117.198 29.0417 117.156 29.3125C117.115 29.5625 117.042 29.8021 116.938 30.0312C117.062 30.3229 117.083 30.6146 117 30.9062C116.917 31.1771 116.833 31.4479 116.75 31.7188C116.688 31.9896 116.667 32.2396 116.688 32.4688C116.708 32.6979 116.875 32.9167 117.188 33.125C118.562 32.7292 119.74 32.1458 120.719 31.375C121.698 30.6042 122.594 29.6458 123.406 28.5C123.865 27.8542 124.281 27.2188 124.656 26.5938C125.052 25.9479 125.375 25.2917 125.625 24.625C125.875 23.9583 126.042 23.2604 126.125 22.5312C126.208 21.8021 126.167 21.0312 126 20.2188C126.208 20.1979 126.396 20.0938 126.562 19.9062C126.729 19.7188 126.896 19.5625 127.062 19.4375C127.229 19.2917 127.396 19.2188 127.562 19.2188C127.729 19.2188 127.906 19.375 128.094 19.6875C128.406 19.8333 128.562 20.0104 128.562 20.2188C128.583 20.4062 128.552 20.6042 128.469 20.8125C128.406 21.0208 128.354 21.2292 128.312 21.4375C128.271 21.6458 128.365 21.8438 128.594 22.0312C128.531 22.0729 128.458 22.1667 128.375 22.3125C128.292 22.4375 128.219 22.5938 128.156 22.7812C128.094 22.9479 128.042 23.1146 128 23.2812C127.958 23.4271 127.948 23.5312 127.969 23.5938C128.156 23.9271 128.365 24.1042 128.594 24.125C128.823 24.125 129.062 24.0833 129.312 24C129.562 23.9167 129.812 23.8646 130.062 23.8438C130.333 23.8021 130.583 23.8958 130.812 24.125C131.333 24.0625 131.802 24 132.219 23.9375C132.635 23.8542 133.031 23.7708 133.406 23.6875C133.802 23.6042 134.198 23.5104 134.594 23.4062C135.01 23.2812 135.479 23.1562 136 23.0312C136.271 22.6979 136.573 22.4688 136.906 22.3438C137.26 22.2188 137.635 22.1042 138.031 22ZM156.406 24.4375C156.219 24.625 156.073 24.7708 155.969 24.875C155.885 24.9792 155.802 25.0833 155.719 25.1875C155.656 25.2708 155.573 25.3646 155.469 25.4688C155.385 25.5729 155.25 25.7292 155.062 25.9375C154.896 26.1042 154.74 26.2812 154.594 26.4688C154.448 26.6562 154.281 26.8229 154.094 26.9688C153.844 26.9062 153.646 26.9375 153.5 27.0625C153.375 27.1875 153.25 27.3333 153.125 27.5C153.021 27.6458 152.917 27.7917 152.812 27.9375C152.729 28.0625 152.615 28.1146 152.469 28.0938C151.969 28.3646 151.469 28.6042 150.969 28.8125C150.469 29 149.99 29.2812 149.531 29.6562L149.281 29.4062L146.031 30.9688C145.927 31.0104 145.823 31.0729 145.719 31.1562C145.615 31.2396 145.51 31.3125 145.406 31.375C144.948 31.625 144.469 31.8542 143.969 32.0625C143.49 32.25 143.01 32.4271 142.531 32.5938L142.125 32.7188C142.292 33.1354 142.292 33.4271 142.125 33.5938C141.958 33.7604 141.719 33.8854 141.406 33.9688C141.094 34.0312 140.75 34.0729 140.375 34.0938C140 34.1146 139.708 34.1875 139.5 34.3125C139.25 34.2708 138.99 34.25 138.719 34.25C138.469 34.2708 138.208 34.3021 137.938 34.3438C137.646 34.3854 137.375 34.4062 137.125 34.4062C136.875 34.4062 136.604 34.375 136.312 34.3125H136.25C135.896 34.4792 135.583 34.5104 135.312 34.4062C135.062 34.3229 134.833 34.1771 134.625 33.9688C134.417 33.7396 134.219 33.4792 134.031 33.1875C133.865 32.875 133.688 32.5938 133.5 32.3438C133.375 32.1771 133.219 31.9375 133.031 31.625C132.844 31.3125 132.688 30.9792 132.562 30.625C132.417 30.2708 132.333 29.9167 132.312 29.5625C132.271 29.1875 132.344 28.8646 132.531 28.5938C132.719 28.3229 132.875 28.0312 133 27.7188C133.104 27.4062 133.156 27.0417 133.156 26.625C133.156 26.4792 133.156 26.3438 133.156 26.2188C133.135 26.0938 133.125 25.9583 133.125 25.8125C133.229 25.8125 133.344 25.8229 133.469 25.8438C133.594 25.8438 133.708 25.8438 133.812 25.8438C133.938 25.8229 134.031 25.7812 134.094 25.7188C134.177 25.6354 134.219 25.5 134.219 25.3125C134.219 25.2083 134.177 25.125 134.094 25.0625C134.031 25 133.99 24.9375 133.969 24.875C134.094 24.6875 134.208 24.5417 134.312 24.4375C134.438 24.3125 134.542 24.1979 134.625 24.0938C134.708 23.9688 134.771 23.8333 134.812 23.6875C134.854 23.5208 134.844 23.3021 134.781 23.0312C135.031 22.5938 135.323 22.2083 135.656 21.875C136.01 21.5208 136.375 21.1979 136.75 20.9062C137.125 20.5938 137.51 20.2917 137.906 20C138.302 19.7083 138.677 19.3958 139.031 19.0625C139.427 19.2292 139.74 19.2292 139.969 19.0625C140.219 18.8958 140.438 18.7188 140.625 18.5312C140.812 18.3229 141 18.1562 141.188 18.0312C141.375 17.9062 141.625 17.9583 141.938 18.1875L142 18.25C142.562 17.6875 143.125 17.4375 143.688 17.5C144.271 17.5625 144.76 17.75 145.156 18.0625C145.573 18.375 145.844 18.7396 145.969 19.1562C146.094 19.5521 145.979 19.8229 145.625 19.9688C145.854 20.1979 145.969 20.4688 145.969 20.7812C145.969 21.0938 145.885 21.3646 145.719 21.5938C145.531 21.8438 145.365 22.1042 145.219 22.375C145.094 22.625 144.958 22.8958 144.812 23.1875C144.604 23.6667 144.375 24.125 144.125 24.5625C143.875 24.9792 143.521 25.3333 143.062 25.625C142.688 25.5208 142.427 25.5625 142.281 25.75C142.156 25.9375 142.062 26.1458 142 26.375C141.938 26.5833 141.865 26.75 141.781 26.875C141.698 27 141.521 26.9583 141.25 26.75L141.188 26.6875L141.125 26.75C140.958 26.9167 140.823 27.1042 140.719 27.3125C140.635 27.5208 140.51 27.6771 140.344 27.7812C140.156 27.7188 139.958 27.6667 139.75 27.625C139.542 27.5833 139.344 27.5417 139.156 27.5C139.156 27.9375 139.073 28.2812 138.906 28.5312C138.74 28.7812 138.521 28.9896 138.25 29.1562C138 29.3021 137.708 29.4271 137.375 29.5312C137.042 29.6146 136.708 29.7292 136.375 29.875C136.062 30 135.76 30.1667 135.469 30.375C135.198 30.5625 134.979 30.8333 134.812 31.1875C135.021 31.4167 135.281 31.5521 135.594 31.5938C135.906 31.6146 136.229 31.6146 136.562 31.5938C136.896 31.5521 137.219 31.5312 137.531 31.5312C137.865 31.5312 138.156 31.6146 138.406 31.7812L138.438 31.8125L138.469 31.7812C138.969 31.7188 139.448 31.6042 139.906 31.4375C140.385 31.25 140.844 31.0625 141.281 30.875C141.74 30.6667 142.198 30.4792 142.656 30.3125C143.135 30.125 143.625 29.9896 144.125 29.9062C144.229 30.0729 144.365 30.1667 144.531 30.1875C144.719 30.2083 144.896 30.1979 145.062 30.1562L145.094 30.0938C145.135 29.9479 145.177 29.8229 145.219 29.7188C145.26 29.5938 145.323 29.4583 145.406 29.3125C145.552 29.0833 145.729 28.9062 145.938 28.7812C146.146 28.6562 146.365 28.5625 146.594 28.5C146.844 28.4375 147.104 28.3958 147.375 28.375C147.646 28.3542 147.917 28.3229 148.188 28.2812H148.25L148.281 28.1875C148.365 27.9375 148.469 27.7708 148.594 27.6875C148.74 27.5833 148.885 27.5104 149.031 27.4688C149.198 27.4271 149.365 27.3958 149.531 27.375C149.719 27.3542 149.896 27.2917 150.062 27.1875C150.438 27.3125 150.75 27.2708 151 27.0625C151.25 26.8542 151.49 26.6354 151.719 26.4062L151.969 26.7188L152.062 26.5938C152.375 26.3021 152.604 26.0833 152.75 25.9375C152.917 25.7917 153.073 25.6667 153.219 25.5625C153.365 25.4375 153.531 25.3229 153.719 25.2188C153.927 25.0938 154.208 24.9167 154.562 24.6875C154.854 24.5 155.135 24.3125 155.406 24.125C155.698 23.9375 155.979 23.7292 156.25 23.5C156.354 23.5417 156.406 23.625 156.406 23.75C156.406 23.8542 156.406 23.9583 156.406 24.0625C156.385 24.1042 156.365 24.1667 156.344 24.25C156.344 24.3333 156.365 24.3958 156.406 24.4375ZM143.469 20.5312C143.448 20.5104 143.427 20.5 143.406 20.5C143.406 20.5 143.396 20.4896 143.375 20.4688C142.938 20.2396 142.573 20.1354 142.281 20.1562C141.99 20.1562 141.719 20.2396 141.469 20.4062C141.24 20.5521 141.021 20.75 140.812 21C140.625 21.2292 140.417 21.4479 140.188 21.6562C139.979 21.8438 139.729 21.9896 139.438 22.0938C139.146 22.1979 138.792 22.1875 138.375 22.0625C138.312 22.3958 138.25 22.7292 138.188 23.0625C138.146 23.375 138.115 23.6979 138.094 24.0312C137.74 24.1562 137.458 24.3333 137.25 24.5625C137.062 24.7917 136.896 25.0417 136.75 25.3125C136.625 25.5833 136.5 25.875 136.375 26.1875C136.271 26.4792 136.125 26.7604 135.938 27.0312L136.062 27.1875C136.146 27.1458 136.24 27.1771 136.344 27.2812C136.448 27.3854 136.521 27.4583 136.562 27.5C136.792 27.1667 137.094 26.8854 137.469 26.6562C137.865 26.4271 138.26 26.2188 138.656 26.0312C139.073 25.8229 139.469 25.6042 139.844 25.375C140.219 25.1458 140.5 24.8438 140.688 24.4688C141.354 24.2812 141.854 23.9062 142.188 23.3438C142.521 22.7812 142.802 22.1979 143.031 21.5938C143.073 21.4688 143.146 21.2917 143.25 21.0625C143.375 20.8125 143.448 20.6354 143.469 20.5312ZM174.469 27.8125C173.99 28.0417 173.667 28.3229 173.5 28.6562C173.333 28.9896 173.198 29.3333 173.094 29.6875C173.01 30.0417 172.896 30.3854 172.75 30.7188C172.625 31.0312 172.344 31.2917 171.906 31.5C171.802 31.875 171.594 32.1354 171.281 32.2812C170.99 32.4271 170.677 32.5625 170.344 32.6875C170.01 32.7917 169.708 32.9375 169.438 33.125C169.188 33.3125 169.062 33.6354 169.062 34.0938C168.646 34.3229 168.188 34.5312 167.688 34.7188C167.208 34.9062 166.698 35.0417 166.156 35.125C165.635 35.2292 165.115 35.2708 164.594 35.25C164.073 35.2292 163.583 35.125 163.125 34.9375C162.812 34.7917 162.51 34.6042 162.219 34.375C162.115 34.2917 162.01 34.2188 161.906 34.1562C161.823 34.1146 161.729 34.0417 161.625 33.9375C161.375 33.6875 161.167 33.3958 161 33.0625C160.833 32.7292 160.698 32.375 160.594 32C160.49 31.625 160.406 31.25 160.344 30.875C160.281 30.5 160.229 30.1458 160.188 29.8125L161.344 26.6875C160.74 26.2083 160.25 25.6562 159.875 25.0312C159.5 24.3854 159.042 23.7917 158.5 23.25C158.396 23.3958 158.26 23.5208 158.094 23.625C157.927 23.7292 157.865 23.8958 157.906 24.125L158.219 24.4062C157.531 25.1562 156.833 26.0104 156.125 26.9688C155.438 27.9062 154.896 28.8542 154.5 29.8125C154.042 29.7917 153.719 29.9062 153.531 30.1562C153.344 30.3854 153.188 30.6562 153.062 30.9688C152.938 31.2604 152.781 31.5312 152.594 31.7812C152.406 32.0312 152.094 32.1354 151.656 32.0938C151.552 32.3229 151.448 32.5729 151.344 32.8438C151.24 33.0938 151.115 33.3333 150.969 33.5625C150.823 33.7917 150.646 33.9792 150.438 34.125C150.229 34.2917 149.969 34.375 149.656 34.375C149.49 34.2083 149.396 34.0312 149.375 33.8438C149.354 33.6562 149.375 33.4688 149.438 33.2812C149.5 33.0729 149.583 32.875 149.688 32.6875C149.792 32.4792 149.865 32.2812 149.906 32.0938C150.073 31.4896 150.375 30.9479 150.812 30.4688C151.25 29.9688 151.688 29.4792 152.125 29C152.562 28.5 152.938 27.9792 153.25 27.4375C153.562 26.8958 153.688 26.2604 153.625 25.5312C153.896 25.5104 154.167 25.4583 154.438 25.375C154.729 25.2708 154.99 25.1458 155.219 25C155.469 24.8333 155.656 24.6354 155.781 24.4062C155.927 24.1562 155.979 23.8646 155.938 23.5312C155.771 23.4479 155.677 23.3333 155.656 23.1875C155.635 23.0208 155.635 22.8542 155.656 22.6875C156.115 22.5417 156.479 22.2917 156.75 21.9375C157.042 21.5625 157.302 21.1667 157.531 20.75C157.76 20.3333 157.979 19.9167 158.188 19.5C158.417 19.0625 158.708 18.6875 159.062 18.375C159.354 18.5417 159.646 18.6875 159.938 18.8125C160.229 18.9167 160.51 19.0625 160.781 19.25C160.594 19.5 160.479 19.7396 160.438 19.9688C160.396 20.1979 160.375 20.4375 160.375 20.6875C160.375 20.9167 160.375 21.1458 160.375 21.375C160.375 21.6042 160.312 21.8438 160.188 22.0938C160.521 22.3854 160.802 22.7292 161.031 23.125C161.26 23.5208 161.552 23.8542 161.906 24.125C162.156 23.9375 162.438 23.8438 162.75 23.8438C163.062 23.8229 163.375 23.8229 163.688 23.8438C164.021 23.8438 164.333 23.8229 164.625 23.7812C164.917 23.7188 165.156 23.5417 165.344 23.25C165.427 23.3333 165.552 23.375 165.719 23.375C165.885 23.375 166.052 23.375 166.219 23.375C166.385 23.375 166.531 23.4062 166.656 23.4688C166.781 23.5104 166.854 23.6042 166.875 23.75C166.896 23.9167 166.885 24.0312 166.844 24.0938C166.823 24.1562 166.792 24.2604 166.75 24.4062C166.708 24.5729 166.698 24.6562 166.719 24.6562C166.74 24.6562 166.719 24.7292 166.656 24.875C166.552 25.1458 166.375 25.375 166.125 25.5625C165.896 25.75 165.656 25.9375 165.406 26.125C165.177 26.2917 164.958 26.4896 164.75 26.7188C164.562 26.9271 164.469 27.1979 164.469 27.5312C164.01 27.6979 163.688 27.9479 163.5 28.2812C163.312 28.5938 163.188 28.9583 163.125 29.375C163.062 29.7708 163.021 30.1875 163 30.625C162.979 31.0417 162.906 31.4271 162.781 31.7812L163.062 32.0938L163.312 31.7812C163.604 32.1979 163.948 32.4583 164.344 32.5625C164.76 32.6667 165.188 32.6979 165.625 32.6562C165.833 32.3438 166.073 32.0938 166.344 31.9062C166.635 31.7188 166.938 31.5625 167.25 31.4375C167.583 31.3125 167.917 31.1979 168.25 31.0938C168.604 30.9896 168.938 30.8646 169.25 30.7188C169.5 30.5938 169.708 30.4583 169.875 30.3125C170.062 30.1667 170.26 30 170.469 29.8125C171.094 29.2292 171.708 28.6562 172.312 28.0938C172.938 27.5312 173.562 26.9583 174.188 26.375C174.312 26.375 174.396 26.4375 174.438 26.5625C174.479 26.6875 174.5 26.8333 174.5 27C174.5 27.1458 174.49 27.3021 174.469 27.4688C174.469 27.6146 174.469 27.7292 174.469 27.8125Z" fill="white"/>
<defs>
<linearGradient id="paint0_linear_19_81" x1="6" y1="22.5" x2="178" y2="22.5" gradientUnits="userSpaceOnUse">
<stop stop-color="#D1B897"/>
<stop offset="1" stop-color="#FF970B"/>
</linearGradient>
</defs>
</svg>
