<svg width="172" height="52" viewBox="0 0 172 52" fill="none" xmlns="http://www.w3.org/2000/svg">
<rect width="172" height="45" rx="10" fill="url(#paint0_linear_19_81)"/>
<path d="M49.1016 22.5859C49.1016 22.8984 48.9297 23.2578 48.5859 23.6641C48.2578 24.0547 47.8359 24.4688 47.3203 24.9062C46.8047 25.3281 46.2266 25.7578 45.5859 26.1953C44.9609 26.6172 44.3359 27.0156 43.7109 27.3906C43.1016 27.7656 42.5312 28.1016 42 28.3984C41.4844 28.6797 41.0781 28.8984 40.7812 29.0547C40.4531 29.2266 40.1172 29.3828 39.7734 29.5234C39.4297 29.6641 39.1016 29.8281 38.7891 30.0156C38.6328 30.0938 38.4922 30.1875 38.3672 30.2969C38.2422 30.3906 38.1172 30.4844 37.9922 30.5781C37.7266 30.7656 37.4766 30.8828 37.2422 30.9297C37.0078 30.9766 36.7969 31.0312 36.6094 31.0938C36.4375 31.1562 36.3047 31.2656 36.2109 31.4219C36.1172 31.5938 36.0703 31.875 36.0703 32.2656C35.6641 32.2656 35.2656 32.2266 34.875 32.1484C34.4844 32.0859 34.0938 32.0547 33.7031 32.0547C33.4531 32.0547 33.2109 32.0859 32.9766 32.1484C32.7578 32.2266 32.5312 32.3047 32.2969 32.3828C32.0781 32.4609 31.8516 32.5312 31.6172 32.5938C31.3984 32.6719 31.1641 32.7109 30.9141 32.7109H29.8594C29.75 32.5547 29.6328 32.4297 29.5078 32.3359C29.3828 32.2422 29.25 32.1562 29.1094 32.0781C28.9844 32.0156 28.8516 31.9531 28.7109 31.8906C28.5859 31.8281 28.4609 31.7422 28.3359 31.6328C28.1641 31.4609 27.9844 31.2578 27.7969 31.0234C27.6094 30.7891 27.4297 30.5625 27.2578 30.3438C26.9453 29.9688 26.6875 29.5469 26.4844 29.0781C26.2656 28.6094 26.0938 28.125 25.9688 27.625C25.8281 27.1094 25.7266 26.5938 25.6641 26.0781C25.6016 25.5469 25.5703 25.0469 25.5703 24.5781C25.5703 24.4688 25.6172 24.2656 25.7109 23.9688C25.7891 23.6562 25.8906 23.3281 26.0156 22.9844C26.125 22.6406 26.2422 22.3125 26.3672 22C26.4922 21.6875 26.5859 21.4688 26.6484 21.3438C26.6484 21.2969 26.7109 21.1797 26.8359 20.9922C26.9453 20.7891 27.0859 20.5547 27.2578 20.2891C27.4297 20.0234 27.6172 19.7344 27.8203 19.4219C28.0234 19.0938 28.2188 18.7891 28.4062 18.5078C28.5938 18.2266 28.7578 17.9766 28.8984 17.7578C29.0391 17.5234 29.1406 17.3594 29.2031 17.2656C29.2969 17.125 29.4609 16.8906 29.6953 16.5625C29.9453 16.2344 30.2344 15.8672 30.5625 15.4609C30.8906 15.0547 31.2422 14.6406 31.6172 14.2188C31.9922 13.7969 32.3516 13.4219 32.6953 13.0938C33.0547 12.75 33.375 12.4922 33.6562 12.3203C33.9531 12.1328 34.1797 12.0703 34.3359 12.1328C34.9922 11.2578 35.8203 10.6172 36.8203 10.2109C37.8203 9.78906 38.8516 9.57812 39.9141 9.57812C40.2734 9.57812 40.6328 9.5625 40.9922 9.53125C41.3672 9.48438 41.7266 9.57031 42.0703 9.78906C42.2266 10.0703 42.3906 10.4453 42.5625 10.9141C42.75 11.3828 42.9141 11.8828 43.0547 12.4141C43.2109 12.9297 43.3359 13.4375 43.4297 13.9375C43.5234 14.4219 43.5703 14.8203 43.5703 15.1328C43.5703 15.5078 43.4844 15.8594 43.3125 16.1875C43.1562 16.5156 42.9609 16.8359 42.7266 17.1484C42.4922 17.4609 42.25 17.7734 42 18.0859C41.7656 18.3828 41.5703 18.6875 41.4141 19C41.2891 19.25 41.1328 19.6016 40.9453 20.0547C40.7734 20.5078 40.5703 20.9609 40.3359 21.4141C40.1016 21.8516 39.8438 22.2344 39.5625 22.5625C39.2812 22.8906 38.9766 23.0547 38.6484 23.0547C38.4766 23.0547 38.2891 22.9531 38.0859 22.75C37.8828 22.5469 37.7812 22.3594 37.7812 22.1875C37.7812 21.5469 37.8828 20.9375 38.0859 20.3594C38.2891 19.7812 38.5391 19.2266 38.8359 18.6953C39.1328 18.1484 39.4609 17.6172 39.8203 17.1016C40.1797 16.5703 40.5078 16.0391 40.8047 15.5078C41.1016 14.9766 41.3516 14.4375 41.5547 13.8906C41.7578 13.3281 41.8594 12.7422 41.8594 12.1328C41.8594 11.9141 41.8359 11.6797 41.7891 11.4297C41.7578 11.1641 41.6328 10.9688 41.4141 10.8438H40.3359C39.9297 10.8438 39.5 10.875 39.0469 10.9375C38.5938 10.9844 38.2109 11.1641 37.8984 11.4766C37.7734 11.6016 37.6484 11.7422 37.5234 11.8984C37.4141 12.0391 37.2969 12.1719 37.1719 12.2969C37.1406 12.3281 37.0938 12.3828 37.0312 12.4609C36.9688 12.5234 36.8984 12.5938 36.8203 12.6719C36.7578 12.75 36.6875 12.8203 36.6094 12.8828C36.5469 12.9453 36.5 12.9844 36.4688 13C36.4062 13.0312 36.3359 13.0625 36.2578 13.0938C36.1953 13.125 36.1328 13.1562 36.0703 13.1875C35.9453 13.25 35.8203 13.3125 35.6953 13.375C35.5703 13.4219 35.4453 13.4844 35.3203 13.5625C34.9922 13.7812 34.6953 14.0391 34.4297 14.3359C34.1797 14.6328 33.9297 14.9375 33.6797 15.25C33.4453 15.5625 33.1953 15.8594 32.9297 16.1406C32.6641 16.4219 32.3516 16.6562 31.9922 16.8438C31.5859 17.5156 31.1328 18.2266 30.6328 18.9766C30.1484 19.7109 29.6875 20.4688 29.25 21.25C28.8125 22.0312 28.4453 22.8281 28.1484 23.6406C27.8516 24.4531 27.7031 25.2578 27.7031 26.0547C27.7031 26.3828 27.7344 26.7656 27.7969 27.2031C27.8594 27.625 27.9688 28.0391 28.125 28.4453C28.2812 28.8516 28.4766 29.2109 28.7109 29.5234C28.9609 29.8359 29.2734 30.0391 29.6484 30.1328C29.7578 30.1641 29.8672 30.1797 29.9766 30.1797C30.1016 30.1641 30.2188 30.1562 30.3281 30.1562C30.4375 30.1562 30.5391 30.1641 30.6328 30.1797C30.7422 30.1953 30.8359 30.25 30.9141 30.3438H32.2031C32.5 30.3438 32.7734 30.3203 33.0234 30.2734C33.2734 30.2266 33.5156 30.1641 33.75 30.0859C33.9844 29.9922 34.2188 29.8984 34.4531 29.8047C34.6875 29.6953 34.9375 29.5859 35.2031 29.4766C35.3594 29.4297 35.5 29.3828 35.625 29.3359C35.75 29.2891 35.8828 29.2422 36.0234 29.1953C36.3672 29.1016 36.7031 29.0234 37.0312 28.9609C37.3594 28.8984 37.6797 28.7891 37.9922 28.6328C38.3672 28.4453 38.7188 28.2344 39.0469 28C39.3906 27.7656 39.75 27.5469 40.125 27.3438C40.2344 27.2969 40.3672 27.2656 40.5234 27.25C40.6953 27.2344 40.8672 27.2266 41.0391 27.2266C41.2109 27.2109 41.3672 27.1953 41.5078 27.1797C41.6641 27.1641 41.7734 27.125 41.8359 27.0625C41.9766 26.9219 42.1094 26.7812 42.2344 26.6406C42.375 26.4844 42.5234 26.3359 42.6797 26.1953C42.9453 26.1484 43.1953 26.0469 43.4297 25.8906C43.6641 25.7344 43.9141 25.6328 44.1797 25.5859C44.2578 25.5547 44.3281 25.5234 44.3906 25.4922C44.4688 25.4453 44.5469 25.3984 44.625 25.3516C44.8438 25.2266 45.0547 25.0938 45.2578 24.9531C45.4609 24.8125 45.6641 24.6797 45.8672 24.5547C46.8672 23.8828 47.875 23.2266 48.8906 22.5859H49.1016ZM60.8203 28.2109C60.4922 28.9141 60.1797 29.4688 59.8828 29.875C59.5859 30.2812 59.25 30.625 58.875 30.9062C58.5156 31.1719 58.0781 31.4219 57.5625 31.6562C57.0469 31.8906 56.3984 32.1875 55.6172 32.5469C55.3047 32.4688 55 32.4453 54.7031 32.4766C54.4062 32.5234 54.1172 32.5547 53.8359 32.5703C53.5703 32.5859 53.3125 32.5547 53.0625 32.4766C52.8125 32.4141 52.5859 32.2266 52.3828 31.9141H52.0312C52.0469 31.7109 52.0234 31.4922 51.9609 31.2578C51.9141 31.0391 51.7656 30.9141 51.5156 30.8828C51.6719 30.7109 51.7734 30.5234 51.8203 30.3203C51.8672 30.1016 51.8984 29.8828 51.9141 29.6641C51.9453 29.4453 51.9844 29.2344 52.0312 29.0312C52.0781 28.8281 52.1953 28.6562 52.3828 28.5156C52.1953 28.2656 52.1172 28.0156 52.1484 27.7656C52.1953 27.5 52.2812 27.2422 52.4062 26.9922C52.5469 26.7266 52.6875 26.4688 52.8281 26.2188C52.9844 25.9531 53.0625 25.6875 53.0625 25.4219C52.9219 25.3281 52.7891 25.2031 52.6641 25.0469C52.5547 24.875 52.3984 24.8281 52.1953 24.9062C51.7734 25.3125 51.3516 25.7031 50.9297 26.0781C50.5078 26.4375 50.0938 26.8125 49.6875 27.2031C49.2969 27.5938 48.9219 28.0078 48.5625 28.4453C48.2188 28.8672 47.8984 29.3359 47.6016 29.8516C47.3359 29.8984 47.1328 30.0234 46.9922 30.2266C46.8516 30.4297 46.7266 30.6484 46.6172 30.8828C46.5078 31.1016 46.3828 31.3125 46.2422 31.5156C46.1172 31.7188 45.9375 31.8516 45.7031 31.9141C45.625 32.1641 45.5469 32.4141 45.4688 32.6641C45.375 32.9297 45.2891 33.1875 45.2109 33.4375C45.1172 33.3906 45 33.3516 44.8594 33.3203C44.7031 33.2891 44.5547 33.25 44.4141 33.2031C44.2734 33.1562 44.1484 33.0938 44.0391 33.0156C43.9297 32.9531 43.8594 32.8672 43.8281 32.7578C43.8125 32.7266 43.8125 32.6562 43.8281 32.5469C43.8281 32.4531 43.8281 32.3906 43.8281 32.3594C43.8594 31.9219 43.9766 31.5078 44.1797 31.1172C44.3672 30.7422 44.5703 30.375 44.7891 30.0156C45.0078 29.6406 45.2109 29.2656 45.3984 28.8906C45.5859 28.5156 45.6875 28.1016 45.7031 27.6484C45.9375 27.6484 46.0859 27.5781 46.1484 27.4375C46.2266 27.2969 46.2812 27.1484 46.3125 26.9922C46.3594 26.8359 46.4141 26.6953 46.4766 26.5703C46.5391 26.4453 46.6797 26.3984 46.8984 26.4297C46.7578 26.2422 46.6953 26.0391 46.7109 25.8203C46.7422 25.5859 46.8047 25.3594 46.8984 25.1406C46.9922 24.9062 47.1094 24.6875 47.25 24.4844C47.3906 24.2656 47.5078 24.0703 47.6016 23.8984C47.5859 23.6797 47.6016 23.4609 47.6484 23.2422C47.7109 23.0234 47.8125 22.8281 47.9531 22.6562C48.0938 22.4844 48.2188 22.3203 48.3281 22.1641C48.4375 22.0078 48.5469 21.8438 48.6562 21.6719C48.7188 21.5938 48.7656 21.5078 48.7969 21.4141C48.8438 21.3203 48.8906 21.2344 48.9375 21.1562C49.0781 20.9531 49.1719 20.7422 49.2188 20.5234C49.2656 20.2891 49.3125 20.0625 49.3594 19.8438C49.4219 19.6094 49.5 19.4062 49.5938 19.2344C49.7031 19.0469 49.8906 18.8984 50.1562 18.7891C50.1562 18.6172 50.1797 18.4609 50.2266 18.3203C50.2891 18.1641 50.3516 18.0078 50.4141 17.8516C50.4766 17.6953 50.5312 17.5469 50.5781 17.4062C50.6406 17.25 50.6719 17.0859 50.6719 16.9141C50.7188 16.8359 50.7891 16.7578 50.8828 16.6797C50.9766 16.6016 51.0625 16.5234 51.1406 16.4453C51.2188 16.3672 51.2812 16.2891 51.3281 16.2109C51.375 16.1172 51.3828 16.0078 51.3516 15.8828C51.3672 15.6797 51.3594 15.4688 51.3281 15.25C51.3125 15.0312 51.375 14.8438 51.5156 14.6875C51.4844 14.4844 51.5078 14.3203 51.5859 14.1953C51.6797 14.0703 51.7891 13.9609 51.9141 13.8672C52.0391 13.7734 52.1719 13.6875 52.3125 13.6094C52.4688 13.5156 52.6016 13.4141 52.7109 13.3047C52.6328 13.1953 52.6172 13.0703 52.6641 12.9297C52.7109 12.7891 52.7734 12.6562 52.8516 12.5312C52.9453 12.3906 53.0469 12.2578 53.1562 12.1328C53.2656 12.0078 53.3438 11.8984 53.3906 11.8047C53.4844 11.6172 53.5625 11.4297 53.625 11.2422C53.7031 11.0547 53.7891 10.8828 53.8828 10.7266C53.9766 10.5547 54.0859 10.3984 54.2109 10.2578C54.3516 10.1172 54.5312 10 54.75 9.90625C54.6875 9.59375 54.7031 9.35156 54.7969 9.17969C54.9062 9.00781 55.0469 8.85938 55.2188 8.73438C55.4062 8.60938 55.6016 8.49219 55.8047 8.38281C56.0078 8.25781 56.1719 8.08594 56.2969 7.86719C56.4688 7.82031 56.6562 7.77344 56.8594 7.72656C57.0625 7.66406 57.2656 7.625 57.4688 7.60938C57.6719 7.57812 57.8672 7.57812 58.0547 7.60938C58.2422 7.64063 58.4141 7.72656 58.5703 7.86719C58.6328 7.92969 58.6719 7.96875 58.6875 7.98438C58.7031 8 58.7109 8.01562 58.7109 8.03125C58.7109 8.03125 58.7109 8.04688 58.7109 8.07812C58.7266 8.09375 58.7656 8.13281 58.8281 8.19531C58.8906 8.25781 58.9531 8.32031 59.0156 8.38281C59.0781 8.42969 59.1406 8.49219 59.2031 8.57031C59.2188 8.67969 59.2188 8.80469 59.2031 8.94531C59.1875 9.07031 59.1797 9.19531 59.1797 9.32031C59.1797 9.44531 59.1953 9.5625 59.2266 9.67188C59.2734 9.78125 59.375 9.85938 59.5312 9.90625C59.4062 10.3594 59.3516 10.8438 59.3672 11.3594C59.3828 11.875 59.3906 12.3984 59.3906 12.9297C59.3906 13.4453 59.3516 13.9453 59.2734 14.4297C59.1953 14.9141 58.9922 15.3438 58.6641 15.7188L58.5 16.9141C58.2969 16.9297 58.1562 17 58.0781 17.125C58 17.2344 57.9453 17.3672 57.9141 17.5234C57.8828 17.6797 57.8516 17.8438 57.8203 18.0156C57.8047 18.1875 57.75 18.3281 57.6562 18.4375C57.5312 18.5938 57.4062 18.7734 57.2812 18.9766C57.1562 19.1797 57.0234 19.3672 56.8828 19.5391C56.7422 19.7109 56.5781 19.8594 56.3906 19.9844C56.2188 20.0938 56.0156 20.1484 55.7812 20.1484C55.75 20.2422 55.6875 20.3516 55.5938 20.4766C55.5 20.6016 55.3906 20.7266 55.2656 20.8516C55.1562 20.9609 55.0391 21.0625 54.9141 21.1562C54.7891 21.2344 54.6797 21.2891 54.5859 21.3203C54.4609 21.3672 54.3438 21.4062 54.2344 21.4375C54.1406 21.4531 54.0312 21.5 53.9062 21.5781C53.7656 21.6562 53.625 21.7578 53.4844 21.8828C53.3438 22.0078 53.1953 22.1172 53.0391 22.2109C52.8828 22.3047 52.7188 22.375 52.5469 22.4219C52.375 22.4531 52.2031 22.4297 52.0312 22.3516C51.8281 22.6016 51.5938 22.7578 51.3281 22.8203C51.0781 22.8672 50.8281 22.9062 50.5781 22.9375C50.3438 22.9531 50.1172 23.0078 49.8984 23.1016C49.6953 23.1797 49.5391 23.3672 49.4297 23.6641C49.3984 23.6953 49.3672 23.7656 49.3359 23.875C49.3203 23.9688 49.3125 24.0312 49.3125 24.0625C49.3125 24.2344 49.3047 24.4453 49.2891 24.6953C49.2734 24.9453 49.3359 25.1328 49.4766 25.2578C50.0391 24.9922 50.5703 24.6797 51.0703 24.3203C51.5859 23.9453 52.1328 23.6328 52.7109 23.3828L52.875 23.5703C52.9219 23.2266 53.0703 23.0547 53.3203 23.0547C53.5703 23.0391 53.8281 23.0391 54.0938 23.0547H54.2578C54.2891 23.0547 54.3125 23.0547 54.3281 23.0547C54.3594 23.0391 54.3906 23.0312 54.4219 23.0312C54.7188 23.0312 54.9141 23.1484 55.0078 23.3828C55.1016 23.6172 55.1875 23.8438 55.2656 24.0625C55.0938 24.25 54.9531 24.4766 54.8438 24.7422C54.75 24.9922 54.6562 25.2578 54.5625 25.5391C54.4844 25.8203 54.3906 26.1016 54.2812 26.3828C54.1875 26.6484 54.0547 26.8984 53.8828 27.1328C54.0234 27.2109 54.0859 27.2969 54.0703 27.3906C54.0547 27.4844 54.0234 27.5781 53.9766 27.6719C53.9453 27.7656 53.9375 27.8594 53.9531 27.9531C53.9688 28.0312 54.0703 28.0938 54.2578 28.1406C54.1016 28.25 53.9922 28.3828 53.9297 28.5391C53.8828 28.6797 53.8359 28.8359 53.7891 29.0078C53.7578 29.1641 53.7188 29.3203 53.6719 29.4766C53.625 29.6172 53.5312 29.7422 53.3906 29.8516C53.4531 29.9922 53.5 30.1328 53.5312 30.2734C53.5781 30.3984 53.5859 30.5469 53.5547 30.7188C53.7734 31 53.9922 31.1562 54.2109 31.1875C54.4453 31.2188 54.6719 31.2031 54.8906 31.1406C55.1094 31.0781 55.3359 31.0156 55.5703 30.9531C55.8047 30.8906 56.0469 30.9062 56.2969 31C56.7344 30.7031 57.0391 30.5234 57.2109 30.4609C57.3828 30.3984 57.5156 30.3516 57.6094 30.3203C57.7188 30.2891 57.8438 30.2188 57.9844 30.1094C58.125 30 58.3906 29.7578 58.7812 29.3828C59.1719 29.2734 59.5156 29.0938 59.8125 28.8438C60.125 28.5938 60.4609 28.3828 60.8203 28.2109ZM57.3281 9.0625C57.3438 9.25 57.2969 9.39844 57.1875 9.50781C57.0938 9.60156 56.9844 9.69531 56.8594 9.78906C56.7344 9.86719 56.6094 9.95312 56.4844 10.0469C56.375 10.125 56.3125 10.25 56.2969 10.4219C56.0938 10.5156 55.9609 10.6406 55.8984 10.7969C55.8359 10.9531 55.7812 11.1172 55.7344 11.2891C55.7031 11.4453 55.6484 11.6016 55.5703 11.7578C55.4922 11.9141 55.3359 12.0391 55.1016 12.1328L55.2656 12.2969C54.75 12.7656 54.3359 13.3203 54.0234 13.9609C53.7266 14.6016 53.4609 15.2422 53.2266 15.8828C53.0078 16.1172 52.8516 16.3828 52.7578 16.6797C52.6641 16.9609 52.5703 17.25 52.4766 17.5469C52.3984 17.8281 52.2891 18.1016 52.1484 18.3672C52.0234 18.6172 51.8125 18.8125 51.5156 18.9531C51.6719 19.1562 51.7266 19.3438 51.6797 19.5156C51.6484 19.6875 51.5703 19.8516 51.4453 20.0078C51.3203 20.1641 51.1875 20.3203 51.0469 20.4766C50.9219 20.6328 50.8516 20.8047 50.8359 20.9922C51.1328 21.0547 51.4219 21.0469 51.7031 20.9688C52 20.8906 52.2891 20.7812 52.5703 20.6406C52.8516 20.4844 53.1172 20.3125 53.3672 20.125C53.6172 19.9375 53.8594 19.7734 54.0938 19.6328L54.2578 19.7969C54.9609 19.4062 55.5391 18.9375 55.9922 18.3906C56.4609 17.8281 56.9062 17.2188 57.3281 16.5625C57.1875 16.4531 57.125 16.3359 57.1406 16.2109C57.1719 16.1328 57.2109 16.0391 57.2578 15.9297C57.3047 15.8203 57.3438 15.7266 57.375 15.6484C57.5312 15.1797 57.6484 14.7422 57.7266 14.3359C57.9297 13.4922 58.0703 12.6484 58.1484 11.8047C58.2422 10.9453 58.3047 10.0859 58.3359 9.22656L57.3281 9.0625ZM77.2266 23.8281C77.0859 23.9688 76.9766 24.0781 76.8984 24.1562C76.8359 24.2344 76.7734 24.3125 76.7109 24.3906C76.6641 24.4531 76.6016 24.5234 76.5234 24.6016C76.4609 24.6797 76.3594 24.7969 76.2188 24.9531C76.0938 25.0781 75.9766 25.2109 75.8672 25.3516C75.7578 25.4922 75.6328 25.6172 75.4922 25.7266C75.3047 25.6797 75.1562 25.7031 75.0469 25.7969C74.9531 25.8906 74.8594 26 74.7656 26.125C74.6875 26.2344 74.6094 26.3438 74.5312 26.4531C74.4688 26.5469 74.3828 26.5859 74.2734 26.5703C73.8984 26.7734 73.5234 26.9531 73.1484 27.1094C72.7734 27.25 72.4141 27.4609 72.0703 27.7422L71.8828 27.5547L69.4453 28.7266C69.3672 28.7578 69.2891 28.8047 69.2109 28.8672C69.1328 28.9297 69.0547 28.9844 68.9766 29.0312C68.6328 29.2188 68.2734 29.3906 67.8984 29.5469C67.5391 29.6875 67.1797 29.8203 66.8203 29.9453L66.5156 30.0391C66.6406 30.3516 66.6406 30.5703 66.5156 30.6953C66.3906 30.8203 66.2109 30.9141 65.9766 30.9766C65.7422 31.0234 65.4844 31.0547 65.2031 31.0703C64.9219 31.0859 64.7031 31.1406 64.5469 31.2344C64.3594 31.2031 64.1641 31.1875 63.9609 31.1875C63.7734 31.2031 63.5781 31.2266 63.375 31.2578C63.1562 31.2891 62.9531 31.3047 62.7656 31.3047C62.5781 31.3047 62.375 31.2812 62.1562 31.2344H62.1094C61.8438 31.3594 61.6094 31.3828 61.4062 31.3047C61.2188 31.2422 61.0469 31.1328 60.8906 30.9766C60.7344 30.8047 60.5859 30.6094 60.4453 30.3906C60.3203 30.1562 60.1875 29.9453 60.0469 29.7578C59.9531 29.6328 59.8359 29.4531 59.6953 29.2188C59.5547 28.9844 59.4375 28.7344 59.3438 28.4688C59.2344 28.2031 59.1719 27.9375 59.1562 27.6719C59.125 27.3906 59.1797 27.1484 59.3203 26.9453C59.4609 26.7422 59.5781 26.5234 59.6719 26.2891C59.75 26.0547 59.7891 25.7812 59.7891 25.4688C59.7891 25.3594 59.7891 25.2578 59.7891 25.1641C59.7734 25.0703 59.7656 24.9688 59.7656 24.8594C59.8438 24.8594 59.9297 24.8672 60.0234 24.8828C60.1172 24.8828 60.2031 24.8828 60.2812 24.8828C60.375 24.8672 60.4453 24.8359 60.4922 24.7891C60.5547 24.7266 60.5859 24.625 60.5859 24.4844C60.5859 24.4062 60.5547 24.3438 60.4922 24.2969C60.4453 24.25 60.4141 24.2031 60.3984 24.1562C60.4922 24.0156 60.5781 23.9062 60.6562 23.8281C60.75 23.7344 60.8281 23.6484 60.8906 23.5703C60.9531 23.4766 61 23.375 61.0312 23.2656C61.0625 23.1406 61.0547 22.9766 61.0078 22.7734C61.1953 22.4453 61.4141 22.1562 61.6641 21.9062C61.9297 21.6406 62.2031 21.3984 62.4844 21.1797C62.7656 20.9453 63.0547 20.7188 63.3516 20.5C63.6484 20.2812 63.9297 20.0469 64.1953 19.7969C64.4922 19.9219 64.7266 19.9219 64.8984 19.7969C65.0859 19.6719 65.25 19.5391 65.3906 19.3984C65.5312 19.2422 65.6719 19.1172 65.8125 19.0234C65.9531 18.9297 66.1406 18.9688 66.375 19.1406L66.4219 19.1875C66.8438 18.7656 67.2656 18.5781 67.6875 18.625C68.125 18.6719 68.4922 18.8125 68.7891 19.0469C69.1016 19.2812 69.3047 19.5547 69.3984 19.8672C69.4922 20.1641 69.4062 20.3672 69.1406 20.4766C69.3125 20.6484 69.3984 20.8516 69.3984 21.0859C69.3984 21.3203 69.3359 21.5234 69.2109 21.6953C69.0703 21.8828 68.9453 22.0781 68.8359 22.2812C68.7422 22.4688 68.6406 22.6719 68.5312 22.8906C68.375 23.25 68.2031 23.5938 68.0156 23.9219C67.8281 24.2344 67.5625 24.5 67.2188 24.7188C66.9375 24.6406 66.7422 24.6719 66.6328 24.8125C66.5391 24.9531 66.4688 25.1094 66.4219 25.2812C66.375 25.4375 66.3203 25.5625 66.2578 25.6562C66.1953 25.75 66.0625 25.7188 65.8594 25.5625L65.8125 25.5156L65.7656 25.5625C65.6406 25.6875 65.5391 25.8281 65.4609 25.9844C65.3984 26.1406 65.3047 26.2578 65.1797 26.3359C65.0391 26.2891 64.8906 26.25 64.7344 26.2188C64.5781 26.1875 64.4297 26.1562 64.2891 26.125C64.2891 26.4531 64.2266 26.7109 64.1016 26.8984C63.9766 27.0859 63.8125 27.2422 63.6094 27.3672C63.4219 27.4766 63.2031 27.5703 62.9531 27.6484C62.7031 27.7109 62.4531 27.7969 62.2031 27.9062C61.9688 28 61.7422 28.125 61.5234 28.2812C61.3203 28.4219 61.1562 28.625 61.0312 28.8906C61.1875 29.0625 61.3828 29.1641 61.6172 29.1953C61.8516 29.2109 62.0938 29.2109 62.3438 29.1953C62.5938 29.1641 62.8359 29.1484 63.0703 29.1484C63.3203 29.1484 63.5391 29.2109 63.7266 29.3359L63.75 29.3594L63.7734 29.3359C64.1484 29.2891 64.5078 29.2031 64.8516 29.0781C65.2109 28.9375 65.5547 28.7969 65.8828 28.6562C66.2266 28.5 66.5703 28.3594 66.9141 28.2344C67.2734 28.0938 67.6406 27.9922 68.0156 27.9297C68.0938 28.0547 68.1953 28.125 68.3203 28.1406C68.4609 28.1562 68.5938 28.1484 68.7188 28.1172L68.7422 28.0703C68.7734 27.9609 68.8047 27.8672 68.8359 27.7891C68.8672 27.6953 68.9141 27.5938 68.9766 27.4844C69.0859 27.3125 69.2188 27.1797 69.375 27.0859C69.5312 26.9922 69.6953 26.9219 69.8672 26.875C70.0547 26.8281 70.25 26.7969 70.4531 26.7812C70.6562 26.7656 70.8594 26.7422 71.0625 26.7109H71.1094L71.1328 26.6406C71.1953 26.4531 71.2734 26.3281 71.3672 26.2656C71.4766 26.1875 71.5859 26.1328 71.6953 26.1016C71.8203 26.0703 71.9453 26.0469 72.0703 26.0312C72.2109 26.0156 72.3438 25.9688 72.4688 25.8906C72.75 25.9844 72.9844 25.9531 73.1719 25.7969C73.3594 25.6406 73.5391 25.4766 73.7109 25.3047L73.8984 25.5391L73.9688 25.4453C74.2031 25.2266 74.375 25.0625 74.4844 24.9531C74.6094 24.8438 74.7266 24.75 74.8359 24.6719C74.9453 24.5781 75.0703 24.4922 75.2109 24.4141C75.3672 24.3203 75.5781 24.1875 75.8438 24.0156C76.0625 23.875 76.2734 23.7344 76.4766 23.5938C76.6953 23.4531 76.9062 23.2969 77.1094 23.125C77.1875 23.1562 77.2266 23.2188 77.2266 23.3125C77.2266 23.3906 77.2266 23.4688 77.2266 23.5469C77.2109 23.5781 77.1953 23.625 77.1797 23.6875C77.1797 23.75 77.1953 23.7969 77.2266 23.8281ZM67.5234 20.8984C67.5078 20.8828 67.4922 20.875 67.4766 20.875C67.4766 20.875 67.4688 20.8672 67.4531 20.8516C67.125 20.6797 66.8516 20.6016 66.6328 20.6172C66.4141 20.6172 66.2109 20.6797 66.0234 20.8047C65.8516 20.9141 65.6875 21.0625 65.5312 21.25C65.3906 21.4219 65.2344 21.5859 65.0625 21.7422C64.9062 21.8828 64.7188 21.9922 64.5 22.0703C64.2812 22.1484 64.0156 22.1406 63.7031 22.0469C63.6562 22.2969 63.6094 22.5469 63.5625 22.7969C63.5312 23.0312 63.5078 23.2734 63.4922 23.5234C63.2266 23.6172 63.0156 23.75 62.8594 23.9219C62.7188 24.0938 62.5938 24.2812 62.4844 24.4844C62.3906 24.6875 62.2969 24.9062 62.2031 25.1406C62.125 25.3594 62.0156 25.5703 61.875 25.7734L61.9688 25.8906C62.0312 25.8594 62.1016 25.8828 62.1797 25.9609C62.2578 26.0391 62.3125 26.0938 62.3438 26.125C62.5156 25.875 62.7422 25.6641 63.0234 25.4922C63.3203 25.3203 63.6172 25.1641 63.9141 25.0234C64.2266 24.8672 64.5234 24.7031 64.8047 24.5312C65.0859 24.3594 65.2969 24.1328 65.4375 23.8516C65.9375 23.7109 66.3125 23.4297 66.5625 23.0078C66.8125 22.5859 67.0234 22.1484 67.1953 21.6953C67.2266 21.6016 67.2812 21.4688 67.3594 21.2969C67.4531 21.1094 67.5078 20.9766 67.5234 20.8984ZM91.6406 24.4375C91.5 24.8281 91.2812 25.1875 90.9844 25.5156C90.7031 25.8438 90.3984 26.1641 90.0703 26.4766C89.7422 26.7891 89.4141 27.1016 89.0859 27.4141C88.7734 27.7109 88.5078 28.0234 88.2891 28.3516C88.1484 28.3047 88.0234 28.3203 87.9141 28.3984C87.8203 28.4766 87.7344 28.5781 87.6562 28.7031C87.4844 28.7656 87.3047 28.8359 87.1172 28.9141C86.9453 28.9766 86.7734 29.0547 86.6016 29.1484C86.4453 29.2422 86.2969 29.3516 86.1562 29.4766C86.0312 29.6016 85.9375 29.7578 85.875 29.9453C85.5781 29.9609 85.3203 30.0234 85.1016 30.1328C84.8828 30.2266 84.6719 30.3281 84.4688 30.4375C84.2656 30.5469 84.0469 30.6406 83.8125 30.7188C83.5781 30.7812 83.2969 30.7891 82.9688 30.7422C82.9062 30.9766 82.8203 31.0859 82.7109 31.0703C82.6172 31.0703 82.5156 31.0469 82.4062 31C82.2969 30.9375 82.1875 30.9062 82.0781 30.9062C81.9688 30.8906 81.8828 31 81.8203 31.2344C81.7109 31.2344 81.5938 31.2266 81.4688 31.2109C81.3594 31.2109 81.25 31.2109 81.1406 31.2109C81.0469 31.2266 80.9531 31.2578 80.8594 31.3047C80.7812 31.3516 80.7188 31.4375 80.6719 31.5625C80.2188 31.5625 79.7422 31.5938 79.2422 31.6562C78.7422 31.7188 78.2422 31.75 77.7422 31.75C77.2578 31.75 76.7812 31.6875 76.3125 31.5625C75.8594 31.4531 75.4531 31.2188 75.0938 30.8594C74.9688 30.7344 74.8672 30.6094 74.7891 30.4844C74.7109 30.3594 74.625 30.2188 74.5312 30.0625C74.4844 29.9844 74.4375 29.9141 74.3906 29.8516C74.3438 29.7734 74.2969 29.6875 74.25 29.5938C74.125 29.3125 74.0547 29.0234 74.0391 28.7266C74.0234 28.4297 74.0234 28.1328 74.0391 27.8359C74.0391 27.5391 74.0391 27.25 74.0391 26.9688C74.0391 26.6719 73.9844 26.3828 73.875 26.1016C73.875 25.8359 73.9375 25.6016 74.0625 25.3984C74.1719 25.1797 74.2969 24.9688 74.4375 24.7656C74.5781 24.5625 74.7109 24.3594 74.8359 24.1562C74.9609 23.9375 75.0312 23.7031 75.0469 23.4531C74.9375 23.1875 74.9453 22.9297 75.0703 22.6797C75.1953 22.4297 75.3203 22.1953 75.4453 21.9766C75.4922 21.8984 75.5312 21.8203 75.5625 21.7422C75.6094 21.6484 75.6562 21.5547 75.7031 21.4609C75.75 21.3672 75.8125 21.2734 75.8906 21.1797C75.9688 21.0859 76.0391 21 76.1016 20.9219C76.3047 20.6406 76.5078 20.3672 76.7109 20.1016C76.9141 19.8359 77.1172 19.5625 77.3203 19.2812C77.4609 19.0938 77.5938 18.9062 77.7188 18.7188C77.8594 18.5312 77.9922 18.3359 78.1172 18.1328C78.1797 18.0391 78.2422 17.9375 78.3047 17.8281C78.3672 17.7031 78.4297 17.6016 78.4922 17.5234C78.5703 17.4297 78.7031 17.3281 78.8906 17.2188C79.0781 17.0938 79.2266 17 79.3359 16.9375C79.6484 16.7812 79.9844 16.6719 80.3438 16.6094C80.7031 16.5312 81.0391 16.5234 81.3516 16.5859C81.6641 16.6484 81.9375 16.7969 82.1719 17.0312C82.4219 17.25 82.5859 17.5703 82.6641 17.9922C82.6953 18.1953 82.7031 18.3984 82.6875 18.6016C82.6875 18.7891 82.6953 18.9766 82.7109 19.1641C82.7422 19.3516 82.7969 19.5312 82.875 19.7031C82.9531 19.8594 83.0938 20.0078 83.2969 20.1484C83.125 20.4141 82.9766 20.6875 82.8516 20.9688C82.7422 21.25 82.6172 21.5312 82.4766 21.8125C82.6328 21.8594 82.6953 21.9531 82.6641 22.0938C82.6484 22.2188 82.6484 22.3359 82.6641 22.4453C82.4453 22.6172 82.2969 22.8281 82.2188 23.0781C82.1406 23.3281 82.0781 23.5859 82.0312 23.8516C81.9844 24.1016 81.9219 24.3438 81.8438 24.5781C81.7812 24.7969 81.6562 24.9766 81.4688 25.1172C81.5625 25.6172 81.4062 25.9453 81 26.1016C80.7188 26.2109 80.5312 26.2344 80.4375 26.1719C80.3438 26.0938 80.2734 25.9922 80.2266 25.8672C80.1953 25.7266 80.1484 25.5938 80.0859 25.4688C80.0234 25.3438 79.8906 25.2812 79.6875 25.2812C79.7188 25.0938 79.7422 24.9062 79.7578 24.7188C79.7891 24.5156 79.8281 24.3203 79.875 24.1328C79.9219 23.9453 79.9922 23.7656 80.0859 23.5938C80.1797 23.4219 80.3125 23.2656 80.4844 23.125C80.3438 23.0469 80.2891 22.9297 80.3203 22.7734C80.3516 22.6016 80.3516 22.4453 80.3203 22.3047C80.4297 21.9922 80.5938 21.6641 80.8125 21.3203C81.0312 20.9766 81.2266 20.6328 81.3984 20.2891C81.5703 19.9297 81.6797 19.5703 81.7266 19.2109C81.7734 18.8516 81.6875 18.5 81.4688 18.1562C81.4062 18.0625 81.3125 17.9844 81.1875 17.9219C81.0781 17.8594 80.9688 17.8281 80.8594 17.8281C80.75 17.8281 80.6562 17.8672 80.5781 17.9453C80.5 18.0234 80.4688 18.1484 80.4844 18.3203L80.6719 18.4844C80.375 18.5781 80.1094 18.7344 79.875 18.9531C79.6562 19.1719 79.4453 19.4141 79.2422 19.6797C79.0391 19.9297 78.8359 20.1875 78.6328 20.4531C78.4453 20.7188 78.2422 20.9453 78.0234 21.1328C77.9141 21.5703 77.7422 21.9766 77.5078 22.3516C77.2891 22.7266 77.0703 23.1016 76.8516 23.4766C76.7266 23.7109 76.6328 23.9062 76.5703 24.0625C76.5234 24.2188 76.4531 24.4062 76.3594 24.625C76.3281 24.7031 76.2891 24.7812 76.2422 24.8594C76.2109 24.9219 76.1797 24.9922 76.1484 25.0703C76.0547 25.4141 75.9688 25.75 75.8906 26.0781C75.8281 26.4062 75.6484 26.6875 75.3516 26.9219C75.3984 27.0469 75.4375 27.1641 75.4688 27.2734C75.5156 27.3828 75.5938 27.4922 75.7031 27.6016C75.5312 27.6953 75.4297 27.8125 75.3984 27.9531C75.3828 28.0781 75.3906 28.2188 75.4219 28.375C75.4688 28.5156 75.5234 28.6641 75.5859 28.8203C75.6641 28.9609 75.7031 29.1016 75.7031 29.2422C75.8906 29.2578 76.0625 29.3281 76.2188 29.4531C76.375 29.5781 76.5312 29.7031 76.6875 29.8281C76.8594 29.9531 77.0234 30.0547 77.1797 30.1328C77.3359 30.1953 77.5078 30.1719 77.6953 30.0625C77.8203 30.0938 77.9375 30.1016 78.0469 30.0859C78.1562 30.0703 78.2656 30.0625 78.375 30.0625C78.4844 30.0469 78.5859 30.0625 78.6797 30.1094C78.7891 30.1562 78.8984 30.25 79.0078 30.3906C79.1172 30.1562 79.2656 30.0156 79.4531 29.9688C79.6406 29.9219 79.8359 29.8984 80.0391 29.8984C80.2578 29.8984 80.4609 29.8906 80.6484 29.875C80.8516 29.8594 81.0234 29.7656 81.1641 29.5938C81.3516 29.75 81.5156 29.8125 81.6562 29.7812C81.8125 29.75 81.9531 29.6797 82.0781 29.5703C82.2188 29.4609 82.3594 29.3516 82.5 29.2422C82.6406 29.1328 82.7969 29.0781 82.9688 29.0781C83.3438 29.0781 83.6719 29.0234 83.9531 28.9141C84.2344 28.8047 84.5078 28.6797 84.7734 28.5391C85.0391 28.3828 85.3047 28.2344 85.5703 28.0938C85.8516 27.9531 86.1719 27.8516 86.5312 27.7891C86.6875 27.5547 86.8672 27.3906 87.0703 27.2969C87.2891 27.1875 87.5078 27.0938 87.7266 27.0156C87.9609 26.9219 88.1797 26.8125 88.3828 26.6875C88.6016 26.5469 88.7969 26.3281 88.9688 26.0312C89.2812 26.0469 89.5391 25.9609 89.7422 25.7734C89.9453 25.5703 90.1406 25.3594 90.3281 25.1406C90.5156 24.9062 90.7031 24.7109 90.8906 24.5547C91.0938 24.3828 91.3438 24.3438 91.6406 24.4375ZM106.055 24.625C106.023 25.0469 105.906 25.4219 105.703 25.75C105.516 26.0781 105.281 26.3828 105 26.6641C104.719 26.9297 104.414 27.1875 104.086 27.4375C103.758 27.6719 103.461 27.9219 103.195 28.1875C103.242 28.5156 103.195 28.7109 103.055 28.7734C102.914 28.8359 102.742 28.875 102.539 28.8906C102.352 28.8906 102.156 28.9141 101.953 28.9609C101.766 28.9922 101.641 29.1484 101.578 29.4297C101.359 29.4297 101.18 29.5 101.039 29.6406C100.898 29.7812 100.758 29.9297 100.617 30.0859C100.477 30.2266 100.312 30.3516 100.125 30.4609C99.9531 30.5547 99.7266 30.5781 99.4453 30.5312C99.3672 30.6875 99.2656 30.7891 99.1406 30.8359C99.0156 30.8828 98.8828 30.9141 98.7422 30.9297C98.6016 30.9453 98.4609 30.9688 98.3203 31C98.1953 31.0312 98.0859 31.1094 97.9922 31.2344L97.6406 30.7188C96.9688 31.0156 96.3125 31.1406 95.6719 31.0938C95.0469 31.0469 94.3828 30.9766 93.6797 30.8828C93.5859 30.7109 93.4766 30.5547 93.3516 30.4141C93.2422 30.2734 93.125 30.1328 93 29.9922C92.8906 29.8516 92.7812 29.7109 92.6719 29.5703C92.5781 29.4297 92.5 29.2656 92.4375 29.0781L92.7891 28.7266L92.4375 28.375C92.4375 28.25 92.4453 28.1094 92.4609 27.9531C92.4766 27.7969 92.4766 27.6484 92.4609 27.5078C92.4609 27.3516 92.4297 27.2109 92.3672 27.0859C92.3203 26.9453 92.2188 26.8359 92.0625 26.7578C91.7031 27.1016 91.3906 27.4844 91.125 27.9062C90.875 28.3125 90.625 28.7344 90.375 29.1719C90.1406 29.6094 89.8906 30.0391 89.625 30.4609C89.3594 30.8828 89.0391 31.2656 88.6641 31.6094C88.7422 31.8438 88.7188 32 88.5938 32.0781C88.4688 32.1562 88.3125 32.2344 88.125 32.3125C87.8281 32.0156 87.6562 31.7031 87.6094 31.375C87.5469 31.0625 87.5547 30.7344 87.6328 30.3906C87.7109 30.0469 87.8281 29.7109 87.9844 29.3828C88.125 29.0391 88.2578 28.7109 88.3828 28.3984C88.4609 28.2109 88.5234 28.0312 88.5703 27.8594C88.6016 27.6875 88.6328 27.5 88.6641 27.2969C88.6953 27.1719 88.7266 27.0547 88.7578 26.9453C88.8047 26.8203 88.8438 26.6953 88.875 26.5703C88.9375 26.3047 88.9922 26.0547 89.0391 25.8203C89.1016 25.5703 89.1484 25.3125 89.1797 25.0469C89.3359 24.125 89.4844 23.2031 89.625 22.2812C89.7812 21.3438 90.0391 20.4453 90.3984 19.5859C90.4609 18.7578 90.6641 18 91.0078 17.3125C91.3516 16.625 91.75 15.9453 92.2031 15.2734C92.1406 15.1016 92.1484 14.9141 92.2266 14.7109C92.3203 14.4922 92.4375 14.2812 92.5781 14.0781C92.7344 13.8594 92.8906 13.6562 93.0469 13.4688C93.2188 13.2656 93.3516 13.0938 93.4453 12.9531C93.2578 12.7031 93.2266 12.4922 93.3516 12.3203C93.4922 12.1484 93.6719 11.9766 93.8906 11.8047C94.1094 11.6328 94.3047 11.4531 94.4766 11.2656C94.6641 11.0781 94.7109 10.8516 94.6172 10.5859C94.7109 10.3828 94.8672 10.2266 95.0859 10.1172C95.3047 10.0078 95.5312 9.90625 95.7656 9.8125C96 9.71875 96.2109 9.61719 96.3984 9.50781C96.5859 9.38281 96.6953 9.21094 96.7266 8.99219C97.1328 8.97656 97.4766 9.04688 97.7578 9.20312C98.0391 9.34375 98.2969 9.57031 98.5312 9.88281C98.5156 9.99219 98.5156 10.125 98.5312 10.2812C98.5469 10.4219 98.5547 10.5703 98.5547 10.7266C98.5547 10.8672 98.5391 11.0078 98.5078 11.1484C98.4922 11.2734 98.4375 11.3828 98.3438 11.4766C98.4688 11.5703 98.5156 11.6953 98.4844 11.8516C98.4688 11.9922 98.4219 12.1406 98.3438 12.2969C98.2812 12.4531 98.2109 12.6094 98.1328 12.7656C98.0547 12.9219 98.0156 13.0625 98.0156 13.1875C98 13.625 97.8828 14.0703 97.6641 14.5234C97.4609 14.9609 97.2109 15.3359 96.9141 15.6484C96.7266 16.4297 96.4844 17.1875 96.1875 17.9219C95.8906 18.6406 95.4766 19.3125 94.9453 19.9375C95.0078 20.0781 94.9922 20.2031 94.8984 20.3125C94.8203 20.4062 94.7266 20.5078 94.6172 20.6172C94.5234 20.7109 94.4531 20.8047 94.4062 20.8984C94.375 20.9922 94.4375 21.0938 94.5938 21.2031C95.0469 20.5 95.6172 19.9609 96.3047 19.5859C97.0078 19.2109 97.75 18.9141 98.5312 18.6953C98.6406 18.8047 98.75 18.8828 98.8594 18.9297C98.9844 18.9609 99.1094 19 99.2344 19.0469C99.3281 18.8594 99.4375 18.7656 99.5625 18.7656C99.6875 18.7656 99.8125 18.8125 99.9375 18.9062C100.062 18.9844 100.188 19.0781 100.312 19.1875C100.453 19.2969 100.578 19.3672 100.688 19.3984C100.922 19.5703 101.07 19.7734 101.133 20.0078C101.195 20.2422 101.227 20.4922 101.227 20.7578C101.227 21.0078 101.227 21.2656 101.227 21.5312C101.227 21.7969 101.281 22.0391 101.391 22.2578C101.109 22.8203 100.75 23.3438 100.312 23.8281C99.8906 24.3125 99.4766 24.8047 99.0703 25.3047L98.8828 25.1406C98.4453 25.5625 97.9375 25.9453 97.3594 26.2891C96.7969 26.6172 96.2344 26.8906 95.6719 27.1094C95.4531 27 95.25 26.9062 95.0625 26.8281C94.875 26.7344 94.6484 26.7109 94.3828 26.7578C94.0234 27.0234 93.8047 27.375 93.7266 27.8125C93.6484 28.25 93.6953 28.6719 93.8672 29.0781C93.9766 29.3438 94.1094 29.5078 94.2656 29.5703C94.4219 29.6328 94.5859 29.6641 94.7578 29.6641C94.9453 29.6484 95.125 29.6406 95.2969 29.6406C95.4844 29.625 95.6641 29.6797 95.8359 29.8047L96.0234 29.6406C96.1328 29.7812 96.2344 29.8438 96.3281 29.8281C96.4375 29.8125 96.5469 29.7812 96.6562 29.7344C96.7656 29.6719 96.8672 29.6328 96.9609 29.6172C97.0703 29.5859 97.1719 29.6484 97.2656 29.8047C97.4219 29.6016 97.6172 29.4922 97.8516 29.4766C98.1016 29.4609 98.3438 29.4609 98.5781 29.4766C98.8281 29.4766 99.0625 29.4531 99.2812 29.4062C99.5 29.3594 99.6719 29.1953 99.7969 28.9141C100.031 28.9609 100.211 28.9375 100.336 28.8438C100.477 28.75 100.602 28.6484 100.711 28.5391C100.836 28.4141 100.953 28.2969 101.062 28.1875C101.188 28.0781 101.359 28.0234 101.578 28.0234C101.828 27.8516 102.062 27.6641 102.281 27.4609C102.5 27.2422 102.711 27.0312 102.914 26.8281C103.133 26.6094 103.344 26.3984 103.547 26.1953C103.766 25.9922 104.008 25.8203 104.273 25.6797C104.43 25.6641 104.57 25.5859 104.695 25.4453C104.82 25.3047 104.945 25.1641 105.07 25.0234C105.211 24.8828 105.359 24.7656 105.516 24.6719C105.672 24.5781 105.852 24.5625 106.055 24.625ZM95.5312 11.6641C95.4531 11.7578 95.3516 11.8906 95.2266 12.0625C95.1172 12.2344 95.0156 12.4219 94.9219 12.625C94.8281 12.8125 94.75 13.0078 94.6875 13.2109C94.6406 13.3984 94.6406 13.5547 94.6875 13.6797C94.5781 13.7578 94.4453 13.8906 94.2891 14.0781C94.1484 14.25 94.0156 14.4453 93.8906 14.6641C93.7656 14.8672 93.6562 15.0781 93.5625 15.2969C93.4844 15.5 93.4609 15.6719 93.4922 15.8125C93.2422 15.9219 93.1016 16.0781 93.0703 16.2812C93.0391 16.4688 93.0156 16.6641 93 16.8672C93 17.0547 92.9609 17.2344 92.8828 17.4062C92.8203 17.5625 92.625 17.6641 92.2969 17.7109L92.5781 18.1562C92.5938 18.2812 92.5938 18.375 92.5781 18.4375C92.5625 18.4844 92.5312 18.5312 92.4844 18.5781C92.4375 18.6094 92.3828 18.6484 92.3203 18.6953C92.2734 18.7266 92.2266 18.7812 92.1797 18.8594C92.3359 18.9844 92.375 19.0938 92.2969 19.1875C92.2344 19.2812 92.1406 19.3828 92.0156 19.4922C91.9062 19.6016 91.8125 19.7344 91.7344 19.8906C91.6562 20.0469 91.6875 20.2422 91.8281 20.4766C91.5625 20.7109 91.3672 21.0391 91.2422 21.4609C91.1328 21.8672 91.0469 22.3125 90.9844 22.7969C90.9219 23.2656 90.8672 23.7422 90.8203 24.2266C90.7734 24.7109 90.6953 25.1484 90.5859 25.5391C91.1797 24.3359 91.7969 23.1641 92.4375 22.0234C93.0781 20.8828 93.6719 19.7031 94.2188 18.4844C94.1406 18.2188 94.1641 17.9922 94.2891 17.8047C94.4141 17.6016 94.5547 17.4141 94.7109 17.2422C94.8672 17.0547 95 16.8828 95.1094 16.7266C95.2188 16.5547 95.2188 16.3672 95.1094 16.1641C95.1875 16.0859 95.2656 16.0078 95.3438 15.9297C95.4375 15.8359 95.5469 15.7969 95.6719 15.8125C95.6406 15.6719 95.6484 15.5 95.6953 15.2969C95.7578 15.0781 95.8359 14.8672 95.9297 14.6641C96.0234 14.4453 96.125 14.25 96.2344 14.0781C96.3594 13.8906 96.4844 13.7578 96.6094 13.6797C96.5625 13.4766 96.6016 13.2578 96.7266 13.0234C96.8516 12.7734 96.9688 12.5312 97.0781 12.2969C97.1875 12.0625 97.25 11.8359 97.2656 11.6172C97.2812 11.3984 97.1641 11.2109 96.9141 11.0547L95.5312 11.6641ZM99.4453 21.0156C99.3516 20.8906 99.2578 20.7734 99.1641 20.6641C99.0703 20.5391 98.9766 20.4141 98.8828 20.2891C98.7109 20.0859 98.5781 20.0234 98.4844 20.1016C98.3906 20.1641 98.2891 20.2656 98.1797 20.4062C98.0859 20.5312 97.9688 20.6484 97.8281 20.7578C97.6875 20.8516 97.5 20.8203 97.2656 20.6641C96.9062 20.9609 96.5234 21.2656 96.1172 21.5781C95.7266 21.8906 95.3438 22.2188 94.9688 22.5625C94.6094 22.9062 94.2812 23.2812 93.9844 23.6875C93.7031 24.0781 93.4922 24.5156 93.3516 25C93.5078 25.25 93.6875 25.4062 93.8906 25.4688C94.1094 25.5312 94.3203 25.5625 94.5234 25.5625C94.7266 25.5469 94.9141 25.5234 95.0859 25.4922C95.2578 25.4609 95.3906 25.4688 95.4844 25.5156C95.6719 25.3594 95.8672 25.2344 96.0703 25.1406C96.2891 25.0469 96.5078 24.9609 96.7266 24.8828C96.9609 24.7891 97.1797 24.6953 97.3828 24.6016C97.6016 24.5078 97.8047 24.3906 97.9922 24.25C98.5078 23.875 98.8906 23.3984 99.1406 22.8203C99.4062 22.2422 99.5078 21.6406 99.4453 21.0156ZM119.672 23.6406C119.734 23.875 119.711 24.0781 119.602 24.25C119.492 24.4062 119.344 24.5469 119.156 24.6719C118.984 24.7969 118.789 24.9141 118.57 25.0234C118.367 25.1172 118.195 25.2266 118.055 25.3516C117.352 25.5078 116.711 25.625 116.133 25.7031C115.57 25.7656 114.945 25.8516 114.258 25.9609C114.055 25.9922 113.859 25.9922 113.672 25.9609C113.5 25.9141 113.32 25.8984 113.133 25.9141C113.023 25.9141 112.922 25.9141 112.828 25.9141C112.734 25.8984 112.641 25.8984 112.547 25.9141C112.188 25.9453 111.953 26.0703 111.844 26.2891C111.734 26.4922 111.641 26.7344 111.562 27.0156C111.5 27.2812 111.414 27.5391 111.305 27.7891C111.211 28.0234 111 28.1875 110.672 28.2812C110.641 28.3594 110.648 28.4297 110.695 28.4922C110.758 28.5547 110.805 28.6094 110.836 28.6562C110.57 28.7344 110.391 28.875 110.297 29.0781C110.219 29.2812 110.148 29.4844 110.086 29.6875C110.023 29.8906 109.93 30.0625 109.805 30.2031C109.695 30.3438 109.477 30.3906 109.148 30.3438C108.664 30.8594 108.094 31.2734 107.438 31.5859C106.781 31.9141 106.102 32.125 105.398 32.2188C105.273 32.1562 105.148 32.0781 105.023 31.9844C104.914 31.8906 104.797 31.8047 104.672 31.7266C104.562 31.6484 104.438 31.5859 104.297 31.5391C104.172 31.5078 104.023 31.5078 103.852 31.5391C103.836 31.2109 103.773 30.9062 103.664 30.625C103.539 30.3438 103.383 30.0781 103.195 29.8281C103.164 29.5469 103.203 29.2891 103.312 29.0547C103.406 28.8047 103.508 28.5625 103.617 28.3281C103.727 28.0938 103.82 27.8594 103.898 27.625C103.961 27.375 103.945 27.0938 103.852 26.7812C104.008 26.6875 104.109 26.5781 104.156 26.4531C104.219 26.3281 104.258 26.2031 104.273 26.0781C104.305 25.9375 104.344 25.8125 104.391 25.7031C104.438 25.5781 104.547 25.4766 104.719 25.3984C104.594 25.0234 104.609 24.75 104.766 24.5781C104.938 24.3906 105.141 24.2266 105.375 24.0859C105.609 23.9453 105.828 23.7891 106.031 23.6172C106.234 23.4453 106.312 23.1875 106.266 22.8438C106.359 22.75 106.469 22.6719 106.594 22.6094C106.719 22.5469 106.836 22.4922 106.945 22.4453C107.07 22.3828 107.188 22.3203 107.297 22.2578C107.406 22.1953 107.508 22.1094 107.602 22C107.492 21.9219 107.438 21.8438 107.438 21.7656C107.453 21.6875 107.477 21.6094 107.508 21.5312C107.539 21.4375 107.57 21.3438 107.602 21.25C107.648 21.1562 107.648 21.0625 107.602 20.9688C108.023 21.0312 108.391 20.9766 108.703 20.8047C109.031 20.6172 109.336 20.4297 109.617 20.2422C109.914 20.0547 110.211 19.9219 110.508 19.8438C110.805 19.7656 111.148 19.8594 111.539 20.125C111.57 20.2344 111.617 20.3984 111.68 20.6172C111.758 20.8203 111.828 21.0312 111.891 21.25C111.969 21.4688 112.039 21.6797 112.102 21.8828C112.164 22.0859 112.203 22.2344 112.219 22.3281C112.219 22.4062 112.219 22.5312 112.219 22.7031C112.219 22.875 112.219 23.0625 112.219 23.2656C112.219 23.4531 112.219 23.6328 112.219 23.8047C112.219 23.9766 112.219 24.1094 112.219 24.2031C112.672 24.4688 113.125 24.6328 113.578 24.6953C114.031 24.7422 114.484 24.6328 114.938 24.3672C115.109 24.5234 115.273 24.5703 115.43 24.5078C115.586 24.4297 115.734 24.3438 115.875 24.25C116.031 24.1562 116.188 24.1094 116.344 24.1094C116.5 24.0938 116.656 24.2188 116.812 24.4844C117.031 24.2812 117.258 24.1562 117.492 24.1094C117.727 24.0469 117.969 24.0156 118.219 24.0156C118.469 24 118.711 23.9766 118.945 23.9453C119.195 23.9141 119.438 23.8125 119.672 23.6406ZM110.672 24.0391C110.672 23.8047 110.711 23.5547 110.789 23.2891C110.867 23.0234 110.93 22.7656 110.977 22.5156C111.023 22.25 111.016 22 110.953 21.7656C110.906 21.5312 110.758 21.3203 110.508 21.1328C110.336 21.2266 110.195 21.3594 110.086 21.5312C109.977 21.6875 109.867 21.8516 109.758 22.0234C109.648 22.1797 109.516 22.3125 109.359 22.4219C109.219 22.5312 109.031 22.5625 108.797 22.5156C108.719 22.7031 108.719 22.8594 108.797 22.9844C108.875 23.0938 108.969 23.2031 109.078 23.3125C109.188 23.4062 109.289 23.5078 109.383 23.6172C109.492 23.7266 109.531 23.8672 109.5 24.0391C109.562 24.0859 109.648 24.1328 109.758 24.1797C109.867 24.2109 109.977 24.2344 110.086 24.25C110.211 24.25 110.328 24.2344 110.438 24.2031C110.547 24.1719 110.625 24.1172 110.672 24.0391ZM110.508 25.9141C110.195 25.9141 109.922 25.8438 109.688 25.7031C109.469 25.5469 109.242 25.375 109.008 25.1875C108.789 25 108.555 24.8281 108.305 24.6719C108.07 24.5 107.781 24.3984 107.438 24.3672C107.297 24.5547 107.133 24.7344 106.945 24.9062C106.758 25.0625 106.594 25.2344 106.453 25.4219C106.312 25.6094 106.211 25.8125 106.148 26.0312C106.102 26.25 106.141 26.5 106.266 26.7812C105.906 26.9531 105.664 27.2031 105.539 27.5312C105.414 27.8438 105.328 28.1875 105.281 28.5625C105.25 28.9375 105.219 29.3125 105.188 29.6875C105.156 30.0625 105.055 30.3984 104.883 30.6953L105.398 30.3438C105.461 30.375 105.508 30.4219 105.539 30.4844C105.586 30.5469 105.594 30.6172 105.562 30.6953C105.688 30.5703 105.828 30.4766 105.984 30.4141C106.141 30.3359 106.297 30.2812 106.453 30.25C106.625 30.2031 106.789 30.1641 106.945 30.1328C107.117 30.1016 107.281 30.0547 107.438 29.9922C107.828 30.2109 108.109 30.2578 108.281 30.1328C108.453 30.0078 108.594 29.8203 108.703 29.5703C108.812 29.3203 108.93 29.0625 109.055 28.7969C109.18 28.5156 109.383 28.3438 109.664 28.2812L109.5 28.1172C109.766 27.7891 110 27.4531 110.203 27.1094C110.422 26.75 110.523 26.3516 110.508 25.9141ZM133.008 29.8281C132.82 29.8281 132.672 29.8359 132.562 29.8516C132.469 29.8516 132.383 29.8594 132.305 29.875C132.227 29.8906 132.141 29.9219 132.047 29.9688C131.953 30.0156 131.828 30.0859 131.672 30.1797C131.609 30.3516 131.523 30.4844 131.414 30.5781C131.32 30.6562 131.203 30.7266 131.062 30.7891C130.938 30.8359 130.805 30.8906 130.664 30.9531C130.523 31 130.391 31.0859 130.266 31.2109C129.078 31.3984 128.031 31.1328 127.125 30.4141C127.016 30.3359 126.914 30.25 126.82 30.1562C126.742 30.0625 126.648 29.9766 126.539 29.8984C126.461 29.8359 126.414 29.8125 126.398 29.8281C126.398 29.8281 126.367 29.7891 126.305 29.7109C126.195 29.5547 126.125 29.3672 126.094 29.1484C126.078 28.9141 126.047 28.6953 126 28.4922C125.953 28.2734 125.859 28.0938 125.719 27.9531C125.594 27.7969 125.367 27.7266 125.039 27.7422C124.883 28.0703 124.656 28.4062 124.359 28.75C124.078 29.0781 123.758 29.375 123.398 29.6406C123.039 29.9062 122.656 30.125 122.25 30.2969C121.859 30.4688 121.484 30.5547 121.125 30.5547C121 30.9141 120.781 31.1797 120.469 31.3516C120.172 31.5391 119.852 31.6797 119.508 31.7734C119.477 31.7891 119.414 31.8047 119.32 31.8203C119.227 31.8516 119.172 31.8672 119.156 31.8672C118.938 31.8828 118.766 31.8438 118.641 31.75C118.516 31.6562 118.398 31.5547 118.289 31.4453C118.18 31.3359 118.062 31.2344 117.938 31.1406C117.812 31.0469 117.641 31 117.422 31C117.25 30.5938 117.078 30.1953 116.906 29.8047C116.734 29.4141 116.609 29.0156 116.531 28.6094C116.672 28.5312 116.75 28.4375 116.766 28.3281C116.766 28.2031 116.766 28.0781 116.766 27.9531C116.516 27.875 116.391 27.7812 116.391 27.6719C116.375 27.5469 116.398 27.4219 116.461 27.2969C116.508 27.1719 116.562 27.0547 116.625 26.9453C116.672 26.8203 116.641 26.7188 116.531 26.6406C116.656 25.6875 116.93 24.7656 117.352 23.875C117.773 22.9844 118.375 22.2422 119.156 21.6484C119.062 21.3516 119.086 21.125 119.227 20.9688C119.383 20.8125 119.562 20.7266 119.766 20.7109C119.984 20.6953 120.188 20.75 120.375 20.875C120.578 20.9844 120.68 21.1641 120.68 21.4141C120.695 21.5234 120.688 21.6328 120.656 21.7422C120.625 21.8516 120.594 21.9531 120.562 22.0469C120.469 22.5156 120.328 22.9688 120.141 23.4062C119.953 23.8438 119.75 24.2734 119.531 24.6953C119.312 25.1172 119.086 25.5391 118.852 25.9609C118.633 26.3828 118.445 26.8203 118.289 27.2734C118.102 27.3984 118.039 27.5312 118.102 27.6719C118.164 27.8125 118.242 27.9531 118.336 28.0938C118.445 28.2188 118.5 28.3438 118.5 28.4688C118.516 28.5938 118.375 28.7109 118.078 28.8203C117.984 29.0391 118.008 29.2344 118.148 29.4062C118.289 29.5625 118.406 29.7266 118.5 29.8984C118.625 29.9141 118.742 29.9141 118.852 29.8984C118.977 29.8828 119.078 29.8125 119.156 29.6875C119.344 29.8125 119.508 29.8359 119.648 29.7578C119.805 29.6797 119.961 29.5859 120.117 29.4766C120.289 29.3516 120.469 29.25 120.656 29.1719C120.859 29.0938 121.086 29.1172 121.336 29.2422C121.445 29.1328 121.531 29 121.594 28.8438C121.672 28.6875 121.75 28.5391 121.828 28.3984C121.906 28.2578 122 28.1406 122.109 28.0469C122.234 27.9531 122.406 27.9219 122.625 27.9531C122.844 27.5625 123.133 27.2422 123.492 26.9922C123.852 26.7266 124.211 26.4766 124.57 26.2422C124.945 26.0078 125.273 25.7578 125.555 25.4922C125.852 25.2266 126.039 24.8828 126.117 24.4609C126.414 23.9922 126.711 23.4688 127.008 22.8906C127.32 22.2969 127.68 21.8047 128.086 21.4141C128.133 21.2891 128.211 21.1953 128.32 21.1328C128.43 21.0547 128.547 21.0078 128.672 20.9922C128.797 20.9609 128.922 20.9688 129.047 21.0156C129.172 21.0469 129.281 21.1094 129.375 21.2031C129.406 21.4844 129.367 21.7422 129.258 21.9766C129.164 22.2109 129.055 22.4453 128.93 22.6797C128.82 22.8984 128.734 23.1328 128.672 23.3828C128.609 23.6328 128.633 23.9219 128.742 24.25C128.523 24.375 128.305 24.4844 128.086 24.5781C127.883 24.6719 127.688 24.7734 127.5 24.8828C127.328 24.9922 127.172 25.1328 127.031 25.3047C126.906 25.4766 126.82 25.7031 126.773 25.9844C127.195 26.1406 127.445 26.3359 127.523 26.5703C127.602 26.8047 127.641 27.0625 127.641 27.3438C127.641 27.6094 127.656 27.8906 127.688 28.1875C127.734 28.4688 127.938 28.75 128.297 29.0312C128.359 29.0781 128.398 29.1172 128.414 29.1484C128.445 29.1641 128.5 29.1875 128.578 29.2188C128.734 29.2656 128.875 29.2656 129 29.2188C129.125 29.1562 129.242 29.1016 129.352 29.0547C129.477 29.0078 129.602 28.9922 129.727 29.0078C129.867 29.0078 130.023 29.1016 130.195 29.2891C130.43 28.9922 130.648 28.9922 130.852 29.2891C131.039 28.9453 131.211 28.75 131.367 28.7031C131.523 28.6562 131.672 28.6406 131.812 28.6562C131.969 28.6719 132.125 28.6562 132.281 28.6094C132.438 28.5625 132.609 28.3672 132.797 28.0234L133.008 28.2344C133.102 27.9844 133.211 27.8672 133.336 27.8828C133.477 27.8828 133.609 27.9062 133.734 27.9531C133.859 27.9844 133.969 27.9844 134.062 27.9531C134.156 27.9062 134.203 27.7188 134.203 27.3906C134.344 27.3906 134.461 27.3594 134.555 27.2969C134.664 27.2344 134.766 27.1641 134.859 27.0859C134.969 27.0078 135.086 26.9453 135.211 26.8984C135.336 26.8359 135.484 26.8047 135.656 26.8047L135.047 28.2812L133.008 29.8281ZM150.656 14.0547C150.438 14.2891 150.195 14.4141 149.93 14.4297C149.664 14.4297 149.398 14.4062 149.133 14.3594C148.883 14.3125 148.633 14.2969 148.383 14.3125C148.148 14.3125 147.945 14.4375 147.773 14.6875C147.523 14.625 147.266 14.6172 147 14.6641C146.734 14.6953 146.461 14.75 146.18 14.8281C145.898 14.8906 145.617 14.9531 145.336 15.0156C145.055 15.0781 144.773 15.1016 144.492 15.0859L144.094 14.6875C143.984 14.8594 143.828 14.9688 143.625 15.0156C143.438 15.0469 143.25 15 143.062 14.875C142.734 15.0938 142.406 15.1953 142.078 15.1797C141.75 15.1641 141.43 15.1562 141.117 15.1562C140.805 15.1406 140.508 15.2031 140.227 15.3438C139.961 15.4688 139.734 15.7891 139.547 16.3047C139.406 16.6641 139.273 17.0312 139.148 17.4062C139.023 17.7656 138.898 18.125 138.773 18.4844C138.43 19.4219 138.078 20.3516 137.719 21.2734C137.375 22.1797 136.984 23.0781 136.547 23.9688C136.516 24.6719 136.531 25.3828 136.594 26.1016C136.656 26.8203 136.727 27.5312 136.805 28.2344C136.742 28.4219 136.719 28.6172 136.734 28.8203C136.766 29.0234 136.82 29.2266 136.898 29.4297C136.977 29.6328 137.07 29.8281 137.18 30.0156C137.289 30.1875 137.406 30.3438 137.531 30.4844L137.953 30.0859L138.539 30.9062C138.695 30.7031 138.875 30.4922 139.078 30.2734C139.297 30.0391 139.523 29.8281 139.758 29.6406C139.992 29.4375 140.234 29.2734 140.484 29.1484C140.75 29.0078 141.016 28.9141 141.281 28.8672C141.391 28.7578 141.492 28.6406 141.586 28.5156C141.68 28.3906 141.781 28.2891 141.891 28.2109C142 28.1172 142.117 28.0547 142.242 28.0234C142.383 27.9766 142.547 27.9844 142.734 28.0469C143.234 27.7656 143.68 27.4141 144.07 26.9922C144.461 26.5547 144.852 26.125 145.242 25.7031C145.633 25.2656 146.039 24.8672 146.461 24.5078C146.898 24.1484 147.406 23.8984 147.984 23.7578C147.609 24.6641 147.133 25.5469 146.555 26.4062C145.977 27.25 145.328 28.0078 144.609 28.6797C144.422 28.8984 144.188 29.0938 143.906 29.2656C143.781 29.3438 143.648 29.4297 143.508 29.5234C143.367 29.6016 143.234 29.6797 143.109 29.7578C142.688 30.0391 142.281 30.3438 141.891 30.6719C141.5 30.9844 141.125 31.3359 140.766 31.7266C140.719 31.6328 140.656 31.5703 140.578 31.5391C140.5 31.5078 140.406 31.4922 140.297 31.4922C140.203 31.4922 140.102 31.5 139.992 31.5156C139.898 31.5312 139.812 31.5312 139.734 31.5156C139.438 31.7344 139.047 31.9062 138.562 32.0312C138.094 32.1719 137.672 32.2031 137.297 32.125C137.188 32.0938 137.039 32.0312 136.852 31.9375C136.664 31.8594 136.523 31.7891 136.43 31.7266C135.82 31.3203 135.359 30.8203 135.047 30.2266C134.75 29.6172 134.586 28.9531 134.555 28.2344L134.367 28.0469C134.57 27.8594 134.695 27.6719 134.742 27.4844C134.805 27.2969 134.82 27.1094 134.789 26.9219C134.773 26.7188 134.734 26.5156 134.672 26.3125C134.625 26.0938 134.594 25.875 134.578 25.6562C134.562 25.5156 134.562 25.3984 134.578 25.3047C134.609 25.2109 134.641 25.1016 134.672 24.9766C134.797 24.4766 134.914 23.9922 135.023 23.5234C135.133 23.0391 135.25 22.5547 135.375 22.0703C135.688 20.8828 136.047 19.7109 136.453 18.5547C136.875 17.3828 137.312 16.2266 137.766 15.0859C137.516 14.9922 137.266 14.9375 137.016 14.9219C136.766 14.8906 136.508 14.875 136.242 14.875C135.992 14.875 135.734 14.8672 135.469 14.8516C135.219 14.8359 134.969 14.7812 134.719 14.6875C134.609 14.6406 134.555 14.6172 134.555 14.6172C134.555 14.6016 134.492 14.5938 134.367 14.5938C134.289 14.5938 134.18 14.6094 134.039 14.6406C133.898 14.6562 133.758 14.6641 133.617 14.6641C133.477 14.6641 133.352 14.6484 133.242 14.6172C133.117 14.5859 133.047 14.5156 133.031 14.4062V14.1719C133.047 13.9219 133.102 13.7578 133.195 13.6797C133.289 13.5859 133.406 13.5312 133.547 13.5156C133.688 13.4844 133.844 13.4688 134.016 13.4688C134.188 13.4531 134.352 13.3984 134.508 13.3047C134.945 13.3984 135.359 13.4688 135.75 13.5156C136.141 13.5469 136.516 13.5391 136.875 13.4922C137.25 13.4453 137.609 13.3438 137.953 13.1875C138.312 13.0312 138.664 12.7969 139.008 12.4844C139.258 12 139.445 11.4844 139.57 10.9375C139.695 10.375 139.836 9.82812 139.992 9.29688C140.164 8.75 140.383 8.25 140.648 7.79688C140.914 7.32812 141.32 6.9375 141.867 6.625C142.117 6.59375 142.336 6.625 142.523 6.71875C142.711 6.8125 142.898 6.91406 143.086 7.02344C143.008 7.24219 142.945 7.46875 142.898 7.70312C142.852 7.9375 142.797 8.17188 142.734 8.40625C142.688 8.64062 142.625 8.86719 142.547 9.08594C142.469 9.30469 142.352 9.50781 142.195 9.69531C142.398 9.77344 142.516 9.86719 142.547 9.97656C142.578 10.0859 142.562 10.2031 142.5 10.3281C142.438 10.4531 142.359 10.5859 142.266 10.7266C142.172 10.8672 142.117 10.9922 142.102 11.1016C141.93 11.1172 141.781 11.2266 141.656 11.4297C141.547 11.6328 141.43 11.7891 141.305 11.8984C141.18 12.1641 141.203 12.3906 141.375 12.5781C141.547 12.7656 141.703 12.9453 141.844 13.1172C141.984 13.1641 142.125 13.1719 142.266 13.1406C142.406 13.0938 142.531 13.0469 142.641 13C142.766 12.9531 142.883 12.9297 142.992 12.9297C143.102 12.9297 143.203 12.9922 143.297 13.1172C143.453 12.9453 143.609 12.875 143.766 12.9062C143.922 12.9219 144.078 12.9609 144.234 13.0234C144.391 13.0703 144.547 13.0938 144.703 13.0938C144.859 13.0781 145.008 12.9531 145.148 12.7188C145.336 12.625 145.508 12.6016 145.664 12.6484C145.836 12.6953 145.992 12.7578 146.133 12.8359C146.273 12.8984 146.406 12.9531 146.531 13C146.672 13.0312 146.812 13 146.953 12.9062C147.188 12.9375 147.445 12.9453 147.727 12.9297C148.023 12.9141 148.312 12.8828 148.594 12.8359C148.891 12.7891 149.18 12.7344 149.461 12.6719C149.758 12.5938 150.023 12.5312 150.258 12.4844C150.492 12.625 150.633 12.75 150.68 12.8594C150.727 12.9688 150.734 13.0781 150.703 13.1875C150.688 13.2969 150.656 13.4219 150.609 13.5625C150.578 13.6875 150.594 13.8516 150.656 14.0547Z" fill="white"/>
<path d="M27 33.3906H145.195V34.5859H27V33.3906Z" fill="white"/>
<a href="https://gdsc.community.dev/vignans-institute-of-information-technology-visakhapatnam/">
<rect fill="black" fill-opacity="0" y="0.0898438" width="118.195" height="51.8203"/>
</a>
<defs>
<linearGradient id="paint0_linear_19_81" x1="0" y1="22.5" x2="172" y2="22.5" gradientUnits="userSpaceOnUse">
<stop stop-color="#D1B897"/>
<stop offset="1" stop-color="#FF970B"/>
</linearGradient>
</defs>
</svg>
