<?xml version="1.0" encoding="UTF-8"?>
<svg width="50px" height="50px" viewBox="-10 0 125 125" version="1.1" xmlns="http://www.w3.org/2000/svg" xmlns:xlink="http://www.w3.org/1999/xlink" preserveAspectRatio="xMidYMid">
    <g>
        <path d="M71.7518102,56.5628587 C63.1308102,61.4608587 54.5048102,66.3498587 45.8928102,71.2628587 C40.8548102,74.1368587 35.8728102,77.1088587 30.8088102,79.9348587 C20.6058102,85.6298587 8.48381017,82.2918587 2.69881017,72.2608587 C-2.82218983,62.6888587 0.35081017,50.2788587 10.1768102,44.5428587 C34.2018102,30.5198587 58.2888102,16.5988587 82.4628102,2.83385871 C89.8768102,-1.38814129 97.5688102,-0.857141286 104.42481,4.18985871 C111.66081,9.51685871 114.02981,17.0128587 112.40481,25.8008587 C111.39681,27.9268587 110.79481,30.4198587 109.28581,32.0948587 C106.83081,34.8198587 104.04081,37.4288587 100.93481,39.3448587 C91.3228102,45.2718587 81.4958102,50.8498587 71.7518102,56.5628587" fill="#E94436"></path>
        <path d="M61.8670102,62.0569587 C70.4200102,67.0729587 78.9670102,72.0999587 87.5280102,77.1019587 C92.5350102,80.0279587 97.6000102,82.8569587 102.57901,85.8279587 C112.61301,91.8179587 115.78401,103.983959 109.98901,114.008959 C104.45901,123.576959 92.1260102,127.034959 82.2450102,121.391959 C58.0880102,107.596959 33.9890102,93.6989587 9.98101017,79.6459587 C2.61801017,75.3359587 -0.76798983,68.4089587 0.17501017,59.9479587 C1.17001017,51.0169587 6.47701017,45.2179587 14.9000102,42.2309587 C17.2450102,42.0419587 19.7050102,41.3159587 21.9110102,41.7859587 C25.4980102,42.5499587 29.1530102,43.6609587 32.3650102,45.3929587 C42.3040102,50.7529587 52.0480102,56.4749587 61.8670102,62.0569587" fill="#4385F3"></path>
    </g>
</svg>