<svg width="566" height="53" viewBox="0 0 566 53" fill="none" xmlns="http://www.w3.org/2000/svg">
<path d="M25.47 25.05C26.31 25.05 26.9167 24.8633 27.29 24.49C27.6633 24.1167 28.2467 23.3233 29.04 22.11L37.58 9.09C37.86 8.62333 38.1633 8.32 38.49 8.18C38.8633 7.99333 39.2367 7.9 39.61 7.9H40.8C41.4533 7.9 41.92 8.08666 42.2 8.46C42.5267 8.78667 42.69 9.32333 42.69 10.07V45.7H41.99V10.07C41.99 9.69666 41.8967 9.37 41.71 9.09C41.57 8.76333 41.2667 8.6 40.8 8.6H39.75C39.4233 8.6 39.1433 8.64667 38.91 8.74C38.6767 8.83333 38.42 9.11333 38.14 9.58L29.6 22.46C28.76 23.72 28.1067 24.5833 27.64 25.05C27.22 25.5167 26.4967 25.75 25.47 25.75C24.4433 25.75 23.6967 25.5167 23.23 25.05C22.81 24.5833 22.18 23.72 21.34 22.46L12.8 9.58C12.52 9.11333 12.24 8.83333 11.96 8.74C11.7267 8.64667 11.4467 8.6 11.12 8.6H10.07C9.60333 8.6 9.3 8.76333 9.16 9.09C9.02 9.37 8.95 9.69666 8.95 10.07V45.7H8.25V10.07C8.25 9.32333 8.39 8.78667 8.67 8.46C8.99667 8.08666 9.46333 7.9 10.07 7.9H11.26C11.6333 7.9 12.0067 7.99333 12.38 8.18C12.7533 8.32 13.08 8.62333 13.36 9.09L21.9 22.11C22.6933 23.3233 23.2767 24.1167 23.65 24.49C24.0233 24.8633 24.63 25.05 25.47 25.05ZM13.78 52C14.6667 52 15.2967 51.8133 15.67 51.44C16.09 51.02 16.3 50.3667 16.3 49.48V24.84L20.43 32.47C20.85 33.2633 21.34 33.8467 21.9 34.22C22.5067 34.5467 23.2533 34.71 24.14 34.71H26.94C27.8267 34.71 28.55 34.5467 29.11 34.22C29.7167 33.8467 30.23 33.2633 30.65 32.47L34.78 24.84V49.48C34.78 50.3667 34.9667 51.02 35.34 51.44C35.76 51.8133 36.4133 52 37.3 52H48.08C48.9667 52 49.5967 51.8133 49.97 51.44C50.39 51.02 50.6 50.3667 50.6 49.48V4.12C50.6 3.23333 50.39 2.60333 49.97 2.23C49.5967 1.81 48.9667 1.6 48.08 1.6H36.74C35.9933 1.6 35.3633 1.76333 34.85 2.09C34.3833 2.41666 33.94 2.95333 33.52 3.7L27.29 15.11C27.0567 15.53 26.8467 15.8333 26.66 16.02C26.52 16.2067 26.31 16.3 26.03 16.3H25.4C25.12 16.3 24.8867 16.2067 24.7 16.02C24.56 15.8333 24.3733 15.53 24.14 15.11L17.84 3.7C17.42 2.95333 16.9533 2.41666 16.44 2.09C15.9733 1.76333 15.3667 1.6 14.62 1.6H3.35C2.46333 1.6 1.81 1.81 1.39 2.23C1.01667 2.60333 0.83 3.23333 0.83 4.12V49.48C0.83 50.3667 1.01667 51.02 1.39 51.44C1.81 51.8133 2.46333 52 3.35 52H13.78ZM13.78 52.7H3.35C2.23 52.7 1.41333 52.4433 0.9 51.93C0.386667 51.4167 0.13 50.6 0.13 49.48V4.12C0.13 3 0.386667 2.18333 0.9 1.67C1.41333 1.15666 2.23 0.899999 3.35 0.899999H14.62C15.5067 0.899999 16.23 1.08666 16.79 1.46C17.3967 1.83333 17.9567 2.46333 18.47 3.35L24.77 14.76C24.8633 14.9467 24.9333 15.1333 24.98 15.32C25.0733 15.5067 25.2133 15.6 25.4 15.6H26.03C26.2167 15.6 26.3333 15.5067 26.38 15.32C26.4733 15.1333 26.5667 14.9467 26.66 14.76L32.89 3.35C33.4033 2.46333 33.94 1.83333 34.5 1.46C35.1067 1.08666 35.8533 0.899999 36.74 0.899999H48.08C49.2 0.899999 50.0167 1.15666 50.53 1.67C51.0433 2.18333 51.3 3 51.3 4.12V49.48C51.3 50.6 51.0433 51.4167 50.53 51.93C50.0167 52.4433 49.2 52.7 48.08 52.7H37.3C36.1333 52.7 35.2933 52.4433 34.78 51.93C34.3133 51.4167 34.08 50.6 34.08 49.48V27.64L31.28 32.82C30.8133 33.7067 30.23 34.36 29.53 34.78C28.83 35.2 27.9667 35.41 26.94 35.41H24.14C23.1133 35.41 22.25 35.2 21.55 34.78C20.85 34.36 20.2667 33.7067 19.8 32.82L17 27.64V49.48C17 50.6 16.7433 51.4167 16.23 51.93C15.7167 52.4433 14.9 52.7 13.78 52.7ZM62.7543 52.7C61.6343 52.7 60.8176 52.4433 60.3043 51.93C59.791 51.4167 59.5343 50.6 59.5343 49.48V4.12C59.5343 3 59.791 2.18333 60.3043 1.67C60.8176 1.15666 61.6343 0.899999 62.7543 0.899999H95.2343C96.3543 0.899999 97.171 1.15666 97.6843 1.67C98.1976 2.18333 98.4543 3 98.4543 4.12V12.31C98.4543 13.43 98.1976 14.2467 97.6843 14.76C97.171 15.2733 96.3543 15.53 95.2343 15.53H76.6143V19.52H89.5643C90.6843 19.52 91.501 19.7767 92.0143 20.29C92.5276 20.8033 92.7843 21.62 92.7843 22.74V30.23C92.7843 31.35 92.5276 32.1667 92.0143 32.68C91.501 33.1933 90.6843 33.45 89.5643 33.45H76.6143V38.07H95.2343C96.3543 38.07 97.171 38.3267 97.6843 38.84C98.1976 39.3533 98.4543 40.17 98.4543 41.29V49.48C98.4543 50.6 98.1976 51.4167 97.6843 51.93C97.171 52.4433 96.3543 52.7 95.2343 52.7H62.7543ZM95.2343 52C96.121 52 96.751 51.8133 97.1243 51.44C97.5443 51.02 97.7543 50.3667 97.7543 49.48V41.29C97.7543 40.4033 97.5443 39.7733 97.1243 39.4C96.751 38.98 96.121 38.77 95.2343 38.77H75.9143V32.75H89.5643C90.451 32.75 91.081 32.5633 91.4543 32.19C91.8743 31.77 92.0843 31.1167 92.0843 30.23V22.74C92.0843 21.8533 91.8743 21.2233 91.4543 20.85C91.081 20.43 90.451 20.22 89.5643 20.22H75.9143V14.83H95.2343C96.121 14.83 96.751 14.6433 97.1243 14.27C97.5443 13.85 97.7543 13.1967 97.7543 12.31V4.12C97.7543 3.23333 97.5443 2.60333 97.1243 2.23C96.751 1.81 96.121 1.6 95.2343 1.6H62.7543C61.8676 1.6 61.2143 1.81 60.7943 2.23C60.421 2.60333 60.2343 3.23333 60.2343 4.12V49.48C60.2343 50.3667 60.421 51.02 60.7943 51.44C61.2143 51.8133 61.8676 52 62.7543 52H95.2343ZM91.4543 45V45.7H67.8643V7.9H91.4543V8.6H68.5643V26.17H85.7843V26.87H68.5643V45H91.4543ZM108.555 52.7C107.435 52.7 106.618 52.4433 106.105 51.93C105.592 51.4167 105.335 50.6 105.335 49.48V4.12C105.335 3 105.592 2.18333 106.105 1.67C106.618 1.15666 107.435 0.899999 108.555 0.899999H141.035C142.155 0.899999 142.972 1.15666 143.485 1.67C143.998 2.18333 144.255 3 144.255 4.12V12.31C144.255 13.43 143.998 14.2467 143.485 14.76C142.972 15.2733 142.155 15.53 141.035 15.53H122.415V19.52H135.365C136.485 19.52 137.302 19.7767 137.815 20.29C138.328 20.8033 138.585 21.62 138.585 22.74V30.23C138.585 31.35 138.328 32.1667 137.815 32.68C137.302 33.1933 136.485 33.45 135.365 33.45H122.415V38.07H141.035C142.155 38.07 142.972 38.3267 143.485 38.84C143.998 39.3533 144.255 40.17 144.255 41.29V49.48C144.255 50.6 143.998 51.4167 143.485 51.93C142.972 52.4433 142.155 52.7 141.035 52.7H108.555ZM141.035 52C141.922 52 142.552 51.8133 142.925 51.44C143.345 51.02 143.555 50.3667 143.555 49.48V41.29C143.555 40.4033 143.345 39.7733 142.925 39.4C142.552 38.98 141.922 38.77 141.035 38.77H121.715V32.75H135.365C136.252 32.75 136.882 32.5633 137.255 32.19C137.675 31.77 137.885 31.1167 137.885 30.23V22.74C137.885 21.8533 137.675 21.2233 137.255 20.85C136.882 20.43 136.252 20.22 135.365 20.22H121.715V14.83H141.035C141.922 14.83 142.552 14.6433 142.925 14.27C143.345 13.85 143.555 13.1967 143.555 12.31V4.12C143.555 3.23333 143.345 2.60333 142.925 2.23C142.552 1.81 141.922 1.6 141.035 1.6H108.555C107.668 1.6 107.015 1.81 106.595 2.23C106.222 2.60333 106.035 3.23333 106.035 4.12V49.48C106.035 50.3667 106.222 51.02 106.595 51.44C107.015 51.8133 107.668 52 108.555 52H141.035ZM137.255 45V45.7H113.665V7.9H137.255V8.6H114.365V26.17H131.585V26.87H114.365V45H137.255ZM164.296 52.7C163.176 52.7 162.359 52.4433 161.846 51.93C161.333 51.4167 161.076 50.6 161.076 49.48V15.81H151.486C150.366 15.81 149.549 15.5533 149.036 15.04C148.523 14.5267 148.266 13.71 148.266 12.59V4.12C148.266 3 148.523 2.18333 149.036 1.67C149.549 1.15666 150.366 0.899999 151.486 0.899999H188.446C189.566 0.899999 190.383 1.15666 190.896 1.67C191.409 2.18333 191.666 3 191.666 4.12V12.59C191.666 13.71 191.409 14.5267 190.896 15.04C190.383 15.5533 189.566 15.81 188.446 15.81H178.856V49.48C178.856 50.6 178.599 51.4167 178.086 51.93C177.573 52.4433 176.756 52.7 175.636 52.7H164.296ZM175.636 52C176.523 52 177.153 51.8133 177.526 51.44C177.946 51.02 178.156 50.3667 178.156 49.48V15.11H188.446C189.333 15.11 189.963 14.9233 190.336 14.55C190.756 14.13 190.966 13.4767 190.966 12.59V4.12C190.966 3.23333 190.756 2.60333 190.336 2.23C189.963 1.81 189.333 1.6 188.446 1.6H151.486C150.599 1.6 149.946 1.81 149.526 2.23C149.153 2.60333 148.966 3.23333 148.966 4.12V12.59C148.966 13.4767 149.153 14.13 149.526 14.55C149.946 14.9233 150.599 15.11 151.486 15.11H161.776V49.48C161.776 50.3667 161.963 51.02 162.336 51.44C162.756 51.8133 163.409 52 164.296 52H175.636ZM169.616 45.7V8.6H155.266V7.9H184.666V8.6H170.316V45.7H169.616ZM224.589 52.7C223.469 52.7 222.652 52.4433 222.139 51.93C221.625 51.4167 221.369 50.6 221.369 49.48V15.81H211.779C210.659 15.81 209.842 15.5533 209.329 15.04C208.815 14.5267 208.559 13.71 208.559 12.59V4.12C208.559 3 208.815 2.18333 209.329 1.67C209.842 1.15666 210.659 0.899999 211.779 0.899999H248.739C249.859 0.899999 250.675 1.15666 251.189 1.67C251.702 2.18333 251.959 3 251.959 4.12V12.59C251.959 13.71 251.702 14.5267 251.189 15.04C250.675 15.5533 249.859 15.81 248.739 15.81H239.149V49.48C239.149 50.6 238.892 51.4167 238.379 51.93C237.865 52.4433 237.049 52.7 235.929 52.7H224.589ZM235.929 52C236.815 52 237.445 51.8133 237.819 51.44C238.239 51.02 238.449 50.3667 238.449 49.48V15.11H248.739C249.625 15.11 250.255 14.9233 250.629 14.55C251.049 14.13 251.259 13.4767 251.259 12.59V4.12C251.259 3.23333 251.049 2.60333 250.629 2.23C250.255 1.81 249.625 1.6 248.739 1.6H211.779C210.892 1.6 210.239 1.81 209.819 2.23C209.445 2.60333 209.259 3.23333 209.259 4.12V12.59C209.259 13.4767 209.445 14.13 209.819 14.55C210.239 14.9233 210.892 15.11 211.779 15.11H222.069V49.48C222.069 50.3667 222.255 51.02 222.629 51.44C223.049 51.8133 223.702 52 224.589 52H235.929ZM229.909 45.7V8.6H215.559V7.9H244.959V8.6H230.609V45.7H229.909ZM265.626 45.7V7.9H266.326V26.45H293.206V7.9H293.906V45.7H293.206V27.15H266.326V45.7H265.626ZM271.436 52C272.323 52 272.953 51.8133 273.326 51.44C273.746 51.02 273.956 50.3667 273.956 49.48V33.94H285.646V49.48C285.646 50.3667 285.833 51.02 286.206 51.44C286.626 51.8133 287.28 52 288.166 52H299.016C299.903 52 300.533 51.8133 300.906 51.44C301.326 51.02 301.536 50.3667 301.536 49.48V4.12C301.536 3.23333 301.326 2.60333 300.906 2.23C300.533 1.81 299.903 1.6 299.016 1.6H288.166C287.28 1.6 286.626 1.81 286.206 2.23C285.833 2.60333 285.646 3.23333 285.646 4.12V19.31H273.956V4.12C273.956 3.23333 273.746 2.60333 273.326 2.23C272.953 1.81 272.323 1.6 271.436 1.6H260.586C259.7 1.6 259.046 1.81 258.626 2.23C258.253 2.60333 258.066 3.23333 258.066 4.12V49.48C258.066 50.3667 258.253 51.02 258.626 51.44C259.046 51.8133 259.7 52 260.586 52H271.436ZM260.586 52.7C259.466 52.7 258.65 52.4433 258.136 51.93C257.623 51.4167 257.366 50.6 257.366 49.48V4.12C257.366 3 257.623 2.18333 258.136 1.67C258.65 1.15666 259.466 0.899999 260.586 0.899999H271.436C272.556 0.899999 273.373 1.15666 273.886 1.67C274.4 2.18333 274.656 3 274.656 4.12V18.61H284.946V4.12C284.946 3 285.203 2.18333 285.716 1.67C286.23 1.15666 287.046 0.899999 288.166 0.899999H299.016C300.136 0.899999 300.953 1.15666 301.466 1.67C301.98 2.18333 302.236 3 302.236 4.12V49.48C302.236 50.6 301.98 51.4167 301.466 51.93C300.953 52.4433 300.136 52.7 299.016 52.7H288.166C287.046 52.7 286.23 52.4433 285.716 51.93C285.203 51.4167 284.946 50.6 284.946 49.48V34.64H274.656V49.48C274.656 50.6 274.4 51.4167 273.886 51.93C273.373 52.4433 272.556 52.7 271.436 52.7H260.586ZM313.702 52.7C312.582 52.7 311.765 52.4433 311.252 51.93C310.738 51.4167 310.482 50.6 310.482 49.48V4.12C310.482 3 310.738 2.18333 311.252 1.67C311.765 1.15666 312.582 0.899999 313.702 0.899999H346.182C347.302 0.899999 348.118 1.15666 348.632 1.67C349.145 2.18333 349.402 3 349.402 4.12V12.31C349.402 13.43 349.145 14.2467 348.632 14.76C348.118 15.2733 347.302 15.53 346.182 15.53H327.562V19.52H340.512C341.632 19.52 342.448 19.7767 342.962 20.29C343.475 20.8033 343.732 21.62 343.732 22.74V30.23C343.732 31.35 343.475 32.1667 342.962 32.68C342.448 33.1933 341.632 33.45 340.512 33.45H327.562V38.07H346.182C347.302 38.07 348.118 38.3267 348.632 38.84C349.145 39.3533 349.402 40.17 349.402 41.29V49.48C349.402 50.6 349.145 51.4167 348.632 51.93C348.118 52.4433 347.302 52.7 346.182 52.7H313.702ZM346.182 52C347.068 52 347.698 51.8133 348.072 51.44C348.492 51.02 348.702 50.3667 348.702 49.48V41.29C348.702 40.4033 348.492 39.7733 348.072 39.4C347.698 38.98 347.068 38.77 346.182 38.77H326.862V32.75H340.512C341.398 32.75 342.028 32.5633 342.402 32.19C342.822 31.77 343.032 31.1167 343.032 30.23V22.74C343.032 21.8533 342.822 21.2233 342.402 20.85C342.028 20.43 341.398 20.22 340.512 20.22H326.862V14.83H346.182C347.068 14.83 347.698 14.6433 348.072 14.27C348.492 13.85 348.702 13.1967 348.702 12.31V4.12C348.702 3.23333 348.492 2.60333 348.072 2.23C347.698 1.81 347.068 1.6 346.182 1.6H313.702C312.815 1.6 312.162 1.81 311.742 2.23C311.368 2.60333 311.182 3.23333 311.182 4.12V49.48C311.182 50.3667 311.368 51.02 311.742 51.44C312.162 51.8133 312.815 52 313.702 52H346.182ZM342.402 45V45.7H318.812V7.9H342.402V8.6H319.512V26.17H336.732V26.87H319.512V45H342.402ZM384.481 52.7C383.361 52.7 382.545 52.4433 382.031 51.93C381.518 51.4167 381.261 50.6 381.261 49.48V15.81H371.671C370.551 15.81 369.735 15.5533 369.221 15.04C368.708 14.5267 368.451 13.71 368.451 12.59V4.12C368.451 3 368.708 2.18333 369.221 1.67C369.735 1.15666 370.551 0.899999 371.671 0.899999H408.631C409.751 0.899999 410.568 1.15666 411.081 1.67C411.595 2.18333 411.851 3 411.851 4.12V12.59C411.851 13.71 411.595 14.5267 411.081 15.04C410.568 15.5533 409.751 15.81 408.631 15.81H399.041V49.48C399.041 50.6 398.785 51.4167 398.271 51.93C397.758 52.4433 396.941 52.7 395.821 52.7H384.481ZM395.821 52C396.708 52 397.338 51.8133 397.711 51.44C398.131 51.02 398.341 50.3667 398.341 49.48V15.11H408.631C409.518 15.11 410.148 14.9233 410.521 14.55C410.941 14.13 411.151 13.4767 411.151 12.59V4.12C411.151 3.23333 410.941 2.60333 410.521 2.23C410.148 1.81 409.518 1.6 408.631 1.6H371.671C370.785 1.6 370.131 1.81 369.711 2.23C369.338 2.60333 369.151 3.23333 369.151 4.12V12.59C369.151 13.4767 369.338 14.13 369.711 14.55C370.131 14.9233 370.785 15.11 371.671 15.11H381.961V49.48C381.961 50.3667 382.148 51.02 382.521 51.44C382.941 51.8133 383.595 52 384.481 52H395.821ZM389.801 45.7V8.6H375.451V7.9H404.851V8.6H390.501V45.7H389.801ZM420.479 52.7C419.359 52.7 418.542 52.4433 418.029 51.93C417.516 51.4167 417.259 50.6 417.259 49.48V4.12C417.259 3 417.516 2.18333 418.029 1.67C418.542 1.15666 419.359 0.899999 420.479 0.899999H452.959C454.079 0.899999 454.896 1.15666 455.409 1.67C455.922 2.18333 456.179 3 456.179 4.12V12.31C456.179 13.43 455.922 14.2467 455.409 14.76C454.896 15.2733 454.079 15.53 452.959 15.53H434.339V19.52H447.289C448.409 19.52 449.226 19.7767 449.739 20.29C450.252 20.8033 450.509 21.62 450.509 22.74V30.23C450.509 31.35 450.252 32.1667 449.739 32.68C449.226 33.1933 448.409 33.45 447.289 33.45H434.339V38.07H452.959C454.079 38.07 454.896 38.3267 455.409 38.84C455.922 39.3533 456.179 40.17 456.179 41.29V49.48C456.179 50.6 455.922 51.4167 455.409 51.93C454.896 52.4433 454.079 52.7 452.959 52.7H420.479ZM452.959 52C453.846 52 454.476 51.8133 454.849 51.44C455.269 51.02 455.479 50.3667 455.479 49.48V41.29C455.479 40.4033 455.269 39.7733 454.849 39.4C454.476 38.98 453.846 38.77 452.959 38.77H433.639V32.75H447.289C448.176 32.75 448.806 32.5633 449.179 32.19C449.599 31.77 449.809 31.1167 449.809 30.23V22.74C449.809 21.8533 449.599 21.2233 449.179 20.85C448.806 20.43 448.176 20.22 447.289 20.22H433.639V14.83H452.959C453.846 14.83 454.476 14.6433 454.849 14.27C455.269 13.85 455.479 13.1967 455.479 12.31V4.12C455.479 3.23333 455.269 2.60333 454.849 2.23C454.476 1.81 453.846 1.6 452.959 1.6H420.479C419.592 1.6 418.939 1.81 418.519 2.23C418.146 2.60333 417.959 3.23333 417.959 4.12V49.48C417.959 50.3667 418.146 51.02 418.519 51.44C418.939 51.8133 419.592 52 420.479 52H452.959ZM449.179 45V45.7H425.589V7.9H449.179V8.6H426.289V26.17H443.509V26.87H426.289V45H449.179ZM470.83 30.79V32.96H498.13V30.79C498.13 29.53 498.013 28.3633 497.78 27.29C497.593 26.2167 497.336 25.2133 497.01 24.28L492.18 12.87C491.666 11.6567 491.13 10.6533 490.57 9.86C490.01 9.02 489.076 8.6 487.77 8.6H480.91C479.51 8.6 478.53 9.02 477.97 9.86C477.41 10.6533 476.896 11.6333 476.43 12.8L471.95 24.28C471.623 25.2133 471.343 26.2167 471.11 27.29C470.923 28.3633 470.83 29.53 470.83 30.79ZM482.03 16.3C482.216 15.88 482.403 15.5767 482.59 15.39C482.823 15.2033 483.08 15.11 483.36 15.11H485.11C485.39 15.11 485.623 15.2033 485.81 15.39C486.043 15.5767 486.253 15.88 486.44 16.3L489.73 26.94H478.74L482.03 16.3ZM485.74 16.51L485.81 16.58C485.716 16.3933 485.623 16.23 485.53 16.09C485.436 15.9033 485.296 15.81 485.11 15.81H483.36C483.173 15.81 483.033 15.9033 482.94 16.09C482.846 16.23 482.753 16.3933 482.66 16.58L482.73 16.51L479.72 26.24H488.75L485.74 16.51ZM498.13 45.7V33.66H470.83V45.7H470.13V30.79C470.13 29.4833 470.223 28.2933 470.41 27.22C470.643 26.1 470.946 25.0267 471.32 24L475.8 12.52C476.313 11.2133 476.896 10.1167 477.55 9.23C478.203 8.34333 479.323 7.9 480.91 7.9H487.77C489.31 7.9 490.383 8.34333 490.99 9.23C491.643 10.1167 492.25 11.2367 492.81 12.59L497.64 24C498.013 25.0267 498.293 26.1 498.48 27.22C498.713 28.2933 498.83 29.4833 498.83 30.79V45.7H498.13ZM478.04 49.48V39.68H490.43V49.48C490.43 50.3667 490.64 51.02 491.06 51.44C491.526 51.8133 492.226 52 493.16 52H503.73C504.616 52 505.246 51.8133 505.62 51.44C506.04 51.02 506.25 50.3667 506.25 49.48V31C506.25 29.6 506.016 27.99 505.55 26.17C505.13 24.35 504.453 22.2267 503.52 19.8L497.43 3.91C497.15 3.11666 496.706 2.53333 496.1 2.16C495.54 1.78667 494.816 1.6 493.93 1.6H475.1C474.166 1.6 473.396 1.78667 472.79 2.16C472.23 2.53333 471.81 3.11666 471.53 3.91L465.44 19.8C464.506 22.2267 463.806 24.35 463.34 26.17C462.92 27.99 462.71 29.6 462.71 31V49.48C462.71 50.3667 462.896 51.02 463.27 51.44C463.69 51.8133 464.343 52 465.23 52H475.52C476.406 52 477.036 51.8133 477.41 51.44C477.83 51.02 478.04 50.3667 478.04 49.48ZM465.23 52.7C464.11 52.7 463.293 52.4433 462.78 51.93C462.266 51.4167 462.01 50.6 462.01 49.48V31C462.01 29.5533 462.22 27.92 462.64 26.1C463.106 24.2333 463.83 22.04 464.81 19.52L470.9 3.7C471.226 2.72 471.716 2.02 472.37 1.6C473.07 1.13333 473.98 0.899999 475.1 0.899999H493.93C495.003 0.899999 495.866 1.13333 496.52 1.6C497.22 2.02 497.733 2.69666 498.06 3.63L504.15 19.52C505.13 22.04 505.83 24.2333 506.25 26.1C506.716 27.92 506.95 29.5533 506.95 31V49.48C506.95 50.6 506.693 51.4167 506.18 51.93C505.666 52.4433 504.85 52.7 503.73 52.7H493.16C491.993 52.7 491.13 52.4433 490.57 51.93C490.01 51.37 489.73 50.5533 489.73 49.48V40.38H478.74V49.48C478.74 50.6 478.483 51.4167 477.97 51.93C477.456 52.4433 476.64 52.7 475.52 52.7H465.23ZM539.533 25.05C540.373 25.05 540.979 24.8633 541.353 24.49C541.726 24.1167 542.309 23.3233 543.103 22.11L551.643 9.09C551.923 8.62333 552.226 8.32 552.553 8.18C552.926 7.99333 553.299 7.9 553.673 7.9H554.863C555.516 7.9 555.983 8.08666 556.263 8.46C556.589 8.78667 556.753 9.32333 556.753 10.07V45.7H556.053V10.07C556.053 9.69666 555.959 9.37 555.773 9.09C555.633 8.76333 555.329 8.6 554.863 8.6H553.812C553.486 8.6 553.206 8.64667 552.973 8.74C552.739 8.83333 552.483 9.11333 552.203 9.58L543.663 22.46C542.823 23.72 542.169 24.5833 541.703 25.05C541.283 25.5167 540.559 25.75 539.533 25.75C538.506 25.75 537.759 25.5167 537.293 25.05C536.873 24.5833 536.243 23.72 535.403 22.46L526.863 9.58C526.583 9.11333 526.303 8.83333 526.023 8.74C525.789 8.64667 525.509 8.6 525.183 8.6H524.133C523.666 8.6 523.363 8.76333 523.223 9.09C523.083 9.37 523.013 9.69666 523.013 10.07V45.7H522.313V10.07C522.313 9.32333 522.453 8.78667 522.733 8.46C523.059 8.08666 523.526 7.9 524.133 7.9H525.323C525.696 7.9 526.069 7.99333 526.443 8.18C526.816 8.32 527.143 8.62333 527.423 9.09L535.963 22.11C536.756 23.3233 537.339 24.1167 537.713 24.49C538.086 24.8633 538.693 25.05 539.533 25.05ZM527.843 52C528.729 52 529.359 51.8133 529.733 51.44C530.153 51.02 530.363 50.3667 530.363 49.48V24.84L534.493 32.47C534.913 33.2633 535.403 33.8467 535.963 34.22C536.569 34.5467 537.316 34.71 538.203 34.71H541.003C541.889 34.71 542.613 34.5467 543.173 34.22C543.779 33.8467 544.293 33.2633 544.713 32.47L548.843 24.84V49.48C548.843 50.3667 549.029 51.02 549.403 51.44C549.823 51.8133 550.476 52 551.363 52H562.143C563.029 52 563.659 51.8133 564.033 51.44C564.453 51.02 564.663 50.3667 564.663 49.48V4.12C564.663 3.23333 564.453 2.60333 564.033 2.23C563.659 1.81 563.029 1.6 562.143 1.6H550.803C550.056 1.6 549.426 1.76333 548.913 2.09C548.446 2.41666 548.003 2.95333 547.583 3.7L541.353 15.11C541.119 15.53 540.909 15.8333 540.723 16.02C540.583 16.2067 540.373 16.3 540.093 16.3H539.463C539.183 16.3 538.949 16.2067 538.763 16.02C538.623 15.8333 538.436 15.53 538.203 15.11L531.903 3.7C531.483 2.95333 531.016 2.41666 530.503 2.09C530.036 1.76333 529.429 1.6 528.683 1.6H517.413C516.526 1.6 515.873 1.81 515.453 2.23C515.079 2.60333 514.893 3.23333 514.893 4.12V49.48C514.893 50.3667 515.079 51.02 515.453 51.44C515.873 51.8133 516.526 52 517.413 52H527.843ZM527.843 52.7H517.413C516.293 52.7 515.476 52.4433 514.963 51.93C514.449 51.4167 514.193 50.6 514.193 49.48V4.12C514.193 3 514.449 2.18333 514.963 1.67C515.476 1.15666 516.293 0.899999 517.413 0.899999H528.683C529.569 0.899999 530.293 1.08666 530.853 1.46C531.459 1.83333 532.019 2.46333 532.533 3.35L538.833 14.76C538.926 14.9467 538.996 15.1333 539.043 15.32C539.136 15.5067 539.276 15.6 539.463 15.6H540.093C540.279 15.6 540.396 15.5067 540.443 15.32C540.536 15.1333 540.629 14.9467 540.723 14.76L546.953 3.35C547.466 2.46333 548.003 1.83333 548.563 1.46C549.169 1.08666 549.916 0.899999 550.803 0.899999H562.143C563.263 0.899999 564.079 1.15666 564.593 1.67C565.106 2.18333 565.363 3 565.363 4.12V49.48C565.363 50.6 565.106 51.4167 564.593 51.93C564.079 52.4433 563.263 52.7 562.143 52.7H551.363C550.196 52.7 549.356 52.4433 548.843 51.93C548.376 51.4167 548.143 50.6 548.143 49.48V27.64L545.343 32.82C544.876 33.7067 544.293 34.36 543.593 34.78C542.893 35.2 542.029 35.41 541.003 35.41H538.203C537.176 35.41 536.313 35.2 535.613 34.78C534.913 34.36 534.329 33.7067 533.863 32.82L531.063 27.64V49.48C531.063 50.6 530.806 51.4167 530.293 51.93C529.779 52.4433 528.963 52.7 527.843 52.7Z" fill="#B1E8F4"/>
</svg>
