<svg width="570" height="55" viewBox="0 0 533 48" fill="none" xmlns="http://www.w3.org/2000/svg">
<path d="M22.92 7.32H8.968V25.816H22.92C25.5653 25.816 27.336 25.176 28.232 23.896C29.128 22.616 29.576 20.8027 29.576 18.456V13.976C29.576 12.0133 29.0213 10.4133 27.912 9.176C26.8453 7.93867 25.1813 7.32 22.92 7.32ZM15.88 12.44H20.68C21.7893 12.44 22.536 12.7387 22.92 13.336C23.304 13.8907 23.496 14.5947 23.496 15.448V17.624C23.496 18.4773 23.304 19.2027 22.92 19.8C22.536 20.3547 21.7893 20.632 20.68 20.632H15.88V12.44ZM20.68 13.08H16.52V19.992H20.68C21.576 19.992 22.152 19.7787 22.408 19.352C22.7067 18.8827 22.856 18.3067 22.856 17.624V15.448C22.856 14.7653 22.7067 14.2107 22.408 13.784C22.152 13.3147 21.576 13.08 20.68 13.08ZM8.968 41.24H8.328V6.68H22.92C25.3947 6.68 27.2293 7.384 28.424 8.792C29.6187 10.1573 30.216 11.8853 30.216 13.976V18.392C30.216 20.3547 29.96 21.976 29.448 23.256C28.936 24.4933 27.912 25.3467 26.376 25.816H27.08C29.6827 25.816 31.624 26.4133 32.904 27.608C34.184 28.76 34.824 30.4453 34.824 32.664V41.24H34.184V32.664C34.184 30.5733 33.608 29.016 32.456 27.992C31.304 26.9253 29.512 26.392 27.08 26.392H8.968V41.24ZM13.576 47C14.3867 47 14.9627 46.8293 15.304 46.488C15.688 46.104 15.88 45.5067 15.88 44.696V32.152H24.84C25.736 32.152 26.3547 32.3867 26.696 32.856C27.08 33.2827 27.272 33.9653 27.272 34.904V44.696C27.272 45.5067 27.4427 46.104 27.784 46.488C28.168 46.8293 28.7653 47 29.576 47H39.496C40.3067 47 40.8827 46.8293 41.224 46.488C41.608 46.104 41.8 45.5067 41.8 44.696V31.128C41.8 28.44 41.0747 26.2853 39.624 24.664C38.216 23.0427 36.36 22.104 34.056 21.848C35.3787 21.2933 36.296 20.3973 36.808 19.16C37.3627 17.88 37.64 16.344 37.64 14.552V11.608C37.64 8.45066 36.7227 5.89066 34.888 3.928C33.096 1.92266 29.8107 0.919998 25.032 0.919998H3.72C2.90933 0.919998 2.312 1.112 1.928 1.496C1.58667 1.83733 1.416 2.41333 1.416 3.224V44.696C1.416 45.5067 1.58667 46.104 1.928 46.488C2.312 46.8293 2.90933 47 3.72 47H13.576ZM13.576 47.64H3.72C2.696 47.64 1.94933 47.4053 1.48 46.936C1.01067 46.4667 0.776 45.72 0.776 44.696V3.224C0.776 2.2 1.01067 1.45333 1.48 0.983997C1.94933 0.514665 2.696 0.279999 3.72 0.279999H25.032C30.1093 0.279999 33.5867 1.34667 35.464 3.48C37.3413 5.57066 38.28 8.28 38.28 11.608V14.552C38.28 16.1307 38.088 17.5173 37.704 18.712C37.32 19.864 36.68 20.8027 35.784 21.528C37.7893 22.0827 39.3893 23.192 40.584 24.856C41.8213 26.52 42.44 28.6107 42.44 31.128V44.696C42.44 45.72 42.2053 46.4667 41.736 46.936C41.2667 47.4053 40.52 47.64 39.496 47.64H29.576C28.552 47.64 27.8053 47.4053 27.336 46.936C26.8667 46.4667 26.632 45.72 26.632 44.696V34.904C26.632 34.2213 26.504 33.7093 26.248 33.368C25.992 32.984 25.5227 32.792 24.84 32.792H16.52V44.696C16.52 45.72 16.2853 46.4667 15.816 46.936C15.3467 47.4053 14.6 47.64 13.576 47.64ZM51.2825 47.64C50.2585 47.64 49.5118 47.4053 49.0425 46.936C48.5732 46.4667 48.3385 45.72 48.3385 44.696V3.224C48.3385 2.2 48.5732 1.45333 49.0425 0.983997C49.5118 0.514665 50.2585 0.279999 51.2825 0.279999H80.9785C82.0025 0.279999 82.7492 0.514665 83.2185 0.983997C83.6878 1.45333 83.9225 2.2 83.9225 3.224V10.712C83.9225 11.736 83.6878 12.4827 83.2185 12.952C82.7492 13.4213 82.0025 13.656 80.9785 13.656H63.9545V17.304H75.7945C76.8185 17.304 77.5652 17.5387 78.0345 18.008C78.5038 18.4773 78.7385 19.224 78.7385 20.248V27.096C78.7385 28.12 78.5038 28.8667 78.0345 29.336C77.5652 29.8053 76.8185 30.04 75.7945 30.04H63.9545V34.264H80.9785C82.0025 34.264 82.7492 34.4987 83.2185 34.968C83.6878 35.4373 83.9225 36.184 83.9225 37.208V44.696C83.9225 45.72 83.6878 46.4667 83.2185 46.936C82.7492 47.4053 82.0025 47.64 80.9785 47.64H51.2825ZM80.9785 47C81.7892 47 82.3652 46.8293 82.7065 46.488C83.0905 46.104 83.2825 45.5067 83.2825 44.696V37.208C83.2825 36.3973 83.0905 35.8213 82.7065 35.48C82.3652 35.096 81.7892 34.904 80.9785 34.904H63.3145V29.4H75.7945C76.6052 29.4 77.1812 29.2293 77.5225 28.888C77.9065 28.504 78.0985 27.9067 78.0985 27.096V20.248C78.0985 19.4373 77.9065 18.8613 77.5225 18.52C77.1812 18.136 76.6052 17.944 75.7945 17.944H63.3145V13.016H80.9785C81.7892 13.016 82.3652 12.8453 82.7065 12.504C83.0905 12.12 83.2825 11.5227 83.2825 10.712V3.224C83.2825 2.41333 83.0905 1.83733 82.7065 1.496C82.3652 1.112 81.7892 0.919998 80.9785 0.919998H51.2825C50.4718 0.919998 49.8745 1.112 49.4905 1.496C49.1492 1.83733 48.9785 2.41333 48.9785 3.224V44.696C48.9785 45.5067 49.1492 46.104 49.4905 46.488C49.8745 46.8293 50.4718 47 51.2825 47H80.9785ZM77.5225 40.6V41.24H55.9545V6.68H77.5225V7.32H56.5945V23.384H72.3385V24.024H56.5945V40.6H77.5225ZM124.141 44.696C124.141 45.72 123.906 46.4667 123.437 46.936C122.968 47.4053 122.221 47.64 121.197 47.64H105.581C99.9917 47.64 95.853 46.5093 93.165 44.248C90.5197 41.9867 89.197 38.552 89.197 33.944V14.04C89.197 9.38933 90.5197 5.93333 93.165 3.672C95.853 1.41066 99.9917 0.279999 105.581 0.279999H121.197C122.221 0.279999 122.968 0.514665 123.437 0.983997C123.906 1.45333 124.141 2.2 124.141 3.224V10.968C124.141 11.992 123.906 12.7387 123.437 13.208C122.968 13.6773 122.221 13.912 121.197 13.912H108.333C107.266 13.912 106.456 14.1253 105.901 14.552C105.346 14.936 105.069 15.576 105.069 16.472V31.704C105.069 32.6 105.346 33.24 105.901 33.624C106.456 33.9653 107.266 34.136 108.333 34.136H121.197C122.221 34.136 122.968 34.3707 123.437 34.84C123.906 35.3093 124.141 36.056 124.141 37.08V44.696ZM121.197 47C122.008 47 122.584 46.8293 122.925 46.488C123.309 46.104 123.501 45.5067 123.501 44.696V37.08C123.501 36.2693 123.309 35.6933 122.925 35.352C122.584 34.968 122.008 34.776 121.197 34.776H108.333C107.01 34.776 106.029 34.5413 105.389 34.072C104.749 33.56 104.429 32.7707 104.429 31.704V16.472C104.429 15.4053 104.749 14.616 105.389 14.104C106.029 13.5493 107.01 13.272 108.333 13.272H121.197C122.008 13.272 122.584 13.1013 122.925 12.76C123.309 12.376 123.501 11.7787 123.501 10.968V3.224C123.501 2.41333 123.309 1.83733 122.925 1.496C122.584 1.112 122.008 0.919998 121.197 0.919998H105.581C100.248 0.919998 96.2797 2.008 93.677 4.184C91.117 6.31733 89.837 9.60266 89.837 14.04V33.944C89.837 38.3813 91.117 41.6667 93.677 43.8C96.2797 45.9333 100.248 47 105.581 47H121.197ZM117.677 40.6V41.24H106.989C102.85 41.24 100.098 40.6 98.733 39.32C97.4103 38.04 96.749 35.928 96.749 32.984V15.064C96.749 12.0347 97.4317 9.88 98.797 8.6C100.162 7.32 102.893 6.68 106.989 6.68H117.677V7.32H106.989C103.234 7.32 100.696 7.91733 99.373 9.112C98.0503 10.264 97.389 12.248 97.389 15.064V32.984C97.389 35.7573 98.029 37.72 99.309 38.872C100.589 40.024 103.149 40.6 106.989 40.6H117.677ZM133.033 47.64C132.009 47.64 131.262 47.4053 130.793 46.936C130.323 46.4667 130.089 45.72 130.089 44.696V3.224C130.089 2.2 130.323 1.45333 130.793 0.983997C131.262 0.514665 132.009 0.279999 133.033 0.279999H162.729C163.753 0.279999 164.499 0.514665 164.969 0.983997C165.438 1.45333 165.673 2.2 165.673 3.224V10.712C165.673 11.736 165.438 12.4827 164.969 12.952C164.499 13.4213 163.753 13.656 162.729 13.656H145.705V17.304H157.545C158.569 17.304 159.315 17.5387 159.785 18.008C160.254 18.4773 160.489 19.224 160.489 20.248V27.096C160.489 28.12 160.254 28.8667 159.785 29.336C159.315 29.8053 158.569 30.04 157.545 30.04H145.705V34.264H162.729C163.753 34.264 164.499 34.4987 164.969 34.968C165.438 35.4373 165.673 36.184 165.673 37.208V44.696C165.673 45.72 165.438 46.4667 164.969 46.936C164.499 47.4053 163.753 47.64 162.729 47.64H133.033ZM162.729 47C163.539 47 164.115 46.8293 164.457 46.488C164.841 46.104 165.033 45.5067 165.033 44.696V37.208C165.033 36.3973 164.841 35.8213 164.457 35.48C164.115 35.096 163.539 34.904 162.729 34.904H145.065V29.4H157.545C158.355 29.4 158.931 29.2293 159.273 28.888C159.657 28.504 159.849 27.9067 159.849 27.096V20.248C159.849 19.4373 159.657 18.8613 159.273 18.52C158.931 18.136 158.355 17.944 157.545 17.944H145.065V13.016H162.729C163.539 13.016 164.115 12.8453 164.457 12.504C164.841 12.12 165.033 11.5227 165.033 10.712V3.224C165.033 2.41333 164.841 1.83733 164.457 1.496C164.115 1.112 163.539 0.919998 162.729 0.919998H133.033C132.222 0.919998 131.625 1.112 131.241 1.496C130.899 1.83733 130.729 2.41333 130.729 3.224V44.696C130.729 45.5067 130.899 46.104 131.241 46.488C131.625 46.8293 132.222 47 133.033 47H162.729ZM159.273 40.6V41.24H137.705V6.68H159.273V7.32H138.345V23.384H154.089V24.024H138.345V40.6H159.273ZM181.052 7.192L204.604 33.688V6.68H205.244V41.24H204.604V34.648L180.412 7.512C180.369 7.46933 180.305 7.42666 180.22 7.384C180.177 7.34133 180.134 7.32 180.092 7.32C180.049 7.32 180.006 7.34133 179.964 7.384C179.964 7.42666 179.964 7.46933 179.964 7.512V41.24H179.324V7.384C179.324 7.128 179.409 6.936 179.58 6.808C179.75 6.68 179.921 6.616 180.092 6.616C180.262 6.616 180.412 6.65866 180.54 6.744C180.668 6.82933 180.838 6.97866 181.052 7.192ZM184.508 47C185.318 47 185.894 46.8293 186.236 46.488C186.62 46.104 186.812 45.5067 186.812 44.696V23.576L197.756 36.824V44.696C197.756 45.5067 197.926 46.104 198.268 46.488C198.652 46.8293 199.249 47 200.06 47H209.66C210.47 47 211.046 46.8293 211.388 46.488C211.772 46.104 211.964 45.5067 211.964 44.696V3.224C211.964 2.41333 211.772 1.83733 211.388 1.496C211.046 1.112 210.47 0.919998 209.66 0.919998H200.06C199.249 0.919998 198.652 1.112 198.268 1.496C197.926 1.83733 197.756 2.41333 197.756 3.224V16.856L185.34 2.648C184.785 2.008 184.209 1.56 183.612 1.304C183.057 1.048 182.374 0.919998 181.564 0.919998H174.908C174.097 0.919998 173.5 1.112 173.116 1.496C172.774 1.83733 172.604 2.41333 172.604 3.224V44.696C172.604 45.5067 172.774 46.104 173.116 46.488C173.5 46.8293 174.097 47 174.908 47H184.508ZM184.508 47.64H174.908C173.884 47.64 173.137 47.4053 172.668 46.936C172.198 46.4667 171.964 45.72 171.964 44.696V3.224C171.964 2.2 172.198 1.45333 172.668 0.983997C173.137 0.514665 173.884 0.279999 174.908 0.279999H181.564C182.502 0.279999 183.292 0.429331 183.932 0.727997C184.572 1.02666 185.212 1.51733 185.852 2.2L197.116 15.064V3.224C197.116 2.2 197.35 1.45333 197.82 0.983997C198.289 0.514665 199.036 0.279999 200.06 0.279999H209.66C210.684 0.279999 211.43 0.514665 211.9 0.983997C212.369 1.45333 212.604 2.2 212.604 3.224V44.696C212.604 45.72 212.369 46.4667 211.9 46.936C211.43 47.4053 210.684 47.64 209.66 47.64H200.06C199.036 47.64 198.289 47.4053 197.82 46.936C197.35 46.4667 197.116 45.72 197.116 44.696V37.08L187.452 25.368V44.696C187.452 45.72 187.217 46.4667 186.748 46.936C186.278 47.4053 185.532 47.64 184.508 47.64ZM232.183 47.64C231.159 47.64 230.412 47.4053 229.943 46.936C229.474 46.4667 229.239 45.72 229.239 44.696V13.912H220.471C219.447 13.912 218.7 13.6773 218.231 13.208C217.762 12.7387 217.527 11.992 217.527 10.968V3.224C217.527 2.2 217.762 1.45333 218.231 0.983997C218.7 0.514665 219.447 0.279999 220.471 0.279999H254.263C255.287 0.279999 256.034 0.514665 256.503 0.983997C256.972 1.45333 257.207 2.2 257.207 3.224V10.968C257.207 11.992 256.972 12.7387 256.503 13.208C256.034 13.6773 255.287 13.912 254.263 13.912H245.495V44.696C245.495 45.72 245.26 46.4667 244.791 46.936C244.322 47.4053 243.575 47.64 242.551 47.64H232.183ZM242.551 47C243.362 47 243.938 46.8293 244.279 46.488C244.663 46.104 244.855 45.5067 244.855 44.696V13.272H254.263C255.074 13.272 255.65 13.1013 255.991 12.76C256.375 12.376 256.567 11.7787 256.567 10.968V3.224C256.567 2.41333 256.375 1.83733 255.991 1.496C255.65 1.112 255.074 0.919998 254.263 0.919998H220.471C219.66 0.919998 219.063 1.112 218.679 1.496C218.338 1.83733 218.167 2.41333 218.167 3.224V10.968C218.167 11.7787 218.338 12.376 218.679 12.76C219.063 13.1013 219.66 13.272 220.471 13.272H229.879V44.696C229.879 45.5067 230.05 46.104 230.391 46.488C230.775 46.8293 231.372 47 232.183 47H242.551ZM237.047 41.24V7.32H223.927V6.68H250.807V7.32H237.687V41.24H237.047ZM278.845 47.64C277.821 47.64 277.074 47.4053 276.605 46.936C276.136 46.4667 275.901 45.72 275.901 44.696V3.224C275.901 2.2 276.136 1.45333 276.605 0.983997C277.074 0.514665 277.821 0.279999 278.845 0.279999H308.541C309.565 0.279999 310.312 0.514665 310.781 0.983997C311.25 1.45333 311.485 2.2 311.485 3.224V10.712C311.485 11.736 311.25 12.4827 310.781 12.952C310.312 13.4213 309.565 13.656 308.541 13.656H291.517V17.304H303.357C304.381 17.304 305.128 17.5387 305.597 18.008C306.066 18.4773 306.301 19.224 306.301 20.248V27.096C306.301 28.12 306.066 28.8667 305.597 29.336C305.128 29.8053 304.381 30.04 303.357 30.04H291.517V34.264H308.541C309.565 34.264 310.312 34.4987 310.781 34.968C311.25 35.4373 311.485 36.184 311.485 37.208V44.696C311.485 45.72 311.25 46.4667 310.781 46.936C310.312 47.4053 309.565 47.64 308.541 47.64H278.845ZM308.541 47C309.352 47 309.928 46.8293 310.269 46.488C310.653 46.104 310.845 45.5067 310.845 44.696V37.208C310.845 36.3973 310.653 35.8213 310.269 35.48C309.928 35.096 309.352 34.904 308.541 34.904H290.877V29.4H303.357C304.168 29.4 304.744 29.2293 305.085 28.888C305.469 28.504 305.661 27.9067 305.661 27.096V20.248C305.661 19.4373 305.469 18.8613 305.085 18.52C304.744 18.136 304.168 17.944 303.357 17.944H290.877V13.016H308.541C309.352 13.016 309.928 12.8453 310.269 12.504C310.653 12.12 310.845 11.5227 310.845 10.712V3.224C310.845 2.41333 310.653 1.83733 310.269 1.496C309.928 1.112 309.352 0.919998 308.541 0.919998H278.845C278.034 0.919998 277.437 1.112 277.053 1.496C276.712 1.83733 276.541 2.41333 276.541 3.224V44.696C276.541 45.5067 276.712 46.104 277.053 46.488C277.437 46.8293 278.034 47 278.845 47H308.541ZM305.085 40.6V41.24H283.517V6.68H305.085V7.32H284.157V23.384H299.901V24.024H284.157V40.6H305.085ZM349.52 45.144C349.136 46.0827 348.645 46.7227 348.048 47.064C347.451 47.448 346.661 47.64 345.68 47.64H329.04C328.059 47.64 327.269 47.448 326.672 47.064C326.075 46.7227 325.584 46.0827 325.2 45.144L318.928 29.464C318.544 28.4827 318.203 27.6507 317.904 26.968C317.648 26.2427 317.435 25.56 317.264 24.92C317.093 24.2373 316.965 23.5333 316.88 22.808C316.837 22.04 316.816 21.144 316.816 20.12V3.224C316.816 2.2 317.051 1.45333 317.52 0.983997C317.989 0.514665 318.736 0.279999 319.76 0.279999H329.936C330.96 0.279999 331.728 0.535998 332.24 1.048C332.795 1.51733 333.072 2.24267 333.072 3.224V20.888C333.072 21.3147 333.115 21.72 333.2 22.104C333.285 22.488 333.392 22.8933 333.52 23.32L336.592 32.28C336.635 32.4933 336.699 32.664 336.784 32.792C336.869 32.8773 336.997 32.92 337.168 32.92H337.872C338.043 32.92 338.171 32.8773 338.256 32.792C338.341 32.664 338.427 32.4933 338.512 32.28L341.52 23.256C341.648 22.8293 341.755 22.424 341.84 22.04C341.925 21.656 341.968 21.2507 341.968 20.824V3.224C341.968 2.2 342.203 1.45333 342.672 0.983997C343.141 0.514665 343.888 0.279999 344.912 0.279999H354.96C356.027 0.279999 356.773 0.514665 357.2 0.983997C357.669 1.45333 357.904 2.2 357.904 3.224V20.12C357.904 21.144 357.861 22.04 357.776 22.808C357.733 23.5333 357.627 24.2373 357.456 24.92C357.285 25.56 357.051 26.2427 356.752 26.968C356.496 27.6507 356.176 28.4827 355.792 29.464L349.52 45.144ZM345.68 47C346.491 47 347.152 46.8507 347.664 46.552C348.219 46.2533 348.645 45.6987 348.944 44.888L355.216 29.208C355.6 28.2693 355.92 27.4587 356.176 26.776C356.432 26.0507 356.645 25.368 356.816 24.728C356.987 24.088 357.093 23.4267 357.136 22.744C357.221 22.0187 357.264 21.144 357.264 20.12V3.224C357.264 2.41333 357.072 1.83733 356.688 1.496C356.347 1.112 355.771 0.919998 354.96 0.919998H344.912C344.101 0.919998 343.504 1.112 343.12 1.496C342.779 1.83733 342.608 2.41333 342.608 3.224V20.824C342.608 21.2507 342.565 21.6773 342.48 22.104C342.395 22.5307 342.267 22.9787 342.096 23.448L339.088 32.472C338.96 32.8987 338.811 33.1973 338.64 33.368C338.469 33.496 338.213 33.56 337.872 33.56H337.168C336.827 33.56 336.571 33.496 336.4 33.368C336.229 33.1973 336.08 32.8987 335.952 32.472L332.944 23.512C332.773 23.0427 332.645 22.5947 332.56 22.168C332.475 21.7413 332.432 21.3147 332.432 20.888V3.224C332.432 2.41333 332.219 1.83733 331.792 1.496C331.365 1.112 330.747 0.919998 329.936 0.919998H319.76C318.949 0.919998 318.352 1.112 317.968 1.496C317.627 1.83733 317.456 2.41333 317.456 3.224V20.12C317.456 21.144 317.477 22.0187 317.52 22.744C317.605 23.4267 317.733 24.088 317.904 24.728C318.075 25.368 318.288 26.0507 318.544 26.776C318.8 27.4587 319.12 28.2693 319.504 29.208L325.776 44.888C326.075 45.6987 326.48 46.2533 326.992 46.552C327.547 46.8507 328.229 47 329.04 47H345.68ZM324.688 6.68H325.328V20.504C325.328 21.6133 325.413 22.68 325.584 23.704C325.755 24.6853 326.011 25.6027 326.352 26.456L330.576 36.696C331.003 37.8053 331.472 38.744 331.984 39.512C332.539 40.2373 333.413 40.6 334.608 40.6H340.24C341.435 40.6 342.288 40.2373 342.8 39.512C343.355 38.744 343.845 37.8053 344.272 36.696L348.496 26.456C348.837 25.6027 349.093 24.6853 349.264 23.704C349.435 22.68 349.52 21.6133 349.52 20.504V6.68H350.16V20.504C350.16 21.6987 350.075 22.808 349.904 23.832C349.776 24.8133 349.52 25.7733 349.136 26.712L344.912 36.952C344.4 38.1893 343.824 39.2133 343.184 40.024C342.544 40.8347 341.563 41.24 340.24 41.24H334.608C333.285 41.24 332.304 40.8347 331.664 40.024C331.024 39.2133 330.448 38.1893 329.936 36.952L325.712 26.712C325.328 25.7733 325.051 24.8133 324.88 23.832C324.752 22.808 324.688 21.6987 324.688 20.504V6.68ZM367.47 47.64C366.446 47.64 365.699 47.4053 365.23 46.936C364.761 46.4667 364.526 45.72 364.526 44.696V3.224C364.526 2.2 364.761 1.45333 365.23 0.983997C365.699 0.514665 366.446 0.279999 367.47 0.279999H397.166C398.19 0.279999 398.937 0.514665 399.406 0.983997C399.875 1.45333 400.11 2.2 400.11 3.224V10.712C400.11 11.736 399.875 12.4827 399.406 12.952C398.937 13.4213 398.19 13.656 397.166 13.656H380.142V17.304H391.982C393.006 17.304 393.753 17.5387 394.222 18.008C394.691 18.4773 394.926 19.224 394.926 20.248V27.096C394.926 28.12 394.691 28.8667 394.222 29.336C393.753 29.8053 393.006 30.04 391.982 30.04H380.142V34.264H397.166C398.19 34.264 398.937 34.4987 399.406 34.968C399.875 35.4373 400.11 36.184 400.11 37.208V44.696C400.11 45.72 399.875 46.4667 399.406 46.936C398.937 47.4053 398.19 47.64 397.166 47.64H367.47ZM397.166 47C397.977 47 398.553 46.8293 398.894 46.488C399.278 46.104 399.47 45.5067 399.47 44.696V37.208C399.47 36.3973 399.278 35.8213 398.894 35.48C398.553 35.096 397.977 34.904 397.166 34.904H379.502V29.4H391.982C392.793 29.4 393.369 29.2293 393.71 28.888C394.094 28.504 394.286 27.9067 394.286 27.096V20.248C394.286 19.4373 394.094 18.8613 393.71 18.52C393.369 18.136 392.793 17.944 391.982 17.944H379.502V13.016H397.166C397.977 13.016 398.553 12.8453 398.894 12.504C399.278 12.12 399.47 11.5227 399.47 10.712V3.224C399.47 2.41333 399.278 1.83733 398.894 1.496C398.553 1.112 397.977 0.919998 397.166 0.919998H367.47C366.659 0.919998 366.062 1.112 365.678 1.496C365.337 1.83733 365.166 2.41333 365.166 3.224V44.696C365.166 45.5067 365.337 46.104 365.678 46.488C366.062 46.8293 366.659 47 367.47 47H397.166ZM393.71 40.6V41.24H372.142V6.68H393.71V7.32H372.782V23.384H388.526V24.024H372.782V40.6H393.71ZM415.489 7.192L439.041 33.688V6.68H439.681V41.24H439.041V34.648L414.849 7.512C414.806 7.46933 414.742 7.42666 414.657 7.384C414.614 7.34133 414.572 7.32 414.529 7.32C414.486 7.32 414.444 7.34133 414.401 7.384C414.401 7.42666 414.401 7.46933 414.401 7.512V41.24H413.761V7.384C413.761 7.128 413.846 6.936 414.017 6.808C414.188 6.68 414.358 6.616 414.529 6.616C414.7 6.616 414.849 6.65866 414.977 6.744C415.105 6.82933 415.276 6.97866 415.489 7.192ZM418.945 47C419.756 47 420.332 46.8293 420.673 46.488C421.057 46.104 421.249 45.5067 421.249 44.696V23.576L432.193 36.824V44.696C432.193 45.5067 432.364 46.104 432.705 46.488C433.089 46.8293 433.686 47 434.497 47H444.097C444.908 47 445.484 46.8293 445.825 46.488C446.209 46.104 446.401 45.5067 446.401 44.696V3.224C446.401 2.41333 446.209 1.83733 445.825 1.496C445.484 1.112 444.908 0.919998 444.097 0.919998H434.497C433.686 0.919998 433.089 1.112 432.705 1.496C432.364 1.83733 432.193 2.41333 432.193 3.224V16.856L419.777 2.648C419.222 2.008 418.646 1.56 418.049 1.304C417.494 1.048 416.812 0.919998 416.001 0.919998H409.345C408.534 0.919998 407.937 1.112 407.553 1.496C407.212 1.83733 407.041 2.41333 407.041 3.224V44.696C407.041 45.5067 407.212 46.104 407.553 46.488C407.937 46.8293 408.534 47 409.345 47H418.945ZM418.945 47.64H409.345C408.321 47.64 407.574 47.4053 407.105 46.936C406.636 46.4667 406.401 45.72 406.401 44.696V3.224C406.401 2.2 406.636 1.45333 407.105 0.983997C407.574 0.514665 408.321 0.279999 409.345 0.279999H416.001C416.94 0.279999 417.729 0.429331 418.369 0.727997C419.009 1.02666 419.649 1.51733 420.289 2.2L431.553 15.064V3.224C431.553 2.2 431.788 1.45333 432.257 0.983997C432.726 0.514665 433.473 0.279999 434.497 0.279999H444.097C445.121 0.279999 445.868 0.514665 446.337 0.983997C446.806 1.45333 447.041 2.2 447.041 3.224V44.696C447.041 45.72 446.806 46.4667 446.337 46.936C445.868 47.4053 445.121 47.64 444.097 47.64H434.497C433.473 47.64 432.726 47.4053 432.257 46.936C431.788 46.4667 431.553 45.72 431.553 44.696V37.08L421.889 25.368V44.696C421.889 45.72 421.654 46.4667 421.185 46.936C420.716 47.4053 419.969 47.64 418.945 47.64ZM466.621 47.64C465.597 47.64 464.85 47.4053 464.381 46.936C463.911 46.4667 463.677 45.72 463.677 44.696V13.912H454.909C453.885 13.912 453.138 13.6773 452.669 13.208C452.199 12.7387 451.965 11.992 451.965 10.968V3.224C451.965 2.2 452.199 1.45333 452.669 0.983997C453.138 0.514665 453.885 0.279999 454.909 0.279999H488.701C489.725 0.279999 490.471 0.514665 490.941 0.983997C491.41 1.45333 491.645 2.2 491.645 3.224V10.968C491.645 11.992 491.41 12.7387 490.941 13.208C490.471 13.6773 489.725 13.912 488.701 13.912H479.933V44.696C479.933 45.72 479.698 46.4667 479.229 46.936C478.759 47.4053 478.013 47.64 476.989 47.64H466.621ZM476.989 47C477.799 47 478.375 46.8293 478.717 46.488C479.101 46.104 479.293 45.5067 479.293 44.696V13.272H488.701C489.511 13.272 490.087 13.1013 490.429 12.76C490.813 12.376 491.005 11.7787 491.005 10.968V3.224C491.005 2.41333 490.813 1.83733 490.429 1.496C490.087 1.112 489.511 0.919998 488.701 0.919998H454.909C454.098 0.919998 453.501 1.112 453.117 1.496C452.775 1.83733 452.605 2.41333 452.605 3.224V10.968C452.605 11.7787 452.775 12.376 453.117 12.76C453.501 13.1013 454.098 13.272 454.909 13.272H464.317V44.696C464.317 45.5067 464.487 46.104 464.829 46.488C465.213 46.8293 465.81 47 466.621 47H476.989ZM471.485 41.24V7.32H458.365V6.68H485.245V7.32H472.125V41.24H471.485ZM532.493 35.736C532.493 39.576 531.255 42.52 528.781 44.568C526.306 46.616 522.914 47.64 518.605 47.64H498.381C497.357 47.64 496.61 47.4053 496.141 46.936C495.671 46.4667 495.437 45.72 495.437 44.696V37.208C495.437 36.184 495.671 35.4373 496.141 34.968C496.61 34.4987 497.357 34.264 498.381 34.264H515.597C515.938 34.264 516.194 34.136 516.365 33.88C516.535 33.624 516.621 33.3467 516.621 33.048C516.621 32.5787 516.535 32.216 516.365 31.96C516.194 31.704 515.917 31.5547 515.533 31.512L505.933 30.168C502.733 29.6987 500.173 28.6533 498.253 27.032C496.375 25.368 495.437 22.6587 495.437 18.904V12.184C495.437 8.344 496.653 5.4 499.085 3.352C501.559 1.304 504.973 0.279999 509.325 0.279999H527.245C528.269 0.279999 529.015 0.514665 529.485 0.983997C529.954 1.45333 530.189 2.2 530.189 3.224V10.84C530.189 11.864 529.954 12.6107 529.485 13.08C529.015 13.5493 528.269 13.784 527.245 13.784H512.333C511.991 13.784 511.714 13.912 511.501 14.168C511.33 14.424 511.245 14.7227 511.245 15.064C511.245 15.448 511.33 15.768 511.501 16.024C511.714 16.28 512.013 16.4293 512.397 16.472L521.933 17.752C525.133 18.2213 527.693 19.288 529.613 20.952C531.533 22.5733 532.493 25.2613 532.493 29.016V35.736ZM518.605 47C522.701 47 525.922 46.04 528.269 44.12C530.658 42.1573 531.853 39.3627 531.853 35.736V29.016C531.853 25.432 530.935 22.872 529.101 21.336C527.266 19.8 524.855 18.8187 521.869 18.392L512.333 17.112C511.778 17.0693 511.351 16.856 511.053 16.472C510.754 16.088 510.605 15.6187 510.605 15.064C510.605 14.5093 510.754 14.0613 511.053 13.72C511.351 13.336 511.778 13.144 512.333 13.144H527.245C528.055 13.144 528.631 12.9733 528.972 12.632C529.356 12.248 529.549 11.6507 529.549 10.84V3.224C529.549 2.41333 529.356 1.83733 528.972 1.496C528.631 1.112 528.055 0.919998 527.245 0.919998H509.325C505.186 0.919998 501.943 1.90133 499.597 3.864C497.25 5.784 496.077 8.55733 496.077 12.184V18.904C496.077 22.488 496.973 25.048 498.765 26.584C500.599 28.12 503.01 29.1013 505.997 29.528L515.597 30.872C516.151 30.9147 516.557 31.1067 516.813 31.448C517.111 31.7893 517.261 32.3227 517.261 33.048C517.261 33.56 517.111 34.008 516.813 34.392C516.557 34.7333 516.151 34.904 515.597 34.904H498.381C497.57 34.904 496.973 35.096 496.589 35.48C496.247 35.8213 496.077 36.3973 496.077 37.208V44.696C496.077 45.5067 496.247 46.104 496.589 46.488C496.973 46.8293 497.57 47 498.381 47H518.605ZM523.789 6.68V7.32H509.581C507.789 7.32 506.359 7.81067 505.293 8.792C504.226 9.77333 503.693 11.0107 503.693 12.504V17.752C503.693 19.2453 503.991 20.2907 504.589 20.888C505.186 21.4853 505.975 21.8693 506.957 22.04L520.461 24.792C521.741 25.048 522.786 25.6027 523.597 26.456C524.45 27.3093 524.877 28.8453 524.877 31.064V34.776C524.877 36.6533 524.237 38.2107 522.957 39.448C521.677 40.6427 519.949 41.24 517.773 41.24H501.837V40.6H517.773C519.735 40.6 521.293 40.0667 522.445 39C523.639 37.8907 524.237 36.4827 524.237 34.776V31.064C524.237 29.0587 523.874 27.6933 523.149 26.968C522.466 26.2 521.527 25.688 520.333 25.432L506.829 22.68C505.719 22.4667 504.802 22.04 504.077 21.4C503.394 20.7173 503.053 19.5013 503.053 17.752V12.504C503.053 10.7973 503.65 9.41066 504.845 8.344C506.039 7.23466 507.618 6.68 509.581 6.68H523.789Z" fill="#F1BB0B"/>
</svg>
