<?xml version="1.0" encoding="UTF-8"?>
<svg width="50px" height="50px" viewBox="140 0 125 125" version="1.1" xmlns="http://www.w3.org/2000/svg" xmlns:xlink="http://www.w3.org/1999/xlink" preserveAspectRatio="xMidYMid">
    <g>
        <path d="M184.31481,67.7044587 C197.78381,59.9684587 211.21681,52.1694587 224.73181,44.5134587 C237.55981,37.2454587 252.65281,43.9484587 255.56081,58.0924587 C257.24381,66.2744587 253.59081,75.1134587 246.20381,79.4184587 C221.98581,93.5314587 197.73281,107.588459 173.35881,121.430459 C165.81481,125.714459 158.04381,124.926459 151.16881,119.676459 C144.18481,114.346459 141.98381,106.994459 143.62181,98.4374587 C145.49181,91.9234587 149.77181,87.5684587 155.60881,84.3104587 C165.25981,78.9244587 174.75381,73.2544587 184.31481,67.7044587" fill="#FABC05"></path>
        <path d="M194.20341,62.0789587 C180.76841,54.2829587 167.29941,46.5479587 153.91141,38.6729587 C141.20241,31.1969587 139.46241,14.7749587 150.25641,5.18295871 C156.50041,-0.364041286 165.98141,-1.62104129 173.40341,2.62395871 C197.73541,16.5409587 222.03541,30.5169587 246.20941,44.7039587 C253.69141,49.0949587 256.89341,56.2199587 255.78641,64.7989587 C254.66141,73.5109587 249.39541,79.0929587 241.16641,81.9539587 C234.58941,83.5919587 228.67841,82.0619587 222.93841,78.6359587 C213.44741,72.9709587 203.79041,67.5829587 194.20341,62.0789587" fill="#109D58"></path>
    </g>
</svg>  